<svg width="200" height="200" viewBox="0 0 398 458" fill="none" xmlns="http://www.w3.org/2000/svg">
    <g clip-path="url(#clip0_306_15)">
        <path d="M385.845 336.886L198.658 444.959L11.4707 336.886L11.4707 120.741L198.658 12.6686L385.845 120.741V336.886Z" fill="#DD4F43"/>
        <path d="M11.4707 120.741L198.658 228.814L198.658 444.959L11.4707 336.886V120.741Z" fill="#F35448" stroke="black" stroke-width="0.947023"/>
        <path d="M198.658 12.6686L385.845 120.741L198.658 228.814L11.4707 120.741L198.658 12.6686Z" fill="#F63D30" stroke="black" stroke-width="0.947023"/>
        <path d="M385.845 120.741V336.886L198.658 444.959L198.658 228.814L385.845 120.741Z" fill="#621812" stroke="black" stroke-width="0.947023"/>
        <path d="M355.192 319.188L198.659 409.563L42.125 319.188V138.439L198.659 48.0642L355.192 138.439V319.188Z" fill="#A1271D"/>
        <path d="M241.352 253.463L198.659 278.112L155.965 253.463V204.164L198.659 179.515L241.352 204.164V253.463Z" fill="#671912"/>
        <path d="M198.658 228.814V48.0642L355.192 138.439V319.188L198.658 228.814Z" fill="#E8E1E1" stroke="black" stroke-width="0.947023"/>
        <path d="M198.659 48.0642V228.814L42.125 319.188V138.439L198.659 48.0642Z" fill="#332221" stroke="black" stroke-width="0.947023"/>
        <path d="M198.659 228.814L355.192 319.188L198.659 409.563L42.125 319.188L198.659 228.814Z" fill="#FF4C3E" stroke="black" stroke-width="0.947023"/>
        <path d="M241.352 204.164L198.658 228.814V278.112L241.352 253.463V204.164Z" fill="#621812" stroke="black" stroke-width="0.947023"/>
        <path d="M198.659 179.515L241.352 204.164L198.659 228.814L155.965 204.164L198.659 179.515Z" fill="#FF4C3E" stroke="black" stroke-width="0.947023"/>
        <path d="M155.965 204.164L198.659 228.814L198.659 278.112L155.965 253.463V204.164Z" fill="#C02F23" stroke="black" stroke-width="0.947023"/>
        <path d="M198.658 278.112L218.146 289.364L260.049 265.171L241.352 204.164L198.658 228.814L198.658 278.112Z" fill="black" fill-opacity="0.237374"/>
        <path d="M220.38 242.982C221.123 242.604 221.742 241.991 222.237 241.143C222.733 240.295 222.963 239.455 222.929 238.623C222.895 237.79 222.605 237.215 222.061 236.897C221.518 236.579 220.874 236.609 220.132 236.987C219.389 237.365 218.77 237.978 218.275 238.826C217.779 239.674 217.548 240.514 217.583 241.346C217.617 242.179 217.907 242.754 218.45 243.072C218.994 243.39 219.638 243.36 220.38 242.982ZM220.463 244.98C219.23 245.608 218.159 245.656 217.251 245.124C216.341 244.593 215.858 243.637 215.801 242.254C215.744 240.872 216.129 239.473 216.958 238.055C217.786 236.639 218.817 235.617 220.049 234.989C221.282 234.361 222.353 234.312 223.262 234.843C224.171 235.375 224.654 236.332 224.711 237.715C224.768 239.097 224.383 240.496 223.555 241.912C222.726 243.33 221.695 244.352 220.463 244.98ZM211.387 245.524C211.135 245.652 210.919 245.664 210.741 245.559C210.562 245.455 210.467 245.261 210.455 244.978C210.443 244.695 210.519 244.414 210.682 244.135C210.845 243.857 211.052 243.654 211.305 243.525L213.087 242.617C213.339 242.489 213.555 242.476 213.734 242.58C213.912 242.685 214.007 242.879 214.019 243.162C214.031 243.446 213.955 243.726 213.793 244.004C213.629 244.283 213.422 244.487 213.169 244.616L211.387 245.524ZM227.425 237.352C227.173 237.48 226.957 237.492 226.779 237.387C226.6 237.283 226.505 237.09 226.493 236.807C226.481 236.523 226.557 236.242 226.72 235.963C226.883 235.685 227.09 235.482 227.343 235.353L229.125 234.445C229.377 234.317 229.593 234.305 229.771 234.409C229.95 234.514 230.045 234.708 230.057 234.991C230.069 235.274 229.993 235.554 229.83 235.833C229.667 236.111 229.46 236.315 229.207 236.444L227.425 237.352ZM219.966 232.99C219.714 233.119 219.499 233.131 219.32 233.026C219.141 232.922 219.046 232.728 219.034 232.445L218.951 230.447C218.94 230.164 219.015 229.883 219.179 229.604C219.341 229.326 219.549 229.123 219.801 228.994C220.054 228.865 220.269 228.853 220.448 228.957C220.627 229.062 220.722 229.256 220.733 229.539L220.816 231.537C220.828 231.82 220.752 232.101 220.59 232.379C220.427 232.658 220.219 232.862 219.966 232.99ZM220.711 250.975C220.458 251.104 220.243 251.116 220.065 251.011C219.886 250.907 219.79 250.713 219.778 250.43L219.696 248.432C219.684 248.149 219.76 247.868 219.923 247.589C220.085 247.311 220.293 247.107 220.545 246.979C220.798 246.85 221.014 246.838 221.193 246.943C221.371 247.047 221.466 247.241 221.478 247.524L221.56 249.522C221.572 249.805 221.497 250.086 221.334 250.364C221.171 250.643 220.963 250.846 220.711 250.975ZM214.393 237.922L213.392 237.361C213.206 237.268 213.111 237.079 213.107 236.792C213.103 236.505 213.178 236.22 213.333 235.937C213.503 235.646 213.714 235.436 213.967 235.308C214.219 235.179 214.431 235.173 214.603 235.29L215.583 235.887C215.755 236.004 215.846 236.195 215.857 236.462C215.868 236.728 215.796 237.003 215.641 237.286C215.486 237.569 215.286 237.769 215.041 237.885C214.795 238.002 214.579 238.014 214.393 237.922V237.922ZM225.909 244.679L224.929 244.082C224.757 243.965 224.666 243.77 224.655 243.495C224.643 243.22 224.715 242.949 224.871 242.683C225.026 242.4 225.227 242.2 225.472 242.084C225.717 241.967 225.933 241.955 226.119 242.047L227.12 242.608C227.306 242.701 227.401 242.89 227.405 243.177C227.409 243.464 227.334 243.749 227.179 244.032C227.009 244.323 226.798 244.533 226.545 244.661C226.293 244.79 226.081 244.796 225.909 244.679ZM224.462 232.791C224.276 232.699 224.181 232.513 224.178 232.234C224.173 231.956 224.249 231.676 224.404 231.393L225.295 229.842C225.45 229.559 225.654 229.357 225.907 229.236C226.16 229.116 226.379 229.103 226.565 229.195C226.751 229.304 226.85 229.5 226.862 229.783C226.874 230.066 226.794 230.345 226.624 230.619L225.709 232.156C225.539 232.43 225.334 232.627 225.097 232.748C224.859 232.87 224.648 232.884 224.462 232.791V232.791ZM213.947 250.774C213.761 250.665 213.662 250.469 213.65 250.186C213.638 249.903 213.718 249.624 213.888 249.35L214.803 247.813C214.973 247.539 215.181 247.34 215.427 247.215C215.671 247.09 215.879 247.078 216.05 247.178C216.236 247.27 216.331 247.455 216.335 247.734C216.339 248.013 216.263 248.293 216.108 248.576L215.217 250.127C215.062 250.41 214.858 250.612 214.605 250.732C214.352 250.852 214.133 250.866 213.947 250.774Z" fill="white"/>
        <path d="M177.841 249.28C175.542 248.257 173.669 246.523 172.222 244.078C170.775 241.634 170.155 239.158 170.363 236.65C170.553 234.358 171.403 232.674 172.913 231.598C174.424 230.523 176.256 230.318 178.411 230.985C178.796 231.105 179.08 231.386 179.265 231.83C179.449 232.274 179.411 232.636 179.151 232.916C178.856 233.233 178.624 233.603 178.454 234.027C178.285 234.451 178.179 234.929 178.135 235.46C178.011 236.955 178.385 238.439 179.257 239.913C180.13 241.386 181.251 242.428 182.622 243.038C183.094 243.248 183.568 243.382 184.045 243.44C184.522 243.497 184.954 243.474 185.341 243.371C185.68 243.281 186.009 243.414 186.326 243.77C186.644 244.127 186.762 244.52 186.679 244.948C186.275 247.145 185.223 248.649 183.523 249.459C181.821 250.268 179.927 250.209 177.841 249.28ZM178.007 247.287C179.346 247.884 180.583 248.017 181.715 247.686C182.848 247.354 183.712 246.649 184.306 245.571C183.995 245.518 183.685 245.449 183.376 245.363C183.067 245.278 182.761 245.167 182.456 245.031C180.584 244.198 179.048 242.769 177.85 240.746C176.652 238.723 176.138 236.69 176.308 234.647C176.335 234.315 176.386 233.993 176.459 233.681C176.532 233.369 176.62 233.064 176.724 232.766C175.492 232.768 174.459 233.187 173.625 234.021C172.79 234.855 172.311 236.002 172.19 237.464C172.03 239.391 172.518 241.313 173.654 243.231C174.79 245.149 176.24 246.501 178.007 247.287Z" fill="white"/>
    </g>
    <defs>
        <clipPath id="clip0_306_15">
            <rect width="397.317" height="457.916" fill="white"/>
        </clipPath>
    </defs>
</svg>
