<svg width="154" height="152" viewBox="0 0 154 152" fill="none" xmlns="http://www.w3.org/2000/svg">
    <path d="M152 113.5L77 151L2 113.5L2 38.5L77 1L152 38.5V113.5Z" fill="#DD4F43"/>
    <path d="M2 38.5L77 76L77 151L2 113.5V38.5Z" fill="#F35448" stroke="black" stroke-width="0.947023"/>
    <path d="M77 1L152 38.5L77 76L2 38.5L77 1Z" fill="#F63D30" stroke="black" stroke-width="0.947023"/>
    <path d="M152 38.5V113.5L77 151L77 76L152 38.5Z" fill="#621812" stroke="black" stroke-width="0.947023"/>
    <path d="M139.718 107.359L76.9999 138.718L14.2817 107.359V44.6408L76.9999 13.2817L139.718 44.6408V107.359Z" fill="#A1271D"/>
    <path d="M94.1061 84.5531L77.0001 93.1061L59.894 84.5531V67.4471L77.0001 58.894L94.1061 67.4471V84.5531Z" fill="#671912"/>
    <path d="M77 75.9999V13.2817L139.718 44.6408V107.359L77 75.9999Z" fill="#E8E1E1" stroke="black" stroke-width="0.947023"/>
    <path d="M76.9999 13.2817V75.9999L14.2817 107.359V44.6408L76.9999 13.2817Z" fill="#332221" stroke="black" stroke-width="0.947023"/>
    <path d="M76.9998 76L139.718 107.359L76.9999 138.718L14.2817 107.359L76.9998 76Z" fill="#FF4C3E" stroke="black" stroke-width="0.947023"/>
    <path d="M94.106 67.447L77 76V93.1061L94.106 84.5531V67.447Z" fill="#621812" stroke="black" stroke-width="0.947023"/>
    <path d="M77.0001 58.894L94.1061 67.4471L77.0001 76.0001L59.894 67.4471L77.0001 58.894Z" fill="#FF4C3E" stroke="black" stroke-width="0.947023"/>
    <path d="M59.894 67.447L77.0001 76L77.0001 93.1061L59.894 84.5531V67.447Z" fill="#DAD8D7" stroke="black" stroke-width="0.947023"/>
    <path d="M77 93.1061L84.8083 97.0102L101.597 88.6157L94.106 67.447L77 76L77 93.1061Z" fill="black" fill-opacity="0.6174"/>
</svg>
