<svg width="151" height="150" viewBox="0 0 151 150" fill="none" xmlns="http://www.w3.org/2000/svg">
    <path d="M20.0777 0C12.6855 1.73494 8.37032 6.23771 7.09717 13.4768V136.221C9.41769 145.112 12.5751 148.343 20.3412 149.843H136.902C136.902 95.3543 136.902 70.8347 136.902 0H20.0777Z" fill="url(#paint0_linear_308_3)"/>
    <path d="M37.1564 108.277C37.0369 104.329 36.2317 99.3631 42.6036 96.9656C46.2114 96.0309 51.5739 92.6079 56.6715 90.7027C60.4165 89.3032 67.1642 84.7338 67.8692 82.0056C68.8034 73.6283 68.8886 75.2875 64.665 71.4687C62.1717 69.3851 63.224 64.1174 61.3929 64.4523C58.6698 64.8756 56.6471 56.2913 61.3281 56.1218C61.3281 56.1218 61.4152 47.1416 61.6284 45.7181C61.8416 44.2946 63.2681 39.6674 68.9345 38.5305C75.8568 37.1416 83.1438 38.4461 85.4013 40.062C90.1159 45.0501 89.4908 49.6759 89.2312 55.3754C94.1504 54.533 91.8475 65.3368 89.1161 63.3842C88.0843 67.3687 89.6497 68.813 86.0447 71.5804C83.9883 73.1481 83.6954 72.4718 83.0659 75.7337C82.7588 77.3251 83.4392 79.6654 83.5561 82.3329C83.5561 82.3329 92.3182 88.6172 98.7419 91.0308C111.509 95.5585 105.741 95.2121 114.609 98.9991C115.266 102.745 117.954 106.136 115.271 110.466L37.1564 108.277Z" fill="url(#paint1_linear_308_3)" stroke="url(#paint2_linear_308_3)" stroke-width="1.99906"/>
    <path d="M23.8926 13.6221C23.8926 14.7278 23.0385 15.6242 21.9849 15.6242C20.9313 15.6242 20.0771 14.7278 20.0771 13.6221C20.0771 12.5165 20.9313 11.6201 21.9849 11.6201C23.0385 11.6201 23.8926 12.5165 23.8926 13.6221Z" fill="black"/>
    <path d="M1 13.6221H21.3492" stroke="url(#paint3_linear_308_3)" stroke-width="1.95868" stroke-linecap="round"/>
    <path d="M23.8926 35.4173C23.8926 36.523 23.0385 37.4193 21.9849 37.4193C20.9313 37.4193 20.0771 36.523 20.0771 35.4173C20.0771 34.3116 20.9313 33.4153 21.9849 33.4153C23.0385 33.4153 23.8926 34.3116 23.8926 35.4173Z" fill="black"/>
    <path d="M1 35.4172H21.3492" stroke="url(#paint4_linear_308_3)" stroke-width="1.95868" stroke-linecap="round"/>
    <path d="M23.8926 54.4881C23.8926 55.5938 23.0385 56.4901 21.9849 56.4901C20.9313 56.4901 20.0771 55.5938 20.0771 54.4881C20.0771 53.3824 20.9313 52.4861 21.9849 52.4861C23.0385 52.4861 23.8926 53.3824 23.8926 54.4881Z" fill="black"/>
    <path d="M1 54.488H21.3492" stroke="url(#paint5_linear_308_3)" stroke-width="1.95868" stroke-linecap="round"/>
    <path d="M23.8926 73.5587C23.8926 74.6644 23.0385 75.5607 21.9849 75.5607C20.9313 75.5607 20.0771 74.6644 20.0771 73.5587C20.0771 72.453 20.9313 71.5566 21.9849 71.5566C23.0385 71.5566 23.8926 72.453 23.8926 73.5587Z" fill="black"/>
    <path d="M1 73.5588H21.3492" stroke="url(#paint6_linear_308_3)" stroke-width="1.95868" stroke-linecap="round"/>
    <path d="M23.8926 95.3541C23.8926 96.4598 23.0385 97.3561 21.9849 97.3561C20.9313 97.3561 20.0771 96.4598 20.0771 95.3541C20.0771 94.2484 20.9313 93.3521 21.9849 93.3521C23.0385 93.3521 23.8926 94.2484 23.8926 95.3541Z" fill="black"/>
    <path d="M1 95.3542H21.3492" stroke="url(#paint7_linear_308_3)" stroke-width="1.95868" stroke-linecap="round"/>
    <path d="M23.8926 114.425C23.8926 115.531 23.0385 116.427 21.9849 116.427C20.9313 116.427 20.0771 115.531 20.0771 114.425C20.0771 113.32 20.9313 112.423 21.9849 112.423C23.0385 112.423 23.8926 113.32 23.8926 114.425Z" fill="black"/>
    <path d="M1 114.425H21.3492" stroke="url(#paint8_linear_308_3)" stroke-width="1.95868" stroke-linecap="round"/>
    <path d="M23.8926 136.221C23.8926 137.326 23.0385 138.223 21.9849 138.223C20.9313 138.223 20.0771 137.326 20.0771 136.221C20.0771 135.115 20.9313 134.219 21.9849 134.219C23.0385 134.219 23.8926 135.115 23.8926 136.221Z" fill="black"/>
    <path d="M1 136.22H21.3492" stroke="url(#paint9_linear_308_3)" stroke-width="1.95868" stroke-linecap="round"/>
    <path d="M137.731 0.542725C149.528 3.6354 151.379 12.4723 150.943 16.6218L150.711 22.9706H137.731V0.542725Z" fill="url(#paint10_linear_308_3)"/>
    <path d="M137.73 23.74C143.873 23.8773 145.738 23.8047 150.711 23.9369V49.6539H137.73V23.7409" fill="url(#paint11_linear_308_3)"/>
    <path d="M137.829 49.9314C143.971 50.0687 145.836 49.9962 150.81 50.1283V75.8453H137.829V49.9323" fill="url(#paint12_linear_308_3)"/>
    <path d="M137.828 76.238C143.97 76.3754 145.835 76.3028 150.809 76.4349V102.152H137.828V76.2391" fill="url(#paint13_linear_308_3)"/>
    <path d="M137.993 102.702C144.135 102.839 146 102.767 150.973 102.899V128.616H137.993V102.703" fill="url(#paint14_linear_308_3)"/>
    <path d="M138.182 129.567L138.168 150C143.671 147.439 147.9 144.321 150.781 140.614L150.727 129.451L138.182 129.567Z" fill="url(#paint15_linear_308_3)"/>
    <defs>
        <linearGradient id="paint0_linear_308_3" x1="84.9801" y1="163.465" x2="84.9801" y2="-54.4882" gradientUnits="userSpaceOnUse">
            <stop stop-color="#898989"/>
            <stop offset="1" stop-color="#F0F3FD"/>
        </linearGradient>
        <linearGradient id="paint1_linear_308_3" x1="78.6476" y1="27.2741" x2="74.0536" y2="125.528" gradientUnits="userSpaceOnUse">
            <stop stop-color="#002952"/>
            <stop offset="1" stop-color="#0C06C9"/>
        </linearGradient>
        <linearGradient id="paint2_linear_308_3" x1="35.7625" y1="73.1103" x2="116.337" y2="73.1103" gradientUnits="userSpaceOnUse">
            <stop stop-color="#0003D3"/>
            <stop offset="1" stop-color="#0003D3" stop-opacity="0"/>
        </linearGradient>
        <linearGradient id="paint3_linear_308_3" x1="-nan" y1="-nan" x2="-nan" y2="-nan" gradientUnits="userSpaceOnUse">
            <stop/>
            <stop offset="1" stop-color="#C6C6C6"/>
        </linearGradient>
        <linearGradient id="paint4_linear_308_3" x1="-nan" y1="-nan" x2="-nan" y2="-nan" gradientUnits="userSpaceOnUse">
            <stop/>
            <stop offset="1" stop-color="#C6C6C6"/>
        </linearGradient>
        <linearGradient id="paint5_linear_308_3" x1="-nan" y1="-nan" x2="-nan" y2="-nan" gradientUnits="userSpaceOnUse">
            <stop/>
            <stop offset="1" stop-color="#C6C6C6"/>
        </linearGradient>
        <linearGradient id="paint6_linear_308_3" x1="-nan" y1="-nan" x2="-nan" y2="-nan" gradientUnits="userSpaceOnUse">
            <stop/>
            <stop offset="1" stop-color="#C6C6C6"/>
        </linearGradient>
        <linearGradient id="paint7_linear_308_3" x1="-nan" y1="-nan" x2="-nan" y2="-nan" gradientUnits="userSpaceOnUse">
            <stop/>
            <stop offset="1" stop-color="#C6C6C6"/>
        </linearGradient>
        <linearGradient id="paint8_linear_308_3" x1="-nan" y1="-nan" x2="-nan" y2="-nan" gradientUnits="userSpaceOnUse">
            <stop/>
            <stop offset="1" stop-color="#C6C6C6"/>
        </linearGradient>
        <linearGradient id="paint9_linear_308_3" x1="-nan" y1="-nan" x2="-nan" y2="-nan" gradientUnits="userSpaceOnUse">
            <stop/>
            <stop offset="1" stop-color="#C6C6C6"/>
        </linearGradient>
        <linearGradient id="paint10_linear_308_3" x1="145.473" y1="27.5765" x2="144.862" y2="-1.86457" gradientUnits="userSpaceOnUse">
            <stop stop-color="#0A3787"/>
            <stop offset="1" stop-color="#ABC7FF"/>
        </linearGradient>
        <linearGradient id="paint11_linear_308_3" x1="145.472" y1="54.9747" x2="144.656" y2="20.9636" gradientUnits="userSpaceOnUse">
            <stop stop-color="#0A3787"/>
            <stop offset="1" stop-color="#ABC7FF"/>
        </linearGradient>
        <linearGradient id="paint12_linear_308_3" x1="145.571" y1="81.1662" x2="144.755" y2="47.1552" gradientUnits="userSpaceOnUse">
            <stop stop-color="#0A3787"/>
            <stop offset="1" stop-color="#ABC7FF"/>
        </linearGradient>
        <linearGradient id="paint13_linear_308_3" x1="145.57" y1="107.473" x2="144.754" y2="73.4615" gradientUnits="userSpaceOnUse">
            <stop stop-color="#0A3787"/>
            <stop offset="1" stop-color="#ABC7FF"/>
        </linearGradient>
        <linearGradient id="paint14_linear_308_3" x1="145.735" y1="133.937" x2="144.919" y2="99.9251" gradientUnits="userSpaceOnUse">
            <stop stop-color="#0A3787"/>
            <stop offset="1" stop-color="#ABC7FF"/>
        </linearGradient>
        <linearGradient id="paint15_linear_308_3" x1="145.585" y1="150.185" x2="145.946" y2="128.537" gradientUnits="userSpaceOnUse">
            <stop stop-color="#0A3787"/>
            <stop offset="1" stop-color="#ABC7FF"/>
        </linearGradient>
    </defs>
</svg>
