<svg width="1500" height="150" viewBox="0 0 250 251" fill="none" xmlns="http://www.w3.org/2000/svg">
    <path d="M134.821 28.1394C134.821 23.8854 130.905 20.4394 126.07 20.4394C121.236 20.4394 117.32 23.8854 117.32 28.1394V222.408C117.32 226.671 121.236 230.125 126.07 230.125C130.905 230.125 134.821 226.671 134.821 222.408V152.389C134.821 151.88 135.3 151.467 135.873 151.467H164.63C165.206 151.467 165.681 151.88 165.681 152.389V223.019C165.681 237.919 147.944 250.004 126.07 250.004C104.187 250.004 86.4551 237.919 86.4551 223.019V26.9774C86.4551 12.0844 104.187 0 126.07 0C147.944 0 165.681 12.0844 165.681 26.9774V96.7114C165.681 97.2284 165.206 97.6324 164.63 97.6324H135.873C135.3 97.6324 134.821 97.2284 134.821 96.7114V28.1394Z" fill="#100F0D"/>
    <path d="M1.04577 50.2074C-0.802231 61.5434 -0.153231 80.1304 2.61477 90.5704C5.65577 101.949 23.1918 124.946 31.0928 135.627C39.0038 146.299 49.5538 157.444 49.3968 172.311V207.919C49.3968 212.174 45.4808 215.628 40.6458 215.628C35.8258 215.628 31.9098 212.174 31.9098 207.919V153.344C31.9098 152.836 31.4308 152.414 30.8438 152.414H2.09677C1.50877 152.414 1.04577 152.836 1.04577 153.344V209.547C1.04577 224.448 18.7768 236.532 40.6458 236.532C62.5288 236.532 80.2618 224.448 80.2618 209.547V172.311C80.1288 146.772 72.2188 143.052 61.9528 127.737C54.5998 116.738 36.5098 94.0504 33.4788 82.6714C30.7018 72.2324 30.8238 60.1474 31.9098 49.1654C31.9098 44.9104 35.8258 41.4564 40.6458 41.4564C45.4808 41.4564 49.3968 44.9104 49.3968 49.1654V97.7014C49.3968 98.2104 49.8718 98.6234 50.4628 98.6234H79.2058C79.7968 98.6234 80.2618 98.2104 80.2618 97.7014V50.2074C80.2618 35.2974 62.5288 23.2224 40.6458 23.2224C18.7768 23.2224 1.04577 35.2974 1.04577 50.2074Z" fill="#100F0D"/>
    <path d="M172.864 25.2974H216.997C235.223 25.2974 249.998 38.3124 249.998 54.3604V95.1274C249.998 106.556 241.49 116.204 229.757 119.512V120.062C241.49 123.36 249.998 133.017 249.998 144.455V206.687C249.998 220.831 236.962 232.304 220.918 232.304L172.864 232.33C172.272 232.33 171.803 231.907 171.803 231.408V26.2194C171.803 25.7204 172.272 25.2974 172.864 25.2974ZM203.728 45.5134C203.13 45.5134 202.662 45.9354 202.662 46.4444V110.768C202.662 111.294 203.13 111.707 203.728 111.707H208.069C213.877 111.707 218.59 107.548 218.59 102.431V54.7894C218.59 49.6744 213.877 45.5134 208.069 45.5134H203.728ZM203.728 132.147C203.13 132.147 202.662 132.561 202.662 133.069V212.028C202.662 212.545 203.13 212.967 203.728 212.967H208.919C214.738 212.967 219.441 208.806 219.441 203.69V141.423C219.441 136.291 214.738 132.147 208.919 132.147H203.728Z" fill="#100F0D"/>
</svg>
