<svg width="450" height="450" viewBox="0 0 450 450" fill="none" xmlns="http://www.w3.org/2000/svg">
    <rect width="450" height="450" fill="white"/>
    <g clip-path="url(#clip0_858_785)">
        <path d="M240.821 128.135C240.821 123.881 236.905 120.435 232.07 120.435C227.236 120.435 223.32 123.881 223.32 128.135V322.404C223.32 326.667 227.236 330.121 232.07 330.121C236.905 330.121 240.821 326.667 240.821 322.404V252.385C240.821 251.876 241.3 251.463 241.873 251.463H270.63C271.206 251.463 271.681 251.876 271.681 252.385V323.015C271.681 337.915 253.944 350 232.07 350C210.187 350 192.455 337.915 192.455 323.015V126.973C192.455 112.08 210.187 99.9956 232.07 99.9956C253.944 99.9956 271.681 112.08 271.681 126.973V196.707C271.681 197.224 271.206 197.628 270.63 197.628H241.873C241.3 197.628 240.821 197.224 240.821 196.707V128.135Z" fill="#100F0D"/>
        <path d="M107.046 150.203C105.198 161.539 105.847 180.126 108.615 190.566C111.656 201.945 129.192 224.942 137.093 235.623C145.004 246.295 155.554 257.44 155.397 272.307V307.915C155.397 312.17 151.481 315.624 146.646 315.624C141.826 315.624 137.91 312.17 137.91 307.915V253.34C137.91 252.832 137.431 252.41 136.844 252.41H108.097C107.509 252.41 107.046 252.832 107.046 253.34V309.543C107.046 324.444 124.777 336.528 146.646 336.528C168.529 336.528 186.262 324.444 186.262 309.543V272.307C186.129 246.768 178.219 243.048 167.953 227.733C160.6 216.734 142.51 194.046 139.479 182.667C136.702 172.228 136.824 160.143 137.91 149.161C137.91 144.906 141.826 141.452 146.646 141.452C151.481 141.452 155.397 144.906 155.397 149.161V197.697C155.397 198.206 155.872 198.619 156.463 198.619H185.206C185.797 198.619 186.262 198.206 186.262 197.697V150.203C186.262 135.293 168.529 123.218 146.646 123.218C124.777 123.218 107.046 135.293 107.046 150.203" fill="#100F0D"/>
        <path d="M278.864 125.293H322.997C341.223 125.293 355.998 138.308 355.998 154.356V195.123C355.998 206.552 347.49 216.2 335.757 219.508V220.058C347.49 223.356 355.998 233.013 355.998 244.451V306.683C355.998 320.827 342.962 332.3 326.918 332.3L278.864 332.326C278.272 332.326 277.803 331.903 277.803 331.404V126.215C277.803 125.716 278.272 125.293 278.864 125.293M309.728 145.509C309.13 145.509 308.662 145.931 308.662 146.44V210.764C308.662 211.29 309.13 211.703 309.728 211.703H314.069C319.877 211.703 324.59 207.544 324.59 202.427V154.785C324.59 149.67 319.877 145.509 314.069 145.509H309.728ZM309.728 232.143C309.13 232.143 308.662 232.557 308.662 233.065V312.024C308.662 312.541 309.13 312.963 309.728 312.963H314.919C320.738 312.963 325.441 308.802 325.441 303.686V241.419C325.441 236.287 320.738 232.143 314.919 232.143H309.728Z" fill="#100F0D"/>
    </g>
    <defs>
        <clipPath id="clip0_858_785">
            <rect width="250" height="250" fill="white" transform="translate(106 100)"/>
        </clipPath>
    </defs>
</svg>
