<svg width="150" height="150" viewBox="0 0 150 150" fill="none" xmlns="http://www.w3.org/2000/svg">
    <path d="M80.8929 16.8833C80.8929 14.331 78.5433 12.2634 75.6423 12.2634C72.7418 12.2634 70.3922 14.331 70.3922 16.8833V133.443C70.3922 136 72.7418 138.073 75.6423 138.073C78.5433 138.073 80.8929 136 80.8929 133.443V91.432C80.8929 91.1266 81.1803 90.8789 81.5241 90.8789H98.7785C99.1241 90.8789 99.4091 91.1266 99.4091 91.432V133.809C99.4091 142.749 88.7668 150 75.6423 150C62.5123 150 51.873 142.749 51.873 133.809V16.1862C51.873 7.25051 62.5123 0 75.6423 0C88.7668 0 99.4091 7.25051 99.4091 16.1862V58.0258C99.4091 58.336 99.1241 58.5784 98.7785 58.5784H81.5241C81.1803 58.5784 80.8929 58.336 80.8929 58.0258V16.8833Z" fill="#100F0D"/>
    <path d="M0.627467 30.1238C-0.481343 36.9253 -0.0919394 48.0773 1.56888 54.3412C3.39349 61.1685 13.9152 74.9664 18.6558 81.3749C23.4025 87.778 29.7325 94.4649 29.6383 103.385V124.749C29.6383 127.302 27.2887 129.375 24.3877 129.375C21.4957 129.375 19.146 127.302 19.146 124.749V92.0049C19.146 91.7001 18.8586 91.4469 18.5064 91.4469H1.25807C0.905271 91.4469 0.627467 91.7001 0.627467 92.0049V125.726C0.627467 134.667 11.2662 141.917 24.3877 141.917C37.5176 141.917 48.1575 134.667 48.1575 125.726V103.385C48.0777 88.0618 43.3317 85.8298 37.172 76.641C32.7602 70.0417 21.9061 56.4292 20.0874 49.6019C18.4212 43.3386 18.4944 36.0877 19.146 29.4986C19.146 26.9457 21.4957 24.8733 24.3877 24.8733C27.2887 24.8733 29.6383 26.9457 29.6383 29.4986V58.6197C29.6383 58.9251 29.9233 59.1729 30.2779 59.1729H47.5239C47.8785 59.1729 48.1575 58.9251 48.1575 58.6197V30.1238C48.1575 21.178 37.5176 13.9331 24.3877 13.9331C11.2662 13.9331 0.627467 21.178 0.627467 30.1238Z" fill="#100F0D"/>
    <path d="M103.719 15.1782H130.199C141.135 15.1782 150 22.9871 150 32.6157V57.0755C150 63.9328 144.895 69.7215 137.855 71.7062V72.0362C144.895 74.015 150 79.8091 150 86.6718V124.01C150 132.497 142.178 139.38 132.552 139.38L103.719 139.396C103.364 139.396 103.083 139.142 103.083 138.843V15.7314C103.083 15.432 103.364 15.1782 103.719 15.1782ZM122.238 27.3076C121.879 27.3076 121.598 27.5608 121.598 27.8662V66.4599C121.598 66.7755 121.879 67.0233 122.238 67.0233H124.842C128.327 67.0233 131.155 64.528 131.155 61.4578V32.8731C131.155 29.8042 128.327 27.3076 124.842 27.3076H122.238ZM122.238 79.2871C121.879 79.2871 121.598 79.5355 121.598 79.8403V127.215C121.598 127.525 121.879 127.778 122.238 127.778H125.352C128.844 127.778 131.666 125.282 131.666 122.212V84.8526C131.666 81.7735 128.844 79.2871 125.352 79.2871H122.238Z" fill="#100F0D"/>
</svg>
