<svg width="359" height="390" viewBox="0 0 359 390" fill="none" xmlns="http://www.w3.org/2000/svg">
    <path d="M250.929 380.904C252.317 380.2 254.296 379.507 256.856 378.49C258.385 382.381 258.712 386.057 259.33 389.676C258.009 389.679 257.917 389.548 257.135 389.194C256.321 388.354 256.448 388.581 255.856 387.99C255.856 387.99 255.113 386.872 254.856 386.49C255.233 387.002 254.221 385.597 254.856 386.49C254.856 386.49 254.047 384.68 253.356 383.99C252.68 382.742 251.046 381.89 250.356 380.99C250.356 380.99 250.935 381.054 250.929 380.904Z" fill="white"/>
    <path d="M147.638 345.793C146.02 344.957 143.687 344.543 142.902 343.215C138.656 336.024 134.526 328.737 130.888 321.225C128.264 315.807 126.213 310.069 124.388 304.32C122.969 299.852 122.294 295.147 121.164 289.974C120.002 290.55 117.802 290.941 116.818 292.248C112.142 298.458 107.791 304.914 103.34 311.293C102.01 313.198 100.723 315.132 99.4293 317.061C96.7631 321.04 95.6424 324.921 96.6465 330.116C98.1248 337.766 91.6113 343.466 84.5977 346.356C77.0165 349.479 71.4822 347.445 66.1136 343.138C63.8853 341.351 62.1177 338.194 61.5191 335.368C60.7385 331.683 61.2404 327.705 61.3512 323.858C61.4682 319.795 65.7596 313.666 69.7157 313.11C79.2928 311.764 81.4465 304.293 84.4664 297.041C85.8593 293.696 88.6983 290.953 90.8814 287.937C91.261 287.412 91.6398 286.887 91.49 287.095C83.0421 287.396 74.0955 288.594 65.3385 287.772C57.0551 286.995 48.6468 284.926 40.8903 281.897C33.1683 278.881 25.1878 275.068 19.1485 269.59C12.3075 263.384 6.10523 256.076 3.10022 246.532C1.00383 239.875 -1.19 233.516 0.751772 226.614C4.5132 213.245 10.2524 201.349 24.3822 195.822C28.0016 194.406 31.3693 192.347 35.035 190.49C32.3494 187.125 29.5876 183.809 26.9967 180.365C25.3967 178.237 24.1016 175.884 22.5896 173.687C20.5111 170.666 18.835 167.15 16.1489 164.806C6.51117 156.397 7.54712 140.801 17.809 134.157C19.7168 132.922 22.3529 132.59 24.7087 132.307C34.1619 131.173 45.7688 135.341 45.3577 148.271C45.2225 152.526 44.6957 156.767 44.4892 161.022C44.4371 162.096 44.7586 163.271 45.1986 164.272C47.6132 169.767 60.3647 179.429 66.1573 180.248C45.5685 152.988 55.5418 108.073 86.3946 93.2071C81.3841 89.1407 76.4956 85.0809 71.4335 81.2506C71.0533 80.9629 68.7794 82.0883 68.4896 82.9347C64.4294 94.7908 50.4764 99.2829 40.9077 95.9258C32.2311 92.8817 26.7557 84.7246 26.9586 74.5673C27.2061 62.1785 34.1606 55.1348 44.5363 52.4365C51.2806 50.6825 59.1382 52.5753 66.3825 53.625C70.5057 54.2224 74.4133 56.3713 78.3917 57.8902C86.4051 60.9497 93.534 65.3949 99.6106 71.4964C99.9966 71.884 100.806 71.8501 101.9 72.1399C102.727 65.5506 103.217 59.1352 104.408 52.8529C105.671 46.1952 107.61 39.8411 110.276 33.3876C114.196 23.8974 119.944 16.6471 127.301 10.3272C135.272 3.48 144.682 -0.433256 155.391 0.0382563C160.861 0.279132 166.378 0.900561 171.732 2.02375C180.113 3.78185 188.836 16.3539 186.107 25.3477C185.319 27.9438 186.033 28.2367 188.119 29.0512C202.025 34.4807 214.121 42.7131 223.063 54.6794C227.101 60.0835 229.866 66.6331 232.28 73.0142C236.709 84.7211 236.709 97.1301 234.132 109.048C231.646 120.541 226.578 131.313 218.582 140.366C217.658 141.412 216.679 142.757 216.558 144.041C216.483 144.849 217.818 146.134 218.799 146.555C219.311 146.775 220.871 145.779 221.203 145.007C227.391 130.623 236.447 118.106 245.74 105.616C253.199 95.5928 259.667 84.765 260.32 71.6419C260.476 68.5185 260.359 65.9062 256.37 64.7738C254.584 64.267 252.865 61.9732 251.986 60.0853C246.804 48.9633 248.407 40.1886 257.85 32.2508C261.967 28.7907 274.294 30.1117 278.585 33.5217C284.093 37.898 286.862 43.223 286.357 50.2019C286.255 51.6197 285.644 52.9955 285.48 54.4153C285.189 56.9283 284.294 59.7098 285.018 61.9341C286.727 67.1812 287 72.1304 284.807 77.2322C284.392 78.1981 284.549 79.41 284.376 81.1986C289.105 80.3977 293.446 78.7638 297.594 79.1594C304.766 79.8434 312.249 80.7692 318.78 83.5344C323.698 85.6167 327.813 90.3229 331.44 94.582C340.097 104.75 343.286 117.039 342.235 130.091C341.468 139.622 338.603 148.624 334.123 157.43C329.537 166.442 323.779 174.299 317.02 181.492C313.343 185.406 308.605 188.322 304.944 191.215C312.078 194.101 319.222 197.13 326.491 199.82C328.063 200.402 330.349 200.31 331.858 199.59C338.476 196.436 345.045 197.066 351.019 200.44C355.389 202.909 358.505 206.913 358.445 212.684C358.379 219.058 358.919 225.337 353.381 230.22C345.022 237.589 327.171 235.692 322.729 223.127C321.595 219.921 319.151 218.732 317.669 218.295C308.356 215.547 298.854 213.33 289.069 212.91C286.409 212.795 283.739 212.892 281.86 212.892C286.991 222.828 292.994 232.434 297.08 242.796C304.918 262.67 305.944 283.779 304.055 304.73C303.193 314.287 299.042 323.61 295.91 332.879C293.789 339.157 291.659 345.693 288.068 351.149C283.294 358.404 276.896 364.568 271.567 371.487C266.795 377.683 259.443 379.874 253.269 383.789C248.933 386.538 243.437 388.266 238.297 388.755C229.86 389.559 221.048 390.248 212.843 388.662C203.34 386.826 194.161 382.871 185.132 379.132C171.014 373.285 160.124 362.866 149.512 352.262C148.201 350.952 148.057 348.476 147.808 346.011C163.932 364.588 182.791 378.648 207.464 384.222C236.347 390.748 262.409 382.557 279.301 358.92C297.627 333.277 304.444 304.382 300.918 273.101C298.749 253.855 293.14 235.789 281.59 219.929C279.326 216.821 276.881 213.846 274.199 210.398C290.485 209.326 305.807 209.994 320.201 216.801C322.233 217.762 324.327 219.704 325.235 221.715C327.567 226.878 331.44 229.651 336.653 231.223C344.137 233.48 351.269 230.337 354.811 222.983C358.205 215.938 355.947 206.895 349.483 203.173C342.015 198.873 334.671 199.484 329.041 204.002C323.184 201.418 318.245 198.75 312.992 197.058C307.608 195.323 301.916 194.545 296.603 193.401C301.599 189.57 306.977 185.946 311.778 181.676C329.344 166.052 339.95 147.01 339.321 122.853C338.847 104.662 327.396 88.9543 310.717 83.5551C300.755 80.3304 290.863 82.0479 282.013 84.5429C282.11 77.4506 282.854 70.2188 282.04 63.1668C281.616 59.4928 281.42 56.3117 282.559 52.8013C285.12 44.9059 280.61 36.2875 272.796 33.5916C265.277 30.9974 256.549 34.9501 253.36 42.3935C249.992 50.2562 253.354 59.4142 260.743 63.1028C261.922 63.6913 263.394 65.397 263.323 66.4953C262.983 71.7558 262.697 77.1227 261.398 82.1977C258.363 94.0606 250.664 103.4 243.797 113.204C235.048 125.694 225.21 137.64 221.859 153.522C218.203 150.296 214.863 147.348 211.318 144.219C228.64 125.289 237.374 103.605 230.934 78.299C224.413 52.6746 205.775 38.1785 181.659 30.0255C185.751 17.6018 181.305 8.00824 169.272 4.14592C153.622 -0.877332 139.788 3.66638 127.6 13.7934C113.196 25.7614 107.997 42.2012 106.456 60.0709C105.897 66.5552 106.366 73.1282 106.366 80.4953C104.464 78.9215 103.417 78.1243 102.447 77.2419C91.0974 66.9155 78.3097 59.1332 63.3459 55.2615C47.9184 51.2697 32.1414 57.2142 29.7623 72.3995C27.9402 84.0294 39.2111 95.7132 50.6866 93.3105C61.125 91.1248 64.5015 87.0978 65.668 75.1706C75.5703 80.0682 84.8811 85.4815 91.876 94.9048C70.9962 102.669 61.7024 118.582 59.2595 139.155C56.7854 159.99 64.3089 177.065 80.2026 190.803C64.9436 185.675 51.3462 178.476 42.0932 165.071C41.0674 163.585 40.9148 160.757 41.5627 158.994C43.4413 153.884 43.423 149.031 41.626 143.944C39.3798 137.585 34.6229 135.218 28.3555 134.489C22.2663 133.781 18.0704 136.508 15.0373 141.298C9.78015 149.601 12.7891 160.168 21.4778 164.766C22.3521 165.229 23.5317 165.875 23.7654 166.672C26.8537 177.204 33.613 184.953 42.1001 191.477C42.6367 191.889 42.6934 192.926 42.9914 193.646C43.0094 193.619 42.9869 193.559 42.6607 193.359C37.6938 194.301 32.8464 194.923 28.4473 196.673C7.33097 205.071 -2.65518 229.715 7.24162 248.759C19.582 272.504 40.2214 283.237 65.8163 284.689C77.5096 285.352 89.3662 283.134 100.818 282.249C91.721 290.286 83.8908 300.198 81.4664 313.163C69.2338 313.298 62.8735 319.436 62.9878 330.435C63.0734 338.673 70.3154 345.824 78.339 345.592C87.0696 345.34 94.7399 338.239 93.6411 330.006C92.8914 324.389 94.4097 320.617 97.0585 315.807C104.003 303.197 111.859 291.574 123.324 282.492C124.527 299.69 129.982 315.68 138.724 330.602C141.692 335.668 144.667 340.73 147.638 345.793Z" fill="white"/>
    <path d="M147.565 345.838C144.667 340.73 141.692 335.668 138.724 330.602C129.982 315.68 124.527 299.69 123.324 282.492C111.859 291.574 104.002 303.197 97.0583 315.807C94.4096 320.617 92.8912 324.389 93.641 330.006C94.7397 338.239 87.0694 345.34 78.3388 345.592C70.3152 345.824 63.0732 338.673 62.9876 330.435C62.8733 319.436 69.2337 313.298 81.4663 313.163C83.8906 300.198 91.7209 290.286 100.817 282.249C89.3661 283.134 77.5094 285.352 65.8162 284.689C40.2212 283.237 19.5818 272.504 7.24145 248.759C-2.65536 229.715 7.33079 205.07 28.4471 196.673C32.8462 194.923 37.6936 194.301 42.9374 193.355C43.6917 193.511 43.843 193.473 43.9942 193.434C43.8162 193.291 43.6382 193.149 43.4603 193.006C43.2979 193.228 43.1356 193.45 42.9733 193.672C42.6933 192.926 42.6365 191.889 42.0999 191.477C33.6129 184.952 26.8535 177.204 23.7652 166.672C23.5315 165.875 22.3519 165.229 21.4777 164.766C12.7889 160.168 9.77998 149.601 15.0371 141.298C18.0702 136.508 22.2662 133.781 28.3553 134.489C34.6227 135.218 39.3796 137.585 41.6259 143.944C43.4228 149.031 43.4412 153.884 41.5626 158.994C40.9147 160.757 41.0672 163.585 42.093 165.071C51.3461 178.476 64.9435 185.675 80.2024 190.803C64.3087 177.065 56.7852 159.99 59.2593 139.155C61.7022 118.582 70.996 102.669 91.8758 94.9047C84.8809 85.4815 75.5701 80.0681 65.6679 75.1705C64.5013 87.0977 61.1248 91.1248 50.6864 93.3104C39.2109 95.7132 27.9401 84.0294 29.7621 72.3994C32.1412 57.2142 47.9183 51.2697 63.3458 55.2614C78.3095 59.1332 91.0972 66.9155 102.447 77.2418C103.417 78.1242 104.464 78.9215 106.366 80.4952C106.366 73.1281 105.897 66.5551 106.456 60.0708C107.997 42.2012 113.196 25.7614 127.6 13.7934C139.788 3.66632 153.622 -0.877391 169.272 4.14586C181.305 8.00818 185.75 17.6018 181.659 30.0254C205.774 38.1784 224.413 52.6745 230.934 78.2989C237.374 103.605 228.64 125.288 211.318 144.219C214.863 147.348 218.203 150.295 221.859 153.522C225.21 137.64 235.048 125.694 243.797 113.204C250.664 103.4 258.363 94.0606 261.398 82.1976C262.697 77.1226 262.983 71.7557 263.323 66.4952C263.394 65.397 261.922 63.6913 260.743 63.1028C253.354 59.4141 249.991 50.2562 253.36 42.3935C256.548 34.9501 265.277 30.9973 272.796 33.5915C280.609 36.2875 285.12 44.9059 282.559 52.8012C281.42 56.3117 281.616 59.4927 282.04 63.1667C282.854 70.2187 282.11 77.4505 282.013 84.5428C290.863 82.0478 300.755 80.3304 310.717 83.555C327.396 88.9542 338.847 104.662 339.321 122.853C339.95 147.01 329.344 166.052 311.778 181.676C306.977 185.946 301.599 189.57 296.603 193.401C301.916 194.545 307.608 195.323 312.992 197.057C318.245 198.75 323.184 201.418 329.04 204.002C334.671 199.484 342.015 198.873 349.483 203.173C355.947 206.895 358.205 215.938 354.811 222.983C351.269 230.337 344.137 233.48 336.653 231.223C331.44 229.651 327.567 226.878 325.235 221.714C324.327 219.704 322.233 217.762 320.201 216.801C305.807 209.994 290.485 209.326 274.199 210.398C276.88 213.846 279.326 216.821 281.59 219.929C293.14 235.789 298.749 253.855 300.918 273.101C304.443 304.382 297.627 333.277 279.301 358.92C262.409 382.557 236.346 390.748 207.464 384.222C182.791 378.648 163.932 364.588 147.915 345.611C147.586 345.739 147.491 345.883 147.565 345.838ZM294.988 170.94C295.154 170.653 295.321 170.366 295.41 170.107C295.41 170.107 295.467 170.165 296.122 169.996C296.733 169.347 297.344 168.698 298.571 167.929C301.532 164.643 304.493 161.356 307.432 158.012C307.432 158.012 307.383 158.05 307.926 157.957C308.097 157.64 308.268 157.322 308.368 157.011C308.368 157.011 308.406 157.07 308.848 156.848C309.127 156.643 309.306 156.373 309.924 155.62C314.752 148.728 318.201 141.307 318.899 131.988C318.943 130.671 318.986 129.354 319.291 127.415C319.214 126.54 319.137 125.666 318.961 123.948C318.744 122.477 318.649 120.975 318.288 119.54C316.097 110.809 312.29 103.445 301.812 101.121C301.365 101.057 300.918 100.993 299.915 100.324C292.499 98.6107 285.919 101.988 281.4 106.498C278.161 109.73 278.235 116.283 276.831 121.355C277.194 121.514 277.557 121.673 277.92 121.832C281.808 119.073 285.697 116.315 289.585 113.556C289.866 113.968 290.148 114.38 290.429 114.791C286.033 118.756 281.638 122.722 276.267 127.566C282.324 127.857 287.637 127.99 288.856 132.955C289.356 134.99 287.356 137.99 286.856 132.955C284.787 132.771 282.515 132.066 279.892 131.615C276.048 133.699 272.205 135.784 268.347 137.017C268.276 136.169 268.206 135.322 268.654 134.059C278.264 128.973 274.024 119.882 275.596 112.472C275.213 112.232 274.829 111.992 274.446 111.753C271.471 114.718 268.496 117.683 264.948 120.873C263.822 121.83 262.631 122.721 261.58 123.755C255.603 129.633 249.836 135.669 246.836 144.474C243.976 152.578 241.116 160.682 237.653 169.199C235.597 174.825 233.54 180.452 231.269 186.386C231.269 186.386 231.307 186.758 230.791 187.218C230.672 187.885 230.552 188.552 230.212 189.327C230.212 189.327 230.359 189.682 229.956 190.349C230.389 191.164 230.821 191.979 231.826 193.02C237.691 192.392 243.556 191.764 250.268 191.153C264.251 190.054 276.627 184.978 288.101 175.99C289.244 175.054 290.388 174.118 292.105 173.088C292.536 172.736 292.966 172.383 293.922 171.967C294.106 171.678 294.291 171.389 294.988 170.94ZM176.565 346.381C176.736 346.646 176.965 346.843 177.675 347.416C178.221 347.646 178.767 347.876 179.289 348.031C179.289 348.031 179.226 348.077 179.338 348.699C179.99 349.165 180.643 349.63 181.358 350.046C181.358 350.046 181.279 350.048 181.601 350.65C189.486 358.461 205.575 357.038 214.358 351.987C214.358 351.987 214.35 352.046 215 352.098C215.734 351.743 216.468 351.387 217.45 350.69C217.45 350.69 217.415 350.269 218.11 350.279C219.482 350.305 220.854 350.331 222.641 350.607C222.998 350.599 223.267 350.44 224.21 350.038C234.094 347.405 243.297 343.337 252.139 336.977C258.851 331.091 266.432 325.928 272.071 319.15C280.637 308.855 286.352 297.106 280.315 282.328C279.664 280.047 279.012 277.766 278.107 274.599C273.38 279.414 269.362 283.507 264.807 287.926C264.636 288.281 264.464 288.636 264.351 288.96C264.351 288.96 264.303 288.914 263.628 288.83C262.9 289.358 262.172 289.886 260.836 290.645C255.65 294.411 250.464 298.178 245.341 301.983C245.341 301.983 245.321 301.911 244.643 301.987C243.182 302.963 241.721 303.939 240.326 304.96C240.326 304.96 240.326 304.88 239.726 304.954C239.255 305.294 238.784 305.635 238.353 305.997C238.353 305.997 238.348 305.952 237.635 306.027C234.825 307.642 232.016 309.256 229.287 310.908C229.287 310.908 229.279 310.819 228.662 310.829C228.163 311.148 227.665 311.467 227.247 311.833C227.247 311.833 227.255 311.74 226.54 311.819C225.047 312.521 223.554 313.223 221.335 313.998C209.375 317.378 197.415 320.758 184.6 323.982C183.167 324.136 181.734 324.291 179.39 324.274C172.873 324.274 166.356 324.274 158.222 324.274C161.755 328.95 164.474 332.548 167.294 336.077C167.294 336.077 167.186 336.157 167.289 336.801C168.671 338.447 170.054 340.093 171.486 342.444C172.791 343.285 174.095 344.126 175.367 344.997C175.367 344.997 175.374 344.953 175.593 345.398C175.797 345.675 176.063 345.863 176.361 345.992C176.361 345.992 176.386 345.959 176.565 346.381ZM141.373 127.578C141.694 127.745 142.016 127.912 142.312 128.016C142.312 128.016 142.259 128.059 142.578 128.655C144.934 129.859 147.29 131.063 150.141 132.851C155.162 134.249 160.183 135.647 165.758 137.386C166.609 137.509 167.46 137.632 169.133 137.982C175.37 139.638 181.36 138.529 187.325 136.368C187.325 136.368 187.614 136.089 188.356 135.99C189.674 135.317 190.74 134.866 192.698 134.118C196.243 130.741 199.789 127.364 203.612 123.36C213.394 116.162 216.593 97.3332 210.689 83.6569C212.136 99.4076 206.986 112.42 195.125 123.254C194.867 123.531 194.609 123.808 193.859 124.186C193.349 124.605 192.839 125.024 191.656 125.729C191.488 126.118 191.319 126.508 191.305 126.621C191.305 126.621 191.034 126.458 190.376 126.432C189.655 126.922 188.934 127.411 188.281 127.874C188.281 127.874 188.25 127.808 187.514 127.875C186.128 128.341 184.741 128.807 182.742 129.017C182.451 128.913 182.151 128.826 181.874 128.692C181.799 128.656 181.737 128.394 181.759 128.38C183.394 127.363 185.037 126.361 186.706 125.351C186.706 125.351 186.718 125.382 187.386 125.216C202.159 114.994 209.578 101.009 209.242 82.2539C209.262 80.4674 209.809 78.4796 209.217 76.9267C204.924 65.6786 197.495 57.176 186.053 51.4106C165.637 40.0076 138.562 49.8772 127.61 73.1965C126.552 77.116 125.494 81.0355 124.158 85.724C122.464 94.4698 125.027 102.459 128.418 110.807C128.783 111.104 129.147 111.401 129.478 111.825C129.478 111.825 129.602 111.868 129.517 112.583C132.964 117.081 136.411 121.58 140.182 126.637C140.557 126.821 140.933 127.004 141.306 127.046C141.306 127.046 141.166 127.064 141.373 127.578ZM31.5869 249.434C31.7594 249.719 32.0113 249.88 32.5562 250.568C36.6744 253.459 40.7925 256.35 45.381 259.811C51.3712 261.468 57.3613 263.125 64.1112 265.11C71.8567 264.993 79.6022 264.876 88.1364 264.826C104.74 262.546 117.832 254.363 128.128 241.48C127.876 241.024 127.623 240.568 127.37 240.112C117.883 245.6 108.396 251.087 98.9082 256.574C98.7544 256.272 98.6007 255.97 98.4469 255.668C103.755 251.48 109.064 247.291 115.047 242.927C118.359 240.763 121.734 238.686 124.947 236.383C125.935 235.674 126.48 234.348 127.229 233.304C125.86 232.668 124.491 231.505 123.122 231.505C120.238 231.505 117.353 232.113 114.192 232.506C115.919 235.937 115.72 238.78 110.85 240.077C110.664 240.162 110.477 240.247 109.548 240.14C108.779 238.243 108.779 238.243 112.418 236.235C111.907 231.111 107.932 231.594 104.517 231.069C103.373 234.041 102.331 236.747 101.232 239.601C103.108 239.868 104.588 240.079 107.116 240.438C102.644 242.59 96.8822 240.767 96.2545 246.91C96.2545 246.91 96.2495 246.824 95.6597 247.096C95.4524 247.691 95.2451 248.285 95.246 248.849C95.246 248.849 95.1808 248.649 94.5521 248.693C94.1734 248.876 93.7947 249.059 92.7709 249.048C93.199 247.63 93.627 246.212 94.3482 243.823C84.6799 242.211 75.0208 242.393 64.6681 243.978C63.3216 243.273 61.9751 242.568 60.5693 241.139C56.8548 238.125 53.1402 235.111 50.1342 232.07C53.6312 229.669 57.1283 227.268 61.0603 224.568C59.0927 223.4 57.5057 222.764 56.3137 221.691C53.2109 218.896 50.2815 215.908 47.9347 212.592C50.3969 214.285 52.8667 215.966 55.3197 217.672C62.6036 222.738 70.2801 222.203 78.0854 216.05C78.2204 215.946 78.3553 215.841 79.1918 215.95C81.8886 217.679 84.5855 219.408 87.2965 221.053C87.2965 221.053 87.2156 221.078 87.5841 221.652C88.8422 222.145 90.1004 222.639 91.8379 223.643C101.289 226.897 110.645 230.629 121.092 229.379C113.1 222.412 103.996 217.707 93.2918 214.346C88.7273 213.203 84.1629 212.06 78.8434 210.521C69.0444 210.652 59.2454 210.783 48.7521 210.911C47.9493 211.288 47.1465 211.665 45.5772 212.537C37.7217 211.51 32.1028 215.187 26.9085 221.408C23.3431 226.692 21.6714 232.165 25.2259 238.073C25.2259 238.073 25.1441 238.108 25.2394 238.829C26.918 241.592 28.5967 244.354 30.3112 247.03C30.3112 247.03 30.2207 247.006 30.2833 247.642C30.6487 248.071 31.014 248.499 31.4006 249.007C31.4006 249.007 31.4796 248.984 31.5869 249.434ZM151.359 160.047C151.418 159.72 151.476 159.392 151.451 159.076C151.451 159.076 151.488 159.152 152.051 159.016C152.519 158.43 152.986 157.845 153.992 156.88C154.449 155.915 154.906 154.95 155.355 153.99C155.355 153.99 155.358 153.998 155.879 153.643C155.836 152.75 156.108 151.273 155.703 151.054C149.33 147.62 142.87 144.348 136.113 140.422C125.184 131.961 119.776 119.794 114.423 107.383C111.223 107.951 108.321 108.467 104.634 108.943C89.5165 112.602 80.2643 121.844 78.1153 135.742C75.9057 144.419 76.0604 152.885 80.3552 160.99C80.3552 160.99 80.3609 160.989 80.3692 161.518C80.4791 161.657 80.5891 161.795 80.9484 162.527C84.406 164.662 87.8635 166.796 91.7623 169.412C92.5875 169.621 93.4127 169.829 94.8265 170.43C95.9578 170.716 97.0891 171.001 98.298 171.195C98.298 171.195 98.1799 171.221 98.6286 171.815C100.839 172.446 103.05 173.077 105.26 173.708C103.407 175.029 101.688 175.387 99.9999 175.272C96.9223 175.064 93.8637 174.576 90.3172 174.012C90.0766 174.107 89.836 174.201 89.5955 174.296C89.8319 174.542 90.0684 174.789 90.3768 175.769C92.6369 176.949 94.897 178.128 97.229 179.265C97.229 179.265 97.1725 179.204 97.6152 179.805C103.918 180.292 110.221 180.779 117.321 181.225C119.45 180.497 121.531 179.375 123.716 179.112C130.715 178.269 136.5 175.195 142.089 170.088C143.597 168.507 145.105 166.926 146.662 165.296C146.662 165.296 146.705 165.241 147.257 165.064C147.707 164.445 148.156 163.826 148.538 163.137C148.538 163.137 148.512 163.231 149.055 163.062C149.206 162.727 149.357 162.393 149.416 162.071C149.416 162.071 149.484 162.133 150.015 161.953C150.291 161.488 150.567 161.023 150.923 160.433C150.923 160.433 150.923 160.284 151.359 160.047ZM133.507 40.3463C139.1 37.0598 144.693 33.7734 150.429 30.4031C149.999 29.3882 149.103 27.2737 148.038 24.7614C141.513 28.7472 135.233 32.534 131.596 40.1518C131.168 41.0438 130.739 41.9358 130.311 42.8279C130.495 42.9392 130.679 43.0506 130.863 43.1619C131.569 42.3696 132.274 41.5772 133.507 40.3463ZM96.8224 238.39C98.7602 235.662 100.698 232.933 102.828 229.935C97.6904 228.073 93.5018 226.554 88.9243 224.637C88.0721 224.116 87.2199 223.595 85.8063 222.731C87.1384 226.108 88.1848 228.761 89.1664 231.736C89.1664 231.736 89.3692 231.995 89.2973 232.876C89.5853 235.258 89.8733 237.639 90.2444 240.708C92.7142 240.023 94.6024 239.499 96.8224 238.39ZM158.047 218.808C170.797 218.099 182.17 214.022 192.103 204.958C192.851 204.135 193.599 203.312 194.958 202.096C197.623 198.406 200.287 194.715 203.416 190.511C206.377 183.871 206.002 177.144 203.85 170.407C203.381 168.94 202.765 166.46 200.79 170.261C198.49 172.503 197.375 170.805 196.348 168.44C196.348 168.44 196.561 168.012 197.274 167.998C198.231 167.581 199.188 167.165 200.144 166.748C199.335 165.846 198.526 164.944 197.702 163.469C197.929 162.979 198.155 162.488 199.065 162.078C200.289 162.585 201.514 163.093 202.738 163.6C203.129 163.158 203.519 162.715 203.91 162.273C201.34 159.867 198.771 157.462 195.677 154.766C193.579 152.388 193.056 154.454 192.421 155.958C182.424 179.66 163.832 192.46 139.187 197.168C134.961 192.936 131.952 198.607 128.757 198.246C128.554 199.623 128.399 200.664 128.292 201.387C131.237 202.319 134.826 203.455 138.872 204.736C141.738 204.034 145.537 203.104 150.037 202.022C150.751 201.978 151.465 201.935 152.742 202.383C152.342 204.26 151.942 206.136 150.79 208.243C148.022 208.382 145.253 208.52 141.812 208.692C146.446 214.101 150.545 218.39 158.047 218.808ZM241.992 209.18C239.44 208.368 239.247 209.911 239.397 211.785C239.723 215.856 240.054 219.926 240.269 224.486C240.285 224.653 240.301 224.819 239.721 225.369C231.168 245.908 215.365 258 193.641 264.043C178.661 267.58 164.509 264.842 150.59 258.911C147.506 257.597 143.635 258.129 139.76 257.778C139.76 262.484 139.76 266.255 139.602 270.884C140.183 275.821 140.653 280.774 141.366 285.691C142.904 296.308 143.325 296.647 155.227 297.96C157.624 297.943 160.021 297.925 163.33 298.105C175.232 298.796 186.917 297.61 199.133 294.071C208.632 290.138 218.131 286.206 227.586 282.253C227.586 282.253 227.608 282.21 228.166 281.919C237.774 275.241 248.282 269.596 255.135 258.8C257.026 256.154 259.521 253.743 260.662 250.806C262.24 246.745 262.81 242.29 263.785 237.998C264.002 237.044 264.438 235.979 264.213 235.11C261.776 225.712 257.139 217.842 247.806 212.599C246.083 211.624 244.359 210.648 241.992 209.18ZM73.8767 236.313C77.2824 240.488 81.719 239.479 87.03 238.92C85.8897 233.962 84.8978 229.347 83.752 224.771C82.945 221.547 81.0171 220.809 77.8421 222.01C73.5653 223.629 69.1333 224.838 65.0895 226.121C67.2276 228.768 69.3369 231.379 70.9856 234.719C68.0117 232.184 65.0377 229.649 61.7446 226.842C59.5146 228.564 57.2963 230.278 55.0535 232.01C60.612 237.674 65.9541 242.191 74.0855 239.496C73.8326 238.696 73.5494 237.801 73.8767 236.313Z" fill="#200E05"/>
    <path d="M198.328 294.054C186.917 297.61 175.232 298.796 162.979 297.669C162.491 295.892 162.8 294.262 162.147 293.256C156.957 285.27 163.292 275.899 171.971 275.074C178.387 274.464 184.84 274.25 191.535 274.068C197.453 275.146 199.246 271.196 201.293 267.096C202.14 265.398 204.126 264.091 205.861 263.053C208.872 261.253 212.37 260.174 215.148 258.101C218.145 255.864 220.226 256.082 222.126 259.045C221.72 259.449 221.527 259.718 221.231 260.084C221.127 260.181 220.845 260.154 220.422 260.115C218.842 260.604 217.686 261.132 216.529 261.66C217.444 262.446 218.359 263.231 219.355 264.336C220.065 265.765 220.695 266.875 220.987 267.996C220.098 268.38 219.547 268.752 218.995 269.124C220.114 269.412 221.232 269.7 222.364 270.232C222.377 270.476 222.387 270.965 222.055 271.115C219.246 271.266 216.768 271.266 213.607 271.266C214.703 273.166 215.34 274.271 215.936 275.442C215.893 275.507 215.757 275.58 215.403 275.418C212.692 275.082 211.711 275.743 213.409 278.233C213.44 278.454 213.384 278.897 213.376 279.251C215.093 280.701 216.818 281.797 219.237 283.334C219.237 281.057 219.237 279.946 219.281 278.885C219.326 278.935 219.206 278.877 219.619 278.892C224.649 277.391 221.399 273.549 222.764 270.936C223.648 270.814 224.149 270.714 224.669 270.741C224.688 270.867 224.674 270.609 224.666 270.92C224.904 271.796 225.149 272.361 225.387 273.311C226.122 276.534 226.865 279.372 227.608 282.21C227.608 282.21 227.587 282.253 227.237 282.178C226.382 282.08 225.876 282.057 225.335 281.76C224.676 282.01 224.051 282.535 223.188 283.319C221.004 284.407 219.06 285.238 217.115 286.065C210.853 288.729 204.59 291.391 198.328 294.054ZM185.457 279.019C184.719 280.351 183.98 281.683 183.242 283.015C184.461 283.663 185.846 285.008 186.854 284.768C187.915 284.515 189.387 282.649 189.261 281.669C189.129 280.637 187.319 279.82 185.457 279.019ZM167.752 286.54C169.436 285.986 171.121 285.432 172.806 284.878C172.075 283.965 171.344 283.053 170.613 282.14C169.586 283.381 168.56 284.621 167.752 286.54ZM205.047 266.467C205.238 266.456 205.429 266.445 205.619 266.433C205.492 266.377 205.365 266.321 205.047 266.467Z" fill="#F8C20C"/>
    <path d="M251.462 337.086C243.297 343.337 234.095 347.405 223.614 350.024C222.694 349.992 222.431 350.108 222.226 350.358C220.854 350.331 219.482 350.305 217.584 349.934C214.485 348.759 211.911 347.929 209.458 346.796C209.061 345.093 208.545 343.693 207.985 342.175C208.697 341.168 209.534 339.981 210.485 338.747C210.598 338.7 210.772 338.872 211.128 338.883C212.086 338.6 212.688 338.305 213.307 337.972C213.325 337.933 213.411 337.936 213.829 337.956C221.502 337.871 221.959 337.26 222.036 326.561C223.459 327.534 224.528 328.111 225.403 328.903C226.433 329.835 227.294 330.953 228.31 332.182C228.391 332.375 228.41 332.792 228.555 333.065C229.263 333.55 229.825 333.762 230.735 333.991C232.468 332.826 233.851 331.642 235.237 330.092C234.811 329.218 234.383 328.711 233.912 328.266C233.869 328.329 233.718 328.345 233.823 327.987C233.078 325.878 231.183 323.839 231.571 322.428C232.81 317.92 232.023 315.368 226.796 315.502C227.453 314.075 227.913 313.076 228.586 311.916C228.959 311.443 229.119 311.131 229.279 310.819C229.279 310.819 229.287 310.908 229.652 310.925C232.132 310.623 234.248 310.303 236.383 310.199C236.547 310.639 236.693 310.862 236.839 311.085C236.891 310.957 237.024 310.772 236.981 310.711C236.799 310.452 236.564 310.23 236.396 309.665C237.079 308.207 237.714 307.08 238.348 305.952C238.348 305.952 238.353 305.997 238.644 305.98C239.399 305.602 239.862 305.241 240.326 304.88C240.326 304.88 240.326 304.96 240.666 304.963C242.445 303.948 243.883 302.93 245.322 301.911C245.322 301.911 245.342 301.983 245.73 301.989C249.282 302.956 252.446 303.918 255.757 304.86C255.906 304.841 256.205 304.841 256.412 305.083C257.489 304.488 258.359 303.651 259.275 302.86C259.321 302.907 259.198 302.862 259.514 302.868C260.281 302.507 260.733 302.14 261.229 301.56C261.273 301.346 261.452 300.947 261.807 300.963C262.926 301.689 263.689 302.399 264.456 303.436C264.551 304.403 264.642 305.045 264.771 306.016C265.498 306.903 266.186 307.459 266.731 308.362C263.594 311.085 260.646 313.525 257.575 315.798C256.695 316.45 255.458 316.618 254.03 317.013C251.561 317.327 250.526 318.059 252.742 320.01C252.972 320.041 253.413 320.186 253.678 320.406C257.864 321.059 257.781 323.301 256.391 326.074C256.358 326.029 256.454 326.085 256.124 326.104C255.333 326.767 254.872 327.411 254.381 328.037C254.351 328.017 254.421 328.026 254.185 328.126C253.759 328.502 253.569 328.779 253.367 329.026C253.356 328.998 253.416 329.011 253.19 329.118C252.758 329.484 252.552 329.743 252.175 330.283C250.852 331.362 249.702 332.161 248.355 333.096C249.519 334.59 250.49 335.838 251.462 337.086Z" fill="#F8C20C"/>
    <path d="M319.03 128.037C318.986 129.354 318.943 130.671 318.526 132.528C313.562 139.713 308.97 146.357 304.134 153.144C303.375 153.83 302.859 154.371 302.084 154.672C299.141 153.466 297.827 154.5 297.25 157.219C297.062 158.104 295.924 158.786 295.221 159.561C294.611 158.697 293.903 157.882 293.424 156.95C293.103 156.325 293.105 155.534 292.963 154.817C292.483 154.799 292.004 154.781 291.525 154.763C291.208 157.438 290.891 160.113 290.624 162.369C288.518 162.823 286.161 163.33 283.805 163.838C284.567 165.744 285.343 167.645 286.076 169.563C286.186 169.851 286.09 170.218 285.733 170.42C284.37 170.277 283.363 170.264 282.225 169.888C278.775 168.107 275.455 166.689 271.548 165.02C272.061 167.268 272.334 168.462 272.676 169.958C268.981 170.637 265.651 171.248 262.321 171.859C263.79 169.643 265.891 168.596 267.768 167.238C268.499 166.709 268.725 165.48 269.454 164.378C280.491 158.07 287.973 149.01 293.44 137.689C295.837 135.245 298.038 133.078 300.253 130.895C300.267 130.878 300.307 130.858 300.448 131.17C301.181 130.61 301.773 129.738 302.506 128.558C306.212 123.048 309.108 117.628 308.341 110.611C306.412 107.261 304.44 104.294 302.468 101.328C312.29 103.445 316.097 110.809 318.288 119.54C318.649 120.975 318.744 122.477 318.834 124.67C318.815 126.274 318.922 127.155 319.03 128.037Z" fill="#DEAB58"/>
    <path d="M141.445 170.319C136.5 175.195 130.715 178.269 123.716 179.112C121.531 179.375 119.45 180.497 116.683 180.962C112.672 180.473 109.297 180.276 105.927 180.012C103.006 179.782 100.091 179.476 97.1726 179.204C97.1726 179.204 97.2291 179.265 97.1672 178.976C96.8574 178.119 96.6096 177.552 96.3589 176.987C96.356 176.99 96.3527 176.995 96.792 176.996C99.1957 176.949 101.323 177.354 103.076 176.722C104.644 176.156 105.8 174.446 107.138 173.241C105.59 172.273 104.147 170.921 102.461 170.463C101.196 170.12 99.6184 170.926 98.18 171.221C98.18 171.221 98.2981 171.195 98.132 170.901C96.3466 167.914 100.045 160.516 103.616 158.976C104.55 158.573 105.2 157.514 106.02 156.768C106.059 156.779 106.077 156.859 106.369 156.761C106.655 155.774 106.648 154.885 106.567 153.749C106.535 153.337 106.575 153.171 106.883 152.855C107.995 152.865 109.365 152.757 109.605 153.227C111.921 157.755 114.951 158.406 119.713 155.115C120.472 155.059 125.672 151.266 126.356 151.49C129.356 149.99 130.395 151.581 132.356 153.227C132.932 153.711 133.02 154.635 133.936 155.115C134.63 155.206 134.898 155.735 135.501 155.99C136.162 155.615 136.354 157.343 133.135 160.731C132.858 160.812 133.181 160.769 133.135 160.731C133.537 160.309 133.883 159.984 133.936 159.597C133.865 159.554 133.846 159.388 134.226 159.414C135.188 157.291 135.77 155.142 136.354 152.992C136.356 152.99 136.359 152.986 136.739 152.98C141.824 153.46 146.53 153.947 151.166 154.427C151.311 156.562 151.4 157.857 151.488 159.152C151.488 159.152 151.451 159.076 151.243 159.184C150.998 159.623 150.961 159.953 150.923 160.284C150.923 160.284 150.924 160.433 150.555 160.443C149.952 161.013 149.718 161.573 149.484 162.133C149.484 162.133 149.416 162.071 149.208 162.173C148.837 162.593 148.675 162.912 148.512 163.231C148.512 163.231 148.538 163.137 148.215 163.147C147.497 163.852 147.101 164.547 146.705 165.241C146.705 165.241 146.662 165.296 146.29 165.234C143.73 166.281 140.835 166.777 141.445 170.319Z" fill="#F8C20C"/>
    <path d="M191.277 273.859C184.84 274.25 178.387 274.464 171.971 275.074C163.292 275.899 156.957 285.27 162.147 293.256C162.8 294.262 162.491 295.892 162.523 297.57C160.021 297.925 157.624 297.943 154.738 297.58C153.353 296.331 152.195 294.561 151.602 294.734C145.425 296.534 144.562 291.596 143.361 287.964C142.313 284.792 142.462 281.224 142.112 278.093C144.36 277.364 145.885 276.871 147.725 276.322C148.462 276.308 148.885 276.348 149.442 276.705C151.493 276.739 153.41 276.457 155.343 275.778C154.727 270.103 149.724 273.018 147.131 270.812C144.557 270.367 142.158 270.196 139.76 270.026C139.76 266.255 139.76 262.484 139.76 257.778C143.635 258.129 147.506 257.597 150.59 258.911C164.509 264.842 178.661 267.58 194.245 264.378C196.085 266.14 197.322 267.569 198.846 269.33C195.992 271.038 193.634 272.448 191.277 273.859ZM146.409 286.915C146.409 286.915 146.459 286.85 146.509 287.565C147.484 288.021 148.459 288.476 149.371 288.97C149.371 288.97 149.368 288.896 149.782 289.446C153.961 290.057 155.766 287.956 156.192 285.527C154.308 284.396 153.249 283.761 152.257 283.039C152.257 283.039 152.258 283.149 151.847 282.559C150.366 282.815 148.884 283.071 147.131 283.794C146.806 284.221 146.48 284.649 145.795 285.412C146.025 285.922 146.256 286.432 146.409 286.915Z" fill="#A56A0B"/>
    <path d="M191.535 274.068C193.634 272.448 195.992 271.038 198.846 269.33C197.322 267.569 196.085 266.14 194.67 264.448C215.365 258 231.168 245.909 240 225.605C240.953 232.848 242.075 239.687 247.491 245.304C249.165 246.701 250.699 247.789 252.587 249.128C248.265 252.218 248.863 254.886 252.883 257.289C253.53 257.676 253.96 258.428 254.49 259.011C248.282 269.596 237.774 275.241 227.887 282.064C226.865 279.372 226.122 276.534 225.694 273.188C227.462 272.128 228.915 271.576 230.439 271.367C234.584 273.608 239.889 271.757 242.744 267.216C240.806 267.104 239.03 267.001 237.271 266.529C237.903 261.381 237.903 261.381 235.112 261.78C234.163 262.292 233.504 262.733 232.447 263.127C230.362 263.551 228.676 264.02 227.632 264.311C225.678 262.318 224.008 260.615 222.339 258.912C220.226 256.082 218.145 255.864 215.148 258.101C212.37 260.174 208.872 261.253 205.861 263.053C204.126 264.091 202.14 265.398 201.293 267.096C199.246 271.196 197.453 275.146 191.535 274.068ZM231.405 258.894C231.405 258.894 231.426 258.788 231.684 259.313C232.197 259.035 232.71 258.756 233.586 257.953C234.709 256.987 235.983 256.148 236.919 255.026C238.473 253.165 243.043 253.565 241.345 249.238C239.144 250.187 236.943 251.136 234.043 252.1C233.469 252.709 232.894 253.318 232.352 253.987C232.352 253.987 232.293 253.953 231.686 254.039C231.373 254.485 231.059 254.931 230.612 255.323C230.612 255.323 230.757 255.393 230.103 255.356C229.658 255.932 229.213 256.509 228.768 257.085C229.285 257.391 229.802 257.696 230.356 257.985C230.356 257.985 230.349 258.025 230.606 258.467C230.908 258.609 231.211 258.751 231.405 258.894Z" fill="#F0C014"/>
    <path d="M63.3515 264.782C57.3613 263.125 51.3712 261.468 45.5991 259.469C50.7224 258.936 55.248 261.273 60.6781 257.573C63.7987 255.447 69.1396 255.115 72.7566 252.109C73.2309 251.714 73.9561 251.321 74.5173 251.38C78.9384 251.847 78.1815 249.172 77.8951 246.616C73.6544 246.616 69.7653 246.656 65.883 246.511C65.6669 246.502 65.5082 244.964 65.3228 244.138C75.0208 242.393 84.6799 242.211 94.3482 243.823C93.627 246.212 93.1989 247.63 93.2903 249.31C94.2667 249.264 94.7238 248.957 95.1808 248.649C95.1808 248.649 95.246 248.849 95.4529 248.739C95.8564 248.027 96.0529 247.425 96.2495 246.824C96.2495 246.824 96.2545 246.91 96.5663 246.886C99.0646 245.23 100.504 242.694 104.257 243.515C105.955 243.886 108.261 241.479 110.291 240.333C110.477 240.247 110.664 240.162 111.524 240.024C112.923 241.015 113.648 242.059 114.372 243.103C109.064 247.291 103.755 251.48 98.4469 255.668C98.6007 255.97 98.7544 256.272 98.9082 256.574C108.396 251.087 117.883 245.6 127.37 240.113C127.623 240.568 127.876 241.024 128.128 241.48C117.832 254.363 104.74 262.546 87.8294 264.466C91.0275 260.68 89.9777 256.965 88.4583 252.984C86.7326 253.179 84.8031 252.807 83.8826 253.603C79.4658 257.419 74.0606 257.846 68.7287 258.914C65.8974 259.481 62.1675 260.128 63.3515 264.782ZM83.7306 247.336C83.3547 246.921 82.9842 246.173 82.6015 246.167C82.0083 246.157 81.4069 246.653 80.8089 246.934C80.8733 247.208 80.9376 247.482 81.002 247.755C81.7591 247.755 82.5162 247.755 83.7306 247.336ZM55.4292 261.789C55.7606 261.65 56.0921 261.511 56.4236 261.372C56.0112 261.4 55.5988 261.427 55.4292 261.789Z" fill="#D5A248"/>
    <path d="M210.372 338.794C209.534 339.981 208.696 341.168 207.985 342.176C208.545 343.693 209.061 345.093 209.105 346.772C206.808 345.888 204.983 344.724 203.206 343.158C202.945 341.649 202.637 340.542 202.33 339.436C201.632 339.981 200.935 340.526 199.933 340.916C195.464 337.426 194.719 330.456 187.979 329.791C187.658 329.759 187.443 328.665 187.202 327.744C186.636 326.328 186.046 325.233 185.455 324.138C197.415 320.758 209.375 317.378 222.084 313.988C224.307 313.232 225.781 312.486 227.255 311.74C227.255 311.74 227.247 311.833 227.505 311.897C227.966 312 228.169 312.039 228.372 312.078C227.912 313.076 227.453 314.075 226.796 315.502C232.023 315.368 232.81 317.92 231.57 322.428C231.183 323.839 233.078 325.878 233.476 327.967C229.88 327.522 228.809 329.437 228.228 331.99C227.294 330.953 226.433 329.835 225.403 328.903C224.528 328.111 223.459 327.534 222.036 326.561C221.959 337.26 221.501 337.871 214.054 337.684C215.406 336.833 217.184 336.574 218.426 335.618C219.439 334.839 220.376 333.194 220.305 331.994C220.237 330.84 218.833 329.764 217.732 328.267C214.637 335.024 210.684 335.923 205.101 332.232C204.269 331.681 202.71 332.23 201.396 331.906C200.24 331.186 198.445 330.293 198.24 330.571C197.435 331.663 197.13 333.125 196.203 335.629C198.884 334.267 200.146 333.626 201.568 333.29C203.149 337.755 206.219 339.176 210.372 338.794Z" fill="#F5C513"/>
    <path d="M308.298 110.995C309.108 117.628 306.212 123.048 302.212 128.665C301.285 129.673 300.796 130.266 300.307 130.858C300.307 130.858 300.268 130.878 299.906 130.828C296.807 132.526 294.409 134.748 291.356 136.49C290.619 136.472 290.356 136.49 288.856 135.99C288.724 135.219 288.948 134.623 288.938 133.99C289.039 133.501 289.169 133.068 288.938 132.879C287.083 127.434 282.325 127.857 276.267 127.566C281.638 122.722 286.034 118.756 290.429 114.791C290.148 114.38 289.867 113.968 289.585 113.557C285.697 116.315 281.808 119.073 277.92 121.832C277.557 121.673 277.194 121.514 276.831 121.355C278.235 116.283 278.161 109.731 281.4 106.498C285.92 101.988 292.499 98.6108 299.906 100.828C296.843 103.207 293.79 105.081 290.027 107.392C292.98 108.164 294.985 108.689 296.755 109.151C297.456 107.979 298.051 106.983 298.889 105.582C300.947 108.23 302.607 110.367 304.303 112.55C305.613 112.04 306.956 111.518 308.298 110.995ZM301.667 116.049C302.139 115.998 302.611 115.946 303.082 115.895C302.973 115.477 302.864 115.059 302.755 114.641C302.351 114.924 301.946 115.206 301.667 116.049Z" fill="#F6EED0"/>
    <path d="M196.561 168.012C196.561 168.012 196.348 168.44 196.063 168.898C193.233 172.933 190.725 176.538 188.135 180.081C180.751 190.181 171.183 196.875 158.693 199.196C156.433 199.616 154.523 201.068 152.356 201.99C151.356 201.99 151.956 201.985 151.356 201.99C140.421 202.093 138.3 202.133 134.542 199.074C136.303 198.616 137.835 198.219 139.367 197.821C163.833 192.46 182.425 179.66 192.422 155.958C193.056 154.454 193.579 152.388 196.017 155.27C197.032 157.849 197.707 159.923 198.382 161.998C198.156 162.488 197.929 162.979 197.517 164.053C197.075 165.762 196.818 166.887 196.561 168.012Z" fill="#EEC018"/>
    <path d="M209.022 82.9422C209.578 101.009 201.96 115.525 186.856 125.49C186.174 124.12 186.177 122.394 185.638 121.382C184.649 119.527 183.302 118.074 182.356 115.99C192.828 105.72 195.129 92.3763 196.709 78.9186C197.74 77.6446 198.432 76.4386 199.123 75.2325C201.815 80.2171 205.203 81.8662 209.022 82.9422Z" fill="#F8C20C"/>
    <path d="M64.9955 244.058C65.5082 244.964 65.6669 246.502 65.883 246.511C69.7653 246.656 73.6544 246.616 77.8951 246.616C78.1815 249.172 78.9384 251.847 74.5173 251.38C73.9561 251.321 73.2309 251.714 72.7566 252.109C69.1396 255.115 63.7987 255.447 60.6781 257.573C55.248 261.273 50.7224 258.936 45.364 259.184C40.7925 256.35 36.6743 253.459 32.3164 250.077C31.8836 249.38 31.6846 249.179 31.4796 248.985C31.4796 248.985 31.4006 249.007 31.345 248.671C30.9332 247.892 30.577 247.449 30.2207 247.006C30.2207 247.006 30.3111 247.03 30.3264 246.684C30.3429 245.557 30.344 244.776 30.3954 243.716C33.72 243.502 37.7122 245.842 39.2954 240.415C39.4232 239.977 42.2384 240.323 43.8048 240.304C42.8006 245.408 47.9916 245.43 49.3651 247.576C51.9118 246.286 54.0231 245.218 56.1334 244.148C57.6326 243.388 59.1302 242.625 60.6286 241.863C61.9751 242.568 63.3216 243.273 64.9955 244.058Z" fill="#E1AC54"/>
    <path d="M91.4572 142.469C91.8601 142.434 92.263 142.399 93.0526 142.661C94.095 142.923 94.7507 142.887 95.4064 142.85C97.024 142.514 98.6417 142.178 101.01 141.859C105.61 142.584 109.46 143.294 113.929 144.117C114.173 144.542 114.851 145.726 115.142 146.233C118.277 144.462 120.995 142.79 123.84 141.375C125.287 140.656 126.964 140.4 128.746 139.917C128.955 139.9 129.373 139.885 129.39 139.912C129.407 139.938 129.457 139.974 129.567 140.272C130.6 141.701 131.522 142.833 132.135 144.129C130.559 146.568 129.979 149.241 128.356 151.49C123.006 151.141 119.702 157.885 114.356 157.49C112.168 157.469 108.526 152.509 106.356 152.49C102.804 150.963 100.203 149.549 99.0265 152.718C97.9678 152.714 96.8634 152.621 96.3958 153.122C93.9877 155.703 91.743 158.437 89.1576 161.448C90.2467 163.058 89.5153 164.567 86.3604 164.693C86.0882 164.088 85.8471 163.745 85.606 163.402C85.4313 163.547 85.2565 163.692 85.0818 163.837C85.4971 164.229 85.9124 164.62 86.5307 165.263C88.2629 166.653 89.792 167.791 91.3212 168.93C87.8637 166.796 84.4061 164.662 80.9143 162.097C80.9066 161.314 80.7336 161.087 80.3611 160.989C80.3611 160.989 80.3554 160.99 80.3544 160.565C79.9724 156.656 79.5915 153.172 79.3057 150.559C83.9899 149.17 87.6713 148.079 91.4733 146.939C91.5939 146.89 91.6111 146.568 91.6111 146.568C91.6111 146.568 91.3586 146.994 91.0551 146.947C90.9868 145.423 91.222 143.946 91.4572 142.469Z" fill="#F9D671"/>
    <path d="M254.384 317.008C255.457 316.618 256.695 316.45 257.575 315.798C260.646 313.525 263.594 311.085 267.029 308.29C269.401 305.538 271.332 303.205 273.302 300.88C273.341 300.888 273.264 300.911 273.623 300.934C274.769 300.298 275.557 299.639 276.351 298.985C276.356 298.99 276.347 298.981 276.698 298.906C279.158 295.283 278.731 294.012 275.116 293.83C274.674 293.66 274.509 293.564 274.356 293.145C276.349 289.58 278.332 286.339 280.315 283.097C286.353 297.106 280.637 308.855 272.071 319.15C266.432 325.928 258.851 331.091 251.8 337.031C250.49 335.838 249.519 334.591 248.355 333.096C249.702 332.161 250.852 331.363 252.407 330.183C253.013 329.538 253.214 329.275 253.416 329.012C253.416 329.012 253.356 328.998 253.613 328.938C254.054 328.595 254.238 328.311 254.421 328.026C254.421 328.026 254.351 328.017 254.653 327.929C255.455 327.255 255.954 326.67 256.454 326.085C256.454 326.085 256.358 326.029 256.73 326.045C257.955 324.897 258.807 323.734 259.66 322.57C257.578 321.776 255.495 320.981 253.413 320.186C253.413 320.186 252.972 320.041 252.711 319.687C253.095 318.558 253.74 317.783 254.384 317.008Z" fill="#936610"/>
    <path d="M60.5989 241.501C59.1302 242.625 57.6326 243.388 56.1334 244.148C54.0231 245.218 51.9118 246.286 49.3651 247.576C47.9916 245.43 42.8006 245.408 43.8048 240.304C42.2384 240.323 39.4232 239.977 39.2954 240.415C37.7122 245.842 33.72 243.502 30.0917 243.549C28.2065 241.81 26.6753 239.959 25.144 238.109C25.144 238.109 25.2259 238.073 25.2704 237.648C25.3398 234.601 25.2021 231.964 25.4281 229.358C25.7592 225.542 27.5361 224.903 30.8062 226.801C32.1476 227.579 33.9948 227.487 35.8828 227.827C40.5776 229.275 45.0016 230.686 49.4257 232.097C53.1402 235.111 56.8548 238.125 60.5989 241.501Z" fill="#E3B064"/>
    <path d="M203.158 343.56C204.983 344.724 206.808 345.888 208.985 347.075C211.911 347.929 214.485 348.759 217.237 349.929C217.415 350.269 217.45 350.69 217.007 350.857C215.826 351.365 215.088 351.706 214.35 352.046C214.35 352.046 214.358 351.987 213.958 351.996C210.818 352.505 208.042 352.862 205.344 353.536C199.984 354.875 194.735 355.557 189.456 353.077C186.835 351.846 184.011 351.044 181.279 350.048C181.279 350.048 181.358 350.046 181.307 349.734C180.579 348.973 179.903 348.525 179.226 348.077C179.226 348.077 179.289 348.031 179.194 347.755C178.192 346.662 177.286 345.844 176.129 344.996C175.71 344.962 175.542 344.957 175.374 344.953C175.374 344.953 175.367 344.997 175.568 344.637C177.12 343.835 178.444 343.155 179.827 342.998C183.759 342.552 187.744 342.508 191.645 341.901C193.024 341.687 194.221 340.304 195.501 339.455C195.233 339.072 194.965 338.689 194.697 338.306C190.934 338.306 187.171 338.306 183.327 338.033C182.397 333.652 181.779 329.638 187.178 328.065C187.443 328.665 187.658 329.759 187.979 329.791C194.719 330.456 195.465 337.426 199.951 340.91C200.274 341.059 200.291 341.031 200.383 341.267C200.754 341.684 201.032 341.863 201.334 342.018C201.357 341.993 201.305 342.036 201.41 342.295C201.825 342.749 202.136 342.944 202.6 343.285C202.754 343.431 203.158 343.56 203.158 343.56Z" fill="#9B650C"/>
    <path d="M151.356 201.99C153.356 201.99 156.356 199.49 158.692 199.196C171.183 196.875 180.75 190.181 188.135 180.081C190.725 176.538 193.233 172.933 196.048 169.137C197.375 170.806 198.491 172.503 201.105 170.503C201.158 171.687 200.918 172.634 200.633 173.569C197.441 184.056 189.425 190.614 181.073 197.289C175.214 200.267 169.681 203.119 163.758 205.888C161.692 206.672 160.017 207.538 157.978 208.241C155.59 208.056 152.38 208.263 150.356 208.241C150.756 206.364 151.356 202.49 151.356 201.99Z" fill="#2B170A"/>
    <path d="M127.881 72.9462C130.84 73.1244 133.533 73.9429 136.215 73.9073C143.645 73.8088 149.181 77.4937 154.016 82.5575C149.415 81.2252 144.753 80.135 140.876 77.7623C136.845 75.2954 151.58 79.1841 148.856 81.0796C147.634 81.9303 148.704 79.2134 149.356 81.4904C150.739 86.3251 142.213 80.0427 147.356 82.4904C148.961 81.0479 147.491 89.2288 148.856 88.4904C149.293 102.496 147.394 114.088 157.312 111.943C157.324 111.998 157.393 112.089 157.337 112.426C153.856 113.413 150.431 114.065 145.828 114.941C148.354 117.104 150.331 118.798 153.116 121.183C150.818 121.634 149.472 121.897 147.773 122.114C144.72 121.009 142.048 120.447 139.356 118.99C137.106 117.773 128.356 112.538 128.356 110.99C123.856 103.038 124.856 103.99 123.856 95.4904C123.217 94.054 123.856 86.4904 124.436 84.9552C125.494 81.0356 126.552 77.1161 127.881 72.9462Z" fill="#F7EAC6"/>
    <path d="M254.813 258.905C253.96 258.428 253.53 257.676 252.883 257.289C248.863 254.886 248.265 252.218 252.587 249.128C250.699 247.789 249.166 246.701 247.541 244.962C248.692 241.84 251.25 239.468 247.655 236.748C247.135 236.355 247.104 234.737 247.424 233.909C249.045 229.716 250.856 225.596 252.922 220.687C251.933 219.01 250.149 215.983 248.366 212.957C257.139 217.842 261.776 225.712 264.213 235.11C264.438 235.979 264.002 237.044 263.785 237.998C262.81 242.29 262.24 246.745 260.663 250.806C259.521 253.743 257.026 256.154 254.813 258.905ZM257.139 232.257C255.789 230.073 254.439 227.889 253.089 225.705C252.562 225.814 252.036 225.922 251.51 226.03C250.495 228.327 249.48 230.624 248.877 231.99C250.56 234.378 251.69 235.981 253.24 238.18C254.389 236.467 255.584 234.686 257.139 232.257Z" fill="#9B650C"/>
    <path d="M182.349 115.988C183.456 117.78 184.648 119.527 185.638 121.382C186.177 122.394 186.373 123.589 186.72 125.042C186.718 125.382 186.706 125.352 186.288 125.251C175.951 126.826 174.45 128.316 175.481 136.13C172.686 135.914 169.979 135.891 167.338 135.463C161.423 134.505 155.541 133.345 149.646 132.267C147.29 131.063 144.934 129.859 142.788 128.336C147.471 128.732 150.922 126.505 154.736 124.05C164.736 123.066 174.338 122.225 182.349 115.988Z" fill="#F8C20C"/>
    <path d="M49.7802 232.083C45.0019 230.686 40.5778 229.275 35.8007 227.485C32.8152 225.106 30.1827 223.106 27.5503 221.107C32.1031 215.187 37.7219 211.51 45.9685 212.255C46.3595 211.973 46.2896 211.963 46.0836 212.371C46.37 212.871 46.8623 212.963 47.3533 213.02C47.3521 212.985 47.2831 212.998 47.2831 212.998C50.2817 215.908 53.2112 218.896 56.3139 221.691C57.506 222.764 59.0929 223.4 61.0606 224.568C57.1285 227.268 53.6315 229.669 49.7802 232.083Z" fill="#F6EED0"/>
    <path d="M209.132 82.5981C205.203 81.8662 201.815 80.2171 199.123 75.2325C198.432 76.4385 197.74 77.6445 196.447 78.6493C195.228 73.2697 193.06 68.7953 189.68 64.8714C188.606 60.8227 187.532 56.774 186.484 52.3451C197.495 57.1761 204.925 65.6786 209.217 76.9268C209.809 78.4796 209.262 80.4675 209.132 82.5981Z" fill="#E4C393"/>
    <path d="M268.136 134.474C268.206 135.322 268.276 136.169 268.046 137.596C265.837 140.861 261.368 142.787 265.151 147.513C265.992 150.46 266.765 153.037 267.36 155.894C266.602 156.451 265.856 156.99 265.356 156.99C265.015 156.515 264.672 156.199 264.856 155.49C264.526 154.489 263.928 153.637 263.856 152.99C262.832 150.632 261.966 148.388 260.9 145.572C259.498 148.4 258.695 150.399 257.565 152.193C256.354 154.116 254.802 155.822 253.457 157.665C251.038 160.981 248.614 164.296 246.348 167.714C246.123 168.054 246.979 169.109 247.349 170.085C247.376 170.507 247.386 170.675 247.061 170.958C244.743 173.142 242.76 175.213 240.778 177.283C241.12 177.631 241.462 177.98 241.804 178.328C242.944 177.836 244.085 177.344 245.462 176.994C245.926 177.418 246.154 177.701 246.229 178.206C245.842 178.7 245.606 178.971 245.085 179.299C244.234 179.875 243.669 180.394 242.881 180.947C242.658 180.981 242.317 181.275 242.093 181.29C241.562 181.422 241.374 181.64 241.322 181.966C241.339 181.97 241.304 181.943 240.979 182.026C238.585 183.387 236.517 184.666 234.542 185.602C237.197 179.498 239.758 173.737 242.58 167.752C247.393 159.363 251.946 151.198 256.784 142.871C257.777 141.365 258.484 140.021 259.56 138.808C262.664 137.451 265.4 135.962 268.136 134.474Z" fill="#2B170A"/>
    <path d="M181.4 197.163C189.426 190.614 197.441 184.056 200.633 173.569C200.918 172.634 201.158 171.687 201.368 170.364C202.765 166.46 203.381 168.94 203.85 170.407C206.002 177.144 206.377 183.871 202.848 190.899C198.298 196.314 195.819 191.053 193.821 190.024C193.993 194.103 194.17 198.296 194.348 202.488C193.599 203.312 192.851 204.135 191.466 204.966C187.685 202.37 184.543 199.766 181.4 197.163ZM192.451 198.252C192.529 198.292 192.607 198.332 192.686 198.373C192.584 198.239 192.483 198.105 192.301 197.342C191.4 194.269 189.055 193.931 186.769 195.108C185.73 195.643 185.45 197.654 185.16 198.277C188.34 198.162 190.338 198.089 192.451 198.252ZM191.791 200.648C191.574 200.932 191.357 201.217 191.141 201.502C191.443 201.319 191.745 201.135 191.791 200.648Z" fill="#DBA02D"/>
    <path d="M287.467 176.108C276.627 184.978 264.252 190.054 249.598 190.876C245.259 190.6 241.591 190.6 237.922 190.6C237.918 190.141 237.915 189.682 237.912 189.223C243.638 188.278 249.364 187.333 255.34 186.346C254.231 186.117 253.319 185.929 252.358 185.731C252.702 184.826 253.036 183.95 253.68 182.885C261.76 179.774 269.531 176.851 277.317 174.313C276.315 176.544 275.297 178.39 273.816 181.076C278.617 179.25 282.965 177.597 287.352 175.984C287.39 176.025 287.467 176.108 287.467 176.108Z" fill="#E1AC54"/>
    <path d="M71.4463 233.99C69.337 231.379 67.2277 228.768 65.0896 226.121C69.1334 224.838 73.5654 223.629 77.8421 222.01C81.0172 220.809 82.9451 221.548 83.7521 224.771C84.8978 229.347 85.8898 233.962 87.0301 238.92C81.719 239.479 77.2824 240.488 73.6067 236.648C73.3366 236.982 73.4027 237.062 73.5976 236.629C73.2922 236.112 72.792 236.03 72.3132 235.974C72.3348 236.001 72.3723 236.058 72.7435 235.801C72.523 235.007 71.9313 234.47 71.3628 233.954C71.386 233.975 71.4463 233.99 71.4463 233.99Z" fill="#F1EFED"/>
    <path d="M93.8963 214.855C103.996 217.707 113.1 222.412 121.092 229.379C110.645 230.629 101.289 226.897 91.5519 223.009C89.9158 221.942 88.5658 221.51 87.2157 221.078C87.2157 221.078 87.2965 221.053 87.2797 220.716C86.9369 218.882 86.611 217.384 86.4575 216.679C89.3721 215.964 91.6342 215.41 93.8963 214.855Z" fill="#D5A248"/>
    <path d="M248.086 212.778C250.149 215.984 251.933 219.01 252.922 220.687C250.856 225.596 249.045 229.716 247.424 233.909C247.104 234.737 247.135 236.355 247.655 236.748C251.25 239.469 248.692 241.84 247.4 244.652C242.075 239.687 240.953 232.848 240.298 225.414C240.301 224.819 240.285 224.653 240.605 223.937C241.506 218.817 242.07 214.245 242.635 209.673C244.359 210.648 246.083 211.624 248.086 212.778Z" fill="#A56A0B"/>
    <path d="M268.395 134.267C265.4 135.962 262.664 137.451 259.46 138.52C256.725 136.574 256.272 135.049 258.078 132.555C260.817 128.774 263.064 124.635 265.52 120.649C268.495 117.683 271.471 114.718 274.446 111.753C274.829 111.992 275.213 112.232 275.596 112.472C274.024 119.882 278.264 128.973 268.395 134.267Z" fill="#F7EAC6"/>
    <path d="M267.538 155.615C266.765 153.038 265.992 150.46 265.392 147.26C270.525 141.719 275.485 136.8 280.446 131.882C282.515 132.066 284.584 132.249 286.845 132.969C287.096 133.66 287.156 133.816 287.044 134.266C284.099 139.22 281.325 143.879 278.442 148.605C278.332 148.673 278.329 148.931 278.033 149.088C275.38 151.463 273.115 153.793 270.601 155.814C270.013 156.286 268.581 155.709 267.538 155.615Z" fill="#F1EFED"/>
    <path d="M63.7314 264.946C62.1676 260.128 65.8975 259.481 68.7288 258.914C74.0606 257.846 79.4659 257.419 83.8827 253.603C84.8032 252.807 86.7327 253.179 88.4583 252.984C89.9777 256.965 91.0276 260.68 87.4351 264.432C79.6022 264.876 71.8567 264.993 63.7314 264.946Z" fill="#C68930"/>
    <path d="M187.202 327.744C181.779 329.638 182.397 333.652 183.059 338.055C182.522 338.288 182.174 338.227 181.369 338.124C176.192 338.475 171.515 338.557 167.186 336.157C167.186 336.157 167.294 336.077 167.262 335.74C165.914 332.56 164.598 329.717 162.867 325.976C165.787 326.19 167.57 326.605 169.271 326.387C172.97 325.911 176.627 325.113 180.301 324.446C181.734 324.291 183.167 324.136 185.028 324.06C186.046 325.233 186.636 326.328 187.202 327.744Z" fill="#A56A0B"/>
    <path d="M111.672 117.981C109.63 115.209 107.589 112.438 105.483 109.324C108.321 108.467 111.223 107.951 114.423 107.383C119.776 119.794 125.185 131.961 135.964 140.823C133.696 140.807 131.576 140.391 129.457 139.974C129.457 139.974 129.407 139.938 129.375 139.571C128.664 138.469 127.984 137.732 127.331 136.987C127.359 136.979 127.364 137.036 127.239 136.812C126.84 136.389 126.566 136.19 125.964 135.92C124.512 134.45 123.37 133.064 122.267 131.647C118.728 127.098 115.203 122.537 111.672 117.981Z" fill="#CAA878"/>
    <path d="M195.661 123.047C206.986 112.42 212.136 99.4076 210.689 83.6569C216.593 97.3332 213.394 116.162 203.129 123.701C200.881 124.022 199.115 124.003 197.354 123.987C197.357 123.991 197.366 123.996 197.228 123.777C196.614 123.387 196.137 123.217 195.661 123.047Z" fill="#DEAB58"/>
    <path d="M256.499 143.034C251.946 151.198 247.393 159.363 242.271 167.758C240.553 168.254 239.404 168.52 238.256 168.786C241.116 160.682 243.976 152.578 247.426 144.188C249.339 142.777 250.662 141.651 251.706 140.763C253.476 141.602 254.987 142.318 256.499 143.034Z" fill="#F6E4B7"/>
    <path d="M280.315 282.712C278.332 286.339 276.349 289.58 274.005 293.235C271.856 295.365 270.07 297.084 268.155 298.544C267.494 297.511 266.963 296.737 266.367 295.7C266.241 295.267 266.179 295.097 266.247 294.712C266.035 294.041 265.694 293.584 265.307 292.834C265.228 292.346 265.195 292.152 265.122 291.729C264.942 291.21 264.73 290.989 264.468 290.61C264.49 290.383 264.447 289.929 264.432 289.672C264.379 289.248 264.341 289.081 264.303 288.914C264.303 288.914 264.351 288.96 264.563 288.803C264.965 288.297 265.155 287.948 265.344 287.599C269.362 283.507 273.38 279.414 278.108 274.599C279.012 277.766 279.664 280.047 280.315 282.712Z" fill="#A56A0B"/>
    <path d="M46.3517 212.008C47.1467 211.665 47.9495 211.288 49.4761 211.049C52.3155 211.445 54.453 211.588 56.5427 211.983C63.5634 213.31 70.5671 214.728 77.5772 216.111C70.2803 222.203 62.6039 222.738 55.32 217.672C52.8669 215.966 50.3971 214.285 47.609 212.795C47.2831 212.998 47.3521 212.985 47.4889 212.667C47.1803 212.22 46.7349 212.091 46.2896 211.963C46.2896 211.963 46.3595 211.973 46.3517 212.008Z" fill="#F6E4B7"/>
    <path d="M91.0825 142.333C91.2221 143.946 90.9869 145.423 91.0539 146.945C91.3561 146.99 91.3527 146.988 91.3527 146.988C87.6714 148.079 83.99 149.17 79.3058 150.559C79.5916 153.172 79.9725 156.656 80.3564 160.561C76.0606 152.885 75.906 144.419 78.3045 135.399C82.5649 137.437 86.6362 139.817 91.0825 142.333Z" fill="#F2D192"/>
    <path d="M166.356 217.99C164.856 218.99 156.08 219.253 155.856 218.99C149.856 218.49 145.856 213.99 141.812 208.692C145.254 208.52 148.022 208.382 151.166 208.128C153.566 208.035 155.856 208.128 158.08 208.128C159.382 210.236 165.363 216.366 166.356 217.99Z" fill="#EABF51"/>
    <path d="M73.3016 236.944C73.5496 237.801 73.8328 238.696 74.0857 239.496C65.9543 242.191 60.6122 237.674 55.0537 232.01C57.2965 230.278 59.5148 228.564 61.7448 226.842C65.0379 229.649 68.0119 232.184 71.2161 234.354C71.4465 233.99 71.3861 233.975 71.007 234.212C71.2094 234.986 71.7909 235.522 72.3724 236.058C72.3724 236.058 72.3349 236.001 72.2835 236.308C72.6223 236.764 73.0126 236.913 73.4028 237.063C73.4028 237.063 73.3368 236.982 73.3016 236.944Z" fill="#F1EFED"/>
    <path d="M129.56 112.226C132.631 114.148 135.659 116.428 139.005 118.801C142.022 119.951 144.72 121.009 147.942 122.315C148.756 122.758 149.047 122.952 149.436 123.274C149.534 123.403 149.971 123.511 149.971 123.511C149.971 123.511 150.358 123.249 150.699 123.237C151.494 123.257 151.947 123.29 152.59 123.496C153.277 123.794 153.774 123.921 154.288 124.048C154.306 124.048 154.307 124.088 154.307 124.088C150.922 126.505 147.472 128.732 142.629 128.039C142.259 128.06 142.312 128.016 142.196 127.811C141.776 127.425 141.471 127.245 141.166 127.064C141.166 127.064 141.306 127.046 141.153 126.835C140.619 126.441 140.238 126.26 139.857 126.078C136.411 121.58 132.964 117.081 129.56 112.226Z" fill="#E3B064"/>
    <path d="M149.894 132.559C155.541 133.345 161.423 134.505 167.338 135.463C169.979 135.891 172.687 135.914 175.481 136.13C174.45 128.316 175.951 126.826 186.275 125.254C188.995 124.84 183.394 127.363 181.759 128.38C181.737 128.394 181.799 128.656 181.874 128.692C182.152 128.826 187.823 127.474 188.356 127.99C187.983 128.773 186.145 128.845 185.356 128.99C184.486 128.536 182.572 130.957 181.874 130.728C181.818 130.989 181.187 131.001 181.13 131.263C180.468 130.887 181.979 131.407 181.13 131.263C180.291 131.883 179.638 132.27 177.727 133.405C181.608 134.612 184.433 135.491 187.258 136.37C181.361 138.529 175.37 139.638 168.47 137.656C166.939 137.235 166.072 137.14 165.204 137.044C160.183 135.647 155.162 134.249 149.894 132.559Z" fill="#E3BC85"/>
    <path d="M256.784 142.871C254.987 142.318 253.476 141.602 251.706 140.763C250.662 141.651 249.339 142.777 247.692 143.957C249.836 135.669 255.603 129.633 261.58 123.755C262.631 122.721 263.822 121.83 265.234 120.761C263.064 124.635 260.817 128.774 258.078 132.555C256.272 135.049 256.726 136.574 259.092 138.389C258.484 140.021 257.777 141.365 256.784 142.871Z" fill="#E4B97D"/>
    <path d="M253.37 183.074C253.036 183.95 252.702 184.826 252.358 185.731C253.319 185.929 254.231 186.117 255.34 186.346C249.364 187.333 243.638 188.278 237.912 189.223C237.915 189.682 237.918 190.141 237.921 190.6C241.59 190.6 245.259 190.6 249.174 190.868C243.556 191.764 237.691 192.392 231.555 192.478C231.291 190.211 231.299 188.484 231.307 186.758C231.307 186.758 231.269 186.386 231.747 186.22C232.966 186.017 233.707 185.981 234.448 185.944C236.517 184.666 238.585 183.387 241.076 182.39C242.839 183.176 244.18 183.679 245.357 184.464C245.089 185.111 244.987 185.477 244.884 185.843C245.043 185.858 245.22 185.929 245.357 185.881C248.031 184.954 250.7 184.012 253.37 183.074Z" fill="#E3B064"/>
    <path d="M89.3692 231.995C89.3692 231.995 89.1664 231.736 89.2364 231.117C89.3086 228.677 89.3109 226.856 89.3132 225.036C93.5018 226.554 97.6904 228.073 102.828 229.935C100.698 232.933 98.7602 235.662 96.2294 238.683C93.1174 239.203 91.1825 238.944 91.2264 235.558C91.2417 234.379 90.0238 233.183 89.3692 231.995Z" fill="#EABF51"/>
    <path d="M304.379 153.001C308.971 146.357 313.562 139.713 318.425 132.91C318.201 141.307 314.752 148.728 309.494 155.684C308.845 156.188 308.625 156.629 308.406 157.07C308.406 157.07 308.368 157.011 308.178 157.128C307.786 157.513 307.585 157.781 307.383 158.05C307.383 158.05 307.432 158.012 307.133 158.025C306.077 157.642 304.855 157.402 304.662 156.82C304.272 155.645 304.441 154.284 304.379 153.001Z" fill="#9D7029"/>
    <path d="M129.567 140.272C131.576 140.391 133.695 140.807 136.123 141.132C142.87 144.348 149.33 147.62 155.703 151.054C156.109 151.273 155.836 152.751 155.413 153.575C150.74 152.352 146.533 151.195 142.012 149.992C140.918 149.636 140.136 149.326 139.031 148.998C138.279 148.952 137.849 148.923 137.252 148.618C135.538 146.883 133.991 145.424 132.444 143.965C131.522 142.833 130.6 141.701 129.567 140.272Z" fill="#D5A248"/>
    <path d="M109.919 240.236C108.261 241.479 105.955 243.886 104.257 243.514C100.504 242.694 99.0646 245.23 96.5244 246.875C96.8822 240.767 102.644 242.59 107.116 240.438C104.588 240.079 103.108 239.868 101.232 239.601C102.331 236.747 103.373 234.041 104.517 231.069C107.932 231.594 111.907 231.111 112.418 236.235C108.779 238.243 108.779 238.243 109.919 240.236Z" fill="#E3B064"/>
    <path d="M265.162 291.957C265.195 292.152 265.228 292.346 265.322 293.09C265.627 294.068 265.872 294.497 266.117 294.927C266.179 295.097 266.241 295.267 266.162 295.936C265.23 296.613 264.439 296.792 263.387 296.718C259.817 297.892 256.506 299.318 252.836 300.899C254.163 302.804 254.886 303.842 255.609 304.879C252.445 303.918 249.282 302.956 245.698 301.969C250.464 298.178 255.651 294.411 261.366 290.675C262.746 290.447 263.596 290.188 264.447 289.929C264.447 289.929 264.49 290.383 264.518 290.837C264.677 291.583 264.882 291.805 265.162 291.957Z" fill="#E1B52E"/>
    <path d="M132.197 39.8396C135.233 32.534 141.513 28.7473 148.038 24.7615C149.103 27.2737 149.999 29.3882 150.429 30.4032C144.693 33.7734 139.1 37.0598 133.054 40.3241C132.466 40.1478 132.331 39.9937 132.197 39.8396Z" fill="#F1EFED"/>
    <path d="M91.5419 169.171C89.7921 167.791 88.2629 166.653 86.5474 165.249C86.3611 164.984 86.3915 164.954 86.3915 164.954C89.5154 164.567 90.2468 163.058 89.1577 161.448C91.743 158.437 93.9878 155.703 96.3959 153.122C96.8634 152.621 97.9679 152.714 99.1251 153.053C100.26 154.937 101.048 156.301 101.466 157.765C95.8055 160.231 93.1929 164.104 94.2381 170.038C93.4129 169.829 92.5877 169.621 91.5419 169.171Z" fill="#EABF51"/>
    <path d="M181.825 338.166C182.174 338.227 182.522 338.288 183.139 338.328C187.171 338.306 190.934 338.306 194.697 338.306C194.965 338.689 195.233 339.072 195.501 339.455C194.221 340.304 193.024 341.687 191.645 341.901C187.744 342.508 183.759 342.552 179.827 342.998C178.444 343.155 177.12 343.835 175.585 344.621C174.095 344.126 172.791 343.285 171.756 341.902C175.291 340.296 178.558 339.231 181.825 338.166Z" fill="#2B170A"/>
    <path d="M114.71 243.015C113.648 242.059 112.923 241.015 111.83 239.993C115.72 238.78 115.919 235.937 114.192 232.507C117.353 232.113 120.238 231.505 123.123 231.505C124.491 231.505 125.86 232.668 127.229 233.304C126.481 234.348 125.935 235.675 124.947 236.383C121.734 238.686 118.36 240.763 114.71 243.015Z" fill="#E3B064"/>
    <path d="M308.341 110.611C306.956 111.518 305.613 112.04 304.303 112.55C302.607 110.367 300.947 108.23 298.889 105.582C298.051 106.983 297.456 107.979 296.755 109.151C294.985 108.689 292.98 108.164 290.027 107.392C293.79 105.081 296.843 103.207 300.184 101.131C300.919 100.994 301.365 101.057 302.14 101.224C304.44 104.294 306.412 107.261 308.341 110.611Z" fill="#F7EAC6"/>
    <path d="M77.8314 216.081C70.567 214.728 63.5634 213.31 56.5427 211.983C54.453 211.588 52.3155 211.445 49.8232 211.051C59.2456 210.783 69.0446 210.652 78.9157 210.759C78.5142 211.073 78.0405 211.149 77.2209 211.279C78.6266 211.971 79.7568 212.527 81.3134 213.293C80.1363 214.312 79.3134 215.025 78.4904 215.737C78.3555 215.841 78.2206 215.946 77.8314 216.081Z" fill="#D5A248"/>
    <path d="M304.135 153.144C304.441 154.284 304.272 155.645 304.662 156.82C304.855 157.402 306.077 157.642 307.144 158.054C304.493 161.356 301.532 164.643 297.879 168.007C296.614 168.779 296.041 169.472 295.468 170.165C295.468 170.165 295.41 170.107 295.167 170.055C294.736 170.001 294.548 169.998 294.119 169.79C293.212 164.269 296.306 160.96 299.989 157.891C300.94 157.098 301.568 155.916 302.344 154.913C302.859 154.371 303.375 153.829 304.135 153.144Z" fill="#C68930"/>
    <path d="M139.681 270.455C142.158 270.196 144.557 270.367 146.715 270.824C145.08 271.903 143.685 272.695 142.291 273.487C143.525 274.359 144.736 275.269 146.009 276.081C146.386 276.321 146.938 276.286 147.41 276.377C145.885 276.871 144.36 277.364 142.112 278.093C142.462 281.224 142.313 284.792 143.361 287.964C144.562 291.596 145.425 296.534 151.602 294.734C152.195 294.561 153.353 296.331 154.292 297.529C143.325 296.648 142.904 296.308 141.366 285.691C140.654 280.774 140.183 275.821 139.681 270.455Z" fill="#9D7029"/>
    <path d="M280.169 131.748C275.485 136.8 270.525 141.719 265.324 146.89C261.368 142.787 265.837 140.861 268.053 138.021C272.205 135.784 276.048 133.699 280.169 131.748Z" fill="#E4C393"/>
    <path d="M137.419 148.894C137.849 148.923 138.279 148.952 139.082 149.312C140.412 149.775 141.369 149.907 142.325 150.039C146.533 151.195 150.741 152.352 155.153 153.753C155.358 153.999 155.355 153.99 155.001 154.055C154.249 155.166 153.851 156.213 153.454 157.259C152.986 157.845 152.519 158.43 151.77 159.084C151.4 157.857 151.311 156.562 151.166 154.427C146.53 153.947 141.824 153.46 136.687 152.859C136.18 152.701 136.104 152.657 136.029 152.614C136.137 152.74 136.244 152.867 136.352 152.994C135.77 155.142 135.188 157.291 134.347 159.094C133.415 156.875 132.742 155.001 132.289 152.986C134.146 151.528 135.783 150.211 137.419 148.894Z" fill="#F0C225"/>
    <path d="M139.277 197.494C137.835 198.218 136.303 198.616 134.542 199.074C138.3 202.133 139.772 202.017 150.356 201.99C147.008 202.988 141.738 204.034 138.872 204.736C134.827 203.455 131.237 202.319 128.292 201.387C128.4 200.664 128.554 199.623 128.758 198.246C131.952 198.607 134.961 192.936 139.277 197.494Z" fill="#2B170A"/>
    <path d="M179.846 324.36C176.627 325.113 172.97 325.911 169.271 326.387C167.57 326.605 165.787 326.19 162.867 325.976C164.598 329.717 165.914 332.56 167.211 335.775C164.474 332.548 161.755 328.95 158.222 324.274C166.356 324.274 172.873 324.274 179.846 324.36Z" fill="#9D7029"/>
    <path d="M234.542 185.602C233.707 185.981 232.966 186.017 231.854 186.066C233.54 180.452 235.597 174.825 237.955 168.992C239.404 168.52 240.553 168.254 242.01 167.982C239.758 173.737 237.197 179.498 234.542 185.602Z" fill="#E4C393"/>
    <path d="M78.8409 215.844C79.3131 215.025 80.1361 214.312 81.3132 213.293C79.7566 212.527 78.6264 211.971 77.2207 211.279C78.0403 211.149 78.5139 211.074 79.293 210.958C84.1629 212.06 88.7273 213.203 93.5939 214.601C91.6341 215.41 89.3721 215.964 86.4575 216.679C86.6109 217.384 86.9369 218.882 87.2726 220.758C84.5854 219.408 81.8886 217.679 78.8409 215.844Z" fill="#CAA878"/>
    <path d="M181.44 350.349C184.011 351.044 186.835 351.846 189.456 353.077C194.735 355.557 199.984 354.875 205.344 353.536C208.042 352.862 210.818 352.505 213.985 352.008C205.575 357.038 189.486 358.462 181.44 350.349Z" fill="#9D7029"/>
    <path d="M96.3617 176.984C96.6095 177.552 96.8573 178.119 97.1311 178.997C94.897 178.128 92.6369 176.949 90.4878 175.209C90.5988 174.648 90.7971 174.204 90.7971 174.204C93.8636 174.576 96.9223 175.064 99.9999 175.272C101.688 175.387 103.407 175.029 105.26 173.708C103.049 173.077 100.839 172.446 98.4043 171.518C99.6183 170.926 101.196 170.12 102.461 170.463C104.147 170.921 105.59 172.273 107.138 173.241C105.8 174.446 104.644 176.156 103.076 176.722C101.323 177.354 99.1956 176.949 96.6207 176.777C95.5091 176.516 95.008 176.474 94.5069 176.431C94.5048 176.578 94.5027 176.725 94.5006 176.873C95.121 176.91 95.7413 176.947 96.3617 176.984Z" fill="#F0C225"/>
    <path d="M27.2293 221.258C30.1825 223.106 32.8149 225.106 35.5297 227.448C33.9948 227.487 32.1476 227.579 30.8062 226.801C27.5361 224.903 25.7592 225.542 25.4281 229.358C25.2021 231.964 25.3398 234.601 25.2738 237.693C21.6714 232.165 23.3431 226.692 27.2293 221.258Z" fill="#E4B97D"/>
    <path d="M198.73 294.063C204.59 291.391 210.853 288.729 217.115 286.066C219.06 285.238 221.004 284.407 223.471 283.275C224.453 282.659 224.911 282.347 225.37 282.034C225.876 282.057 226.382 282.08 227.26 282.188C218.131 286.206 208.632 290.138 198.73 294.063Z" fill="#E1B52E"/>
    <path d="M94.5324 170.234C93.1929 164.104 95.8055 160.231 101.779 157.793C103.635 157.4 104.808 157.078 105.981 156.757C105.2 157.515 104.55 158.573 103.617 158.976C100.045 160.516 96.3467 167.915 98.0934 170.947C97.0893 171.002 95.958 170.716 94.5324 170.234Z" fill="#F0C225"/>
    <path d="M197.349 123.984C199.115 124.003 200.881 124.022 202.991 124.014C199.789 127.364 196.243 130.741 192.048 134.11C190.72 133.897 190.042 133.692 189.364 133.487C189.689 132.991 190.014 132.496 190.349 131.991C190.359 131.98 190.371 131.955 190.672 131.793C192.334 130.489 193.869 129.495 195.001 128.159C196.015 126.963 196.584 125.39 197.349 123.984Z" fill="#E4B97D"/>
    <path d="M194.653 202.292C194.17 198.296 193.993 194.103 193.821 190.024C195.819 191.053 198.298 196.314 202.616 191.156C200.287 194.715 197.623 198.406 194.653 202.292Z" fill="#E3BC85"/>
    <path d="M187.291 136.369C184.432 135.491 181.607 134.612 177.727 133.405C179.638 132.27 180.291 131.883 181.147 131.245C181.35 130.994 181.38 130.953 181.38 130.953C181.995 130.583 182.611 130.212 183.291 129.557C184.741 128.807 186.672 128.174 188.356 127.99C189.407 129.444 190.102 130.319 190.856 131.49C190.856 131.49 190.359 131.98 189.978 131.989C185.37 131.629 187.289 134.449 187.361 136.311C187.361 136.311 187.325 136.368 187.291 136.369Z" fill="#E4B97D"/>
    <path d="M190.673 131.793C189.617 130.783 188.864 129.612 188.18 128.124C188.25 127.808 188.281 127.874 188.62 127.909C189.65 127.448 190.342 126.953 191.034 126.458C191.034 126.458 191.305 126.621 191.515 126.604C191.925 126.205 192.127 125.824 192.329 125.443C192.839 125.024 193.349 124.605 194.309 124.297C195.627 124.271 196.496 124.134 197.366 123.997C197.366 123.997 197.357 123.991 197.353 123.987C196.584 125.39 196.015 126.963 195.001 128.159C193.869 129.495 192.334 130.489 190.673 131.793Z" fill="#DEAB58"/>
    <path d="M97.394 179.505C100.091 179.476 103.006 179.782 105.927 180.012C109.297 180.276 112.672 180.473 116.284 180.982C110.221 180.779 103.918 180.292 97.394 179.505Z" fill="#F0C225"/>
    <path d="M181.369 338.124C178.558 339.231 175.291 340.296 171.731 341.549C170.054 340.093 168.671 338.447 167.237 336.479C171.515 338.557 176.192 338.475 181.369 338.124Z" fill="#9D7029"/>
    <path d="M198.724 162.038C197.707 159.923 197.032 157.849 196.279 155.415C198.771 157.462 201.34 159.867 203.91 162.273C203.52 162.715 203.129 163.158 202.738 163.6C201.514 163.093 200.289 162.586 198.724 162.038Z" fill="#2B170A"/>
    <path d="M242.313 209.426C242.07 214.245 241.506 218.817 240.662 223.692C240.054 219.926 239.723 215.856 239.397 211.785C239.247 209.911 239.44 208.368 242.313 209.426Z" fill="#9D7029"/>
    <path d="M89.3335 232.436C90.0241 233.183 91.242 234.379 91.2267 235.558C91.1828 238.944 93.1176 239.203 96.0637 238.976C94.6026 239.499 92.7145 240.023 90.2446 240.708C89.8735 237.639 89.5855 235.258 89.3335 232.436Z" fill="#E4B97D"/>
    <path d="M236.363 309.982C234.248 310.303 232.132 310.623 229.611 310.907C232.016 309.256 234.825 307.642 237.991 305.99C237.713 307.08 237.079 308.207 236.4 309.662C236.356 309.99 236.363 309.982 236.363 309.982Z" fill="#E1B52E"/>
    <path d="M25.1919 238.469C26.6755 239.959 28.2067 241.81 30.0416 243.828C30.3442 244.776 30.3431 245.557 30.3087 246.727C28.5968 244.354 26.9182 241.592 25.1919 238.469Z" fill="#E4B97D"/>
    <path d="M89.1189 224.836C89.3111 226.856 89.3087 228.677 89.2689 230.956C88.185 228.761 87.1385 226.108 85.8064 222.731C87.22 223.595 88.0722 224.116 89.1189 224.836Z" fill="#E4B97D"/>
    <path d="M141.767 170.204C140.835 166.777 143.73 166.281 146.266 165.259C145.105 166.926 143.597 168.507 141.767 170.204Z" fill="#F0C225"/>
    <path d="M196.918 168.005C196.818 166.887 197.075 165.762 197.525 164.339C198.526 164.944 199.335 165.846 200.144 166.748C199.188 167.165 198.231 167.581 196.918 168.005Z" fill="#2B170A"/>
    <path d="M187.356 136.49C186.856 133.99 185.757 131.12 190.356 131.49C190.401 131.988 193.181 131.995 192.856 132.49C193.534 132.695 194.106 133.082 192.856 133.99C191.867 134.709 189.045 135.768 187.356 136.49Z" fill="#E3BC85"/>
    <path d="M244.982 301.949C243.883 302.93 242.445 303.948 240.633 304.941C241.721 303.939 243.182 302.963 244.982 301.949Z" fill="#E1B52E"/>
    <path d="M231.049 186.988C231.299 188.484 231.291 190.211 231.268 192.365C230.821 191.979 230.389 191.164 230.204 189.946C230.452 189.543 230.433 189.218 230.433 189.218C230.552 188.552 230.672 187.885 231.049 186.988Z" fill="#E4C393"/>
    <path d="M291.531 173.182C290.388 174.118 289.244 175.055 287.784 176.049C287.467 176.108 287.39 176.026 287.423 175.657C288.748 174.511 290.041 173.733 291.382 173.013C291.431 173.071 291.531 173.182 291.531 173.182Z" fill="#E1AC54"/>
    <path d="M87.3999 221.365C88.5658 221.51 89.9159 221.942 91.3123 222.754C90.1004 222.639 88.8423 222.146 87.3999 221.365Z" fill="#CAA878"/>
    <path d="M226.897 311.78C225.781 312.486 224.307 313.232 222.447 313.951C223.554 313.223 225.047 312.521 226.897 311.78Z" fill="#E1B52E"/>
    <path d="M176.38 345.026C177.286 345.844 178.192 346.662 179.205 347.792C178.767 347.876 178.221 347.646 177.423 346.955C176.991 346.195 176.729 346.017 176.386 345.959C176.386 345.959 176.361 345.992 176.365 345.743C176.37 345.494 176.38 345.026 176.38 345.026Z" fill="#9D7029"/>
    <path d="M132.791 40.5434C132.275 41.5773 131.569 42.3696 130.863 43.162C130.679 43.0506 130.495 42.9393 130.311 42.8279C130.739 41.9359 131.168 41.0439 131.897 39.9957C132.332 39.9937 132.466 40.1478 132.791 40.5434Z" fill="#F1EFED"/>
    <path d="M153.723 157.07C153.852 156.213 154.249 155.167 155.005 154.053C154.906 154.951 154.449 155.916 153.723 157.07Z" fill="#D5A248"/>
    <path d="M179.282 348.388C179.903 348.525 180.579 348.973 181.276 349.758C180.643 349.63 179.99 349.165 179.282 348.388Z" fill="#9D7029"/>
    <path d="M264.432 289.672C263.597 290.188 262.746 290.447 261.67 290.56C262.172 289.886 262.9 289.358 263.965 288.872C264.341 289.081 264.379 289.248 264.432 289.672Z" fill="#DBA02D"/>
    <path d="M197.228 123.777C196.496 124.134 195.627 124.271 194.554 124.247C194.609 123.808 194.867 123.531 195.393 123.151C196.137 123.217 196.614 123.387 197.228 123.777Z" fill="#E4B97D"/>
    <path d="M295.795 170.081C296.041 169.472 296.614 168.779 297.571 168.067C297.344 168.698 296.733 169.347 295.795 170.081Z" fill="#D5A248"/>
    <path d="M146.981 165.153C147.101 164.547 147.496 163.852 148.249 163.182C148.156 163.826 147.707 164.445 146.981 165.153Z" fill="#F0C225"/>
    <path d="M190.705 126.445C190.342 126.953 189.65 127.448 188.585 127.922C188.934 127.411 189.655 126.922 190.705 126.445Z" fill="#E4B97D"/>
    <path d="M165.481 137.215C166.072 137.14 166.939 137.235 168.059 137.543C167.46 137.632 166.609 137.509 165.481 137.215Z" fill="#E4B97D"/>
    <path d="M214.675 352.072C215.088 351.706 215.826 351.365 216.883 351.028C216.469 351.387 215.734 351.743 214.675 352.072Z" fill="#9D7029"/>
    <path d="M319.161 127.726C318.922 127.155 318.815 126.274 318.884 125.092C319.137 125.666 319.214 126.54 319.161 127.726Z" fill="#9D7029"/>
    <path d="M293.396 172.03C292.966 172.383 292.536 172.736 291.819 173.135C291.531 173.182 291.431 173.07 291.565 172.788C292.24 172.318 292.781 172.131 293.34 171.966C293.357 171.988 293.396 172.03 293.396 172.03Z" fill="#E1AC54"/>
    <path d="M128.47 110.545C128.871 110.591 129.221 110.899 129.541 111.453C129.147 111.401 128.783 111.104 128.47 110.545Z" fill="#E3B064"/>
    <path d="M308.627 156.959C308.625 156.629 308.845 156.188 309.225 155.892C309.306 156.373 309.127 156.643 308.627 156.959Z" fill="#C68930"/>
    <path d="M94.8664 248.671C94.7237 248.957 94.2667 249.264 93.6128 249.407C93.7946 249.059 94.1733 248.876 94.8664 248.671Z" fill="#E3B064"/>
    <path d="M240.026 304.917C239.862 305.241 239.399 305.602 238.625 305.969C238.784 305.635 239.255 305.294 240.026 304.917Z" fill="#E1B52E"/>
    <path d="M228.585 311.916C228.169 312.039 227.966 312 227.465 311.873C227.665 311.467 228.163 311.148 228.97 310.824C229.119 311.131 228.959 311.443 228.585 311.916Z" fill="#E1B52E"/>
    <path d="M30.2522 247.324C30.5771 247.449 30.9334 247.892 31.3346 248.631C31.0142 248.499 30.6489 248.071 30.2522 247.324Z" fill="#E4B97D"/>
    <path d="M95.9545 246.96C96.0529 247.425 95.8563 248.027 95.3488 248.754C95.2451 248.285 95.4524 247.691 95.9545 246.96Z" fill="#E3B064"/>
    <path d="M140.02 126.358C140.238 126.26 140.619 126.441 141.154 126.905C140.933 127.004 140.557 126.821 140.02 126.358Z" fill="#E4B97D"/>
    <path d="M307.654 158.003C307.585 157.781 307.786 157.513 308.213 157.125C308.268 157.322 308.097 157.64 307.654 158.003Z" fill="#C68930"/>
    <path d="M265.076 287.763C265.154 287.948 264.965 288.297 264.534 288.819C264.464 288.636 264.636 288.281 265.076 287.763Z" fill="#DBA02D"/>
    <path d="M129.85 44.4556C129.867 44.4335 129.833 44.4777 129.85 44.4556Z" fill="#F1EFED"/>
    <path d="M176.129 344.996C176.38 345.026 176.37 345.494 176.382 345.727C176.064 345.863 175.797 345.675 175.484 345.176C175.542 344.957 175.711 344.962 176.129 344.996Z" fill="#2B170A"/>
    <path d="M222.434 350.482C222.431 350.108 222.694 349.992 223.231 350.07C223.267 350.44 222.999 350.599 222.434 350.482Z" fill="#9B650C"/>
    <path d="M176.475 346.17C176.729 346.017 176.991 346.195 177.212 346.732C176.965 346.843 176.736 346.646 176.475 346.17Z" fill="#2B170A"/>
    <path d="M31.5334 249.209C31.6847 249.179 31.8837 249.38 32.2099 249.751C32.0115 249.88 31.7595 249.719 31.5334 249.209Z" fill="#E4B97D"/>
    <path d="M230.323 189.273C230.433 189.218 230.452 189.543 230.405 189.612C230.359 189.682 230.212 189.327 230.323 189.273Z" fill="#E3B064"/>
    <path d="M42.9912 193.646C43.1356 193.45 43.2979 193.228 43.4602 193.006C43.6382 193.149 43.8162 193.291 43.9942 193.434C43.8429 193.473 43.6917 193.512 43.2636 193.555C42.9867 193.559 43.0092 193.619 42.9912 193.646Z" fill="#F1EFED"/>
    <path d="M90.452 174.842C90.0686 174.789 89.8322 174.542 89.5957 174.296C89.8363 174.201 90.0768 174.107 90.5574 174.108C90.7974 174.204 90.599 174.648 90.452 174.842Z" fill="#F0C225"/>
    <path d="M294.475 171.1C294.291 171.389 294.107 171.678 293.659 171.999C293.396 172.03 293.357 171.988 293.457 171.758C293.756 171.27 294.008 171.08 294.352 170.993C294.394 171.028 294.475 171.1 294.475 171.1Z" fill="#E1AC54"/>
    <path d="M294.36 169.996C294.548 169.998 294.736 170.001 295.206 170.041C295.321 170.366 295.154 170.653 294.731 171.02C294.475 171.1 294.394 171.028 294.367 170.753C294.34 170.477 294.36 169.996 294.36 169.996Z" fill="#E1AC54"/>
    <path d="M141.27 127.321C141.471 127.245 141.776 127.425 142.209 127.842C142.016 127.912 141.694 127.745 141.27 127.321Z" fill="#E4B97D"/>
    <path d="M191.992 125.586C192.127 125.824 191.925 126.205 191.437 126.742C191.319 126.508 191.488 126.119 191.992 125.586Z" fill="#E4B97D"/>
    <path d="M152.401 123.323C151.947 123.29 151.494 123.257 150.448 123.176C149.682 123.134 149.51 123.14 149.338 123.145C149.047 122.952 148.756 122.758 148.295 122.363C149.472 121.897 150.818 121.634 153.116 121.183C150.331 118.798 148.353 117.104 145.828 114.941C150.431 114.065 153.856 113.413 157.735 112.395C159.957 110.916 162.428 110.219 163.371 108.621C167.233 102.074 163.901 93.2121 156.983 89.7898C155.015 88.8163 153.543 86.8412 151.635 85.1398C152.754 84.5348 153.036 84.2641 153.329 84.2513C153.802 84.2306 154.379 84.2346 154.745 84.4782C163.864 90.5388 172.555 88.7896 180.235 82.1743C182.853 79.919 188.069 79.1198 187.233 73.7693C187.973 71.0628 188.712 68.3563 189.566 65.2606C193.06 68.7953 195.227 73.2697 196.107 78.7173C195.129 92.3763 192.982 105.425 182.51 115.696C174.339 122.225 164.736 123.066 154.736 124.05C154.307 124.088 154.306 124.048 154.131 123.819C153.437 123.501 152.919 123.412 152.401 123.323Z" fill="#FAE2AC"/>
    <path d="M232.846 263.173C233.504 262.733 234.163 262.292 235.402 262.012C235.75 266.905 230.103 271.118 224.674 270.609C224.674 270.609 224.688 270.867 224.531 270.508C223.843 269.668 223.312 269.188 222.772 268.691C222.764 268.675 222.788 268.647 222.792 268.3C224.287 264.619 220.779 264.064 219.796 261.859C220.272 261.056 220.559 260.605 220.845 260.154C220.845 260.154 221.127 260.181 221.613 260.119C222.862 260.98 224.176 261.839 224.291 262.837C224.742 266.76 226.949 266.501 229.563 265.327C230.742 264.798 231.756 263.902 232.846 263.173Z" fill="#3D220C"/>
    <path d="M213.384 278.897C213.384 278.897 213.44 278.454 213.622 278.028C214.455 276.929 215.106 276.254 215.757 275.58C215.757 275.58 215.893 275.507 216.239 275.321C217.851 274.299 219.118 273.464 220.384 272.629C220.832 272.989 221.28 273.349 221.728 273.709C220.887 275.432 220.046 277.154 219.206 278.877C219.206 278.877 219.326 278.935 218.947 278.987C216.841 278.992 215.112 278.944 213.384 278.897Z" fill="#3D220C"/>
    <path d="M224.666 270.92C230.103 271.117 235.75 266.905 235.691 261.941C237.903 261.381 237.903 261.381 236.988 266.703C234.581 268.506 232.475 269.765 230.368 271.024C228.915 271.576 227.462 272.128 225.702 272.803C225.149 272.361 224.904 271.796 224.666 270.92Z" fill="#E1B52E"/>
    <path d="M219.619 278.892C220.046 277.154 220.887 275.432 221.728 273.709C221.28 273.349 220.832 272.989 220.385 272.629C219.118 273.464 217.851 274.299 216.281 275.256C215.341 274.271 214.703 273.166 213.607 271.266C216.768 271.266 219.246 271.266 222.04 271.128C222.356 270.99 222.382 270.958 222.382 270.958C221.399 273.549 224.649 277.391 219.619 278.892Z" fill="#EEC018"/>
    <path d="M222.364 270.232C222.404 269.769 222.456 269.549 222.645 269.018C223.312 269.187 223.843 269.668 224.513 270.382C224.149 270.714 223.648 270.814 222.764 270.936C222.381 270.959 222.355 270.99 222.371 270.977C222.387 270.965 222.377 270.476 222.364 270.232Z" fill="#E1B52E"/>
    <path d="M210.485 338.747C206.219 339.176 203.15 337.755 201.65 333.118C201.573 332.642 201.488 332.271 201.488 332.271C202.711 332.23 204.269 331.681 205.101 332.232C210.684 335.923 214.637 335.024 217.732 328.267C218.834 329.764 220.238 330.84 220.305 331.994C220.376 333.194 219.439 334.839 218.426 335.618C217.184 336.574 215.406 336.833 213.635 337.664C213.411 337.936 213.325 337.933 212.96 337.975C211.987 338.302 211.38 338.587 210.772 338.872C210.772 338.872 210.598 338.7 210.485 338.747Z" fill="#3D220C"/>
    <path d="M268.283 298.802C270.07 297.084 271.856 295.365 273.993 293.557C274.509 293.564 274.674 293.66 275.274 294.103C275.922 295.96 276.135 297.47 276.347 298.981C276.347 298.981 276.356 298.99 276.033 299.025C274.895 299.677 274.08 300.294 273.264 300.911C273.264 300.911 273.341 300.888 272.978 300.973C269.987 302.6 267.36 304.143 264.733 305.686C264.642 305.045 264.551 304.403 264.704 303.298C265.447 302.276 265.945 301.719 266.696 300.986C267.394 300.141 267.839 299.471 268.283 298.802Z" fill="#2B170A"/>
    <path d="M255.757 304.86C254.886 303.842 254.163 302.804 252.836 300.899C256.506 299.318 259.817 297.892 263.33 297.051C263.498 298.086 263.464 298.535 263.21 299.183C262.478 299.903 261.965 300.425 261.452 300.947C261.452 300.947 261.273 301.346 260.926 301.585C260.119 302.17 259.659 302.516 259.198 302.862C259.198 302.862 259.321 302.907 258.974 302.931C257.819 303.583 257.012 304.212 256.205 304.841C256.205 304.841 255.906 304.841 255.757 304.86Z" fill="#3D220C"/>
    <path d="M252.313 380.889C253.432 380.151 254.551 379.564 256.607 378.484C257.718 382.322 258.721 385.785 259.117 389.376C258.069 389.414 257.628 389.323 257.017 388.991C256.393 388.175 255.939 387.601 255.485 387.027C255.485 387.027 255.05 386.364 254.856 385.99C255.142 386.49 254.376 385.116 254.856 385.99C254.856 385.99 254.356 384.99 253.826 384.321C253.322 383.094 252.379 381.87 251.856 380.99C251.856 380.99 252.313 381.038 252.313 380.889Z" fill="#200E05"/>
    <path d="M228.31 332.182C228.809 329.437 229.88 327.522 233.371 328.326C233.718 328.345 233.869 328.329 233.982 328.589C234.474 329.386 234.854 329.922 235.235 330.459C233.851 331.642 232.468 332.826 230.589 333.725C229.533 333.225 228.971 333.008 228.41 332.792C228.41 332.792 228.391 332.375 228.31 332.182Z" fill="#3D220C"/>
    <path d="M235.236 330.092C234.854 329.922 234.474 329.385 234.024 328.526C234.383 328.711 234.811 329.218 235.236 330.092Z" fill="#F5C513"/>
    <path d="M254.185 328.126C254.238 328.311 254.054 328.595 253.624 328.967C253.569 328.779 253.759 328.502 254.185 328.126Z" fill="#F0C225"/>
    <path d="M267.36 155.894C268.581 155.709 270.013 156.286 270.601 155.814C273.115 153.793 275.381 151.463 278.147 149.291C278.722 149.61 278.948 149.818 279.129 150.275C277.552 152.257 276.081 153.925 274.609 155.593C275.014 156.026 275.419 156.46 275.824 156.894C278.401 154.435 280.978 151.975 283.829 149.294C285.682 146.885 287.518 144.828 288.719 142.45C289.242 141.415 287.997 139.725 287.856 137.99C288.263 137.093 288.498 136.548 288.856 135.99C289.277 136.002 290.281 135.998 291.133 136.273C292.124 137.013 292.796 137.513 293.356 137.99C288.086 149.034 280.492 158.07 269.074 164.444C266.524 165.547 264.587 166.31 262.744 167.258C259.165 169.099 255.64 171.044 252.134 172.639C252.622 171.775 253.068 171.218 253.814 170.285C251.287 170.505 249.342 170.674 247.397 170.843C247.387 170.675 247.376 170.507 247.586 169.796C250.544 168.606 253.324 168.097 256.012 167.283C262.589 165.291 265.942 160.937 265.356 156.49C265.935 156.213 266.602 156.451 267.36 155.894Z" fill="#3D220C"/>
    <path d="M252.093 172.946C255.64 171.044 259.165 169.099 262.744 167.258C264.586 166.31 266.524 165.547 268.8 164.635C268.725 165.48 268.499 166.709 267.768 167.238C265.891 168.596 263.79 169.643 262.321 171.859C265.651 171.248 268.981 170.637 272.676 169.958C272.334 168.462 272.061 167.268 271.548 165.02C275.455 166.689 278.775 168.107 281.941 170.061C280.291 170.969 278.793 171.34 277.009 171.507C274.666 171.977 272.608 172.65 270.511 173.312C270.472 173.3 270.481 173.22 270.14 173.154C268.982 173.382 268.166 173.676 266.988 174.011C260.067 177.058 253.508 180.065 246.631 183.16C246.006 183.55 245.699 183.852 245.432 184.129C245.471 184.104 245.522 184.183 245.522 184.183C244.18 183.679 242.839 183.176 241.401 182.307C241.304 181.943 241.339 181.97 241.517 181.894C241.948 181.689 242.155 181.508 242.317 181.275C242.317 181.275 242.658 180.981 243.2 180.935C244.285 180.34 244.827 179.791 245.37 179.242C245.606 178.971 245.842 178.7 246.556 178.097C248.775 176.15 250.515 174.536 252.218 172.952C252.182 172.983 252.093 172.946 252.093 172.946Z" fill="#E1AC54"/>
    <path d="M285.733 170.42C285.969 170.794 285.962 171.042 285.782 171.58C282.762 172.561 280.029 173.255 277.296 173.95C277.296 173.95 277.327 173.959 277.314 173.944C269.531 176.851 261.76 179.774 253.68 182.885C250.7 184.012 248.031 184.954 245.357 185.881C245.22 185.929 245.043 185.858 244.885 185.843C244.987 185.477 245.089 185.111 245.357 184.464C245.522 184.183 245.472 184.104 245.75 184.046C246.336 183.682 246.642 183.377 246.949 183.072C253.508 180.065 260.067 177.058 267.316 174.128C268.831 173.877 269.656 173.548 270.482 173.22C270.482 173.22 270.472 173.3 270.895 173.29C273.311 172.757 275.303 172.234 277.295 171.711C278.793 171.34 280.291 170.969 282.073 170.424C283.363 170.264 284.37 170.277 285.733 170.42Z" fill="#3D220C"/>
    <path d="M293.356 137.99C292.6 137.791 292.031 137.224 291.356 136.49C293.977 134.485 296.807 132.526 299.892 130.845C298.039 133.078 295.754 135.546 293.356 137.99Z" fill="#200E05"/>
    <path d="M105.305 158.348C104.936 158.477 104.658 158.546 104.274 158.621C104.079 158.658 103.912 158.684 103.76 158.702C102.176 158.891 100.538 158.235 99.6486 156.911C99.324 156.428 99.0136 155.936 98.7081 155.426C97.7958 153.905 97.4407 152.005 98.2758 150.44C99.4666 148.208 101.391 147.477 104.199 148.347C105.62 148.787 106.832 150.147 107.154 151.599V151.599C107.349 152.477 107.248 153.17 107.216 154.069C107.215 154.111 107.214 154.154 107.212 154.199C107.104 155.237 106.988 155.994 106.868 156.635C106.723 157.41 106.049 158.087 105.305 158.348V158.348Z" fill="#3D220C"/>
    <path d="M147.725 276.322C146.939 276.286 146.386 276.321 146.009 276.081C144.736 275.269 143.526 274.359 142.291 273.487C143.686 272.695 145.08 271.903 146.891 271.099C149.724 273.018 154.727 270.103 154.915 275.768C152.75 276.232 151.028 276.311 149.307 276.389C148.885 276.349 148.462 276.308 147.725 276.322Z" fill="#3D220C"/>
    <path d="M146.155 285.077C146.48 284.649 146.806 284.221 147.671 283.508C149.561 283.198 150.909 283.173 152.258 283.149C152.258 283.149 152.257 283.039 152.191 283.494C152.465 286.3 153.623 289.106 149.368 288.895C149.368 288.895 149.371 288.97 149.229 288.692C148.211 287.893 147.335 287.371 146.459 286.849C146.459 286.849 146.409 286.915 146.454 286.609C146.385 285.894 146.27 285.486 146.155 285.077Z" fill="#2B170A"/>
    <path d="M234.742 252.085C236.943 251.136 239.144 250.187 241.345 249.238C243.044 253.565 238.473 253.165 236.919 255.026C235.983 256.148 234.709 256.987 233.103 258.257C232.222 258.637 231.824 258.712 231.426 258.788C231.426 258.788 231.405 258.894 231.354 258.653C230.985 258.283 230.667 258.154 230.35 258.025C230.35 258.025 230.356 257.985 230.318 257.658C230.439 256.685 230.598 256.039 230.758 255.393C230.758 255.393 230.613 255.323 230.937 255.26C231.605 254.782 231.949 254.368 232.293 253.953C232.293 253.953 232.353 253.987 232.619 253.836C233.504 253.152 234.123 252.619 234.742 252.085Z" fill="#3D220C"/>
    <path d="M72.8187 254.516C72.8427 254.56 72.7947 254.471 72.8187 254.516Z" fill="#E1AC54"/>
    <path d="M111.593 118.437C115.203 122.537 118.728 127.098 122.267 131.648C123.37 133.064 124.512 134.45 126.091 136.144C126.819 136.638 127.092 136.837 127.365 137.036C127.365 137.036 127.359 136.979 127.377 137.306C127.776 138.4 128.157 139.167 128.537 139.934C126.964 140.4 125.287 140.656 123.84 141.376C120.995 142.79 118.278 144.462 115.142 146.233C114.851 145.726 114.173 144.542 113.929 144.117C109.46 143.294 105.61 142.584 101.364 141.808C101.14 141.457 101.244 141.063 101.495 140.904C109.669 135.762 112.969 128.413 111.593 118.437Z" fill="#F2D192"/>
    <path d="M289.384 135.642C289.082 136.531 288.724 137.089 287.986 137.973C285.796 141.174 283.987 144.049 281.925 147.064C280.998 147.884 280.298 149.997 279.356 150.49C278.9 150.194 278.043 149.601 277.856 149.49C280.63 144.832 284.099 139.22 287.044 134.266C287.635 133.981 288.054 133.99 288.786 133.996C289.176 134.431 289.253 134.871 289.384 135.642Z" fill="#200E05"/>
    <path d="M91.3573 146.992C91.3586 146.994 91.6111 146.568 91.6111 146.568C91.6111 146.568 91.5939 146.89 91.4733 146.939C91.3526 146.988 91.356 146.99 91.3573 146.992Z" fill="#F2D192"/>
    <path d="M141.926 95.424C143.717 90.727 146.978 89.1107 151.458 89.9286C156.418 90.834 161.462 95.821 162.276 100.979C162.952 105.265 162.409 109.275 157.526 111.622C147.394 114.088 142.363 109.429 141.926 95.424Z" fill="#200E05"/>
    <path d="M256.959 232.581C255.584 234.686 254.389 236.468 253.24 238.18C251.69 235.981 250.56 234.379 248.877 231.99C249.481 230.624 250.495 228.327 251.51 226.031C252.036 225.922 252.563 225.814 253.089 225.706C254.439 227.89 255.789 230.074 256.959 232.581Z" fill="#3D220C"/>
    <path d="M265.356 156.99C266.101 161.617 262.589 165.291 256.012 167.283C253.324 168.097 250.544 168.607 247.57 169.544C246.979 169.11 246.123 168.054 246.348 167.714C248.614 164.296 251.038 160.981 253.457 157.665C254.802 155.822 256.354 154.116 257.565 152.193C258.695 150.399 259.498 148.4 260.9 145.572C261.966 148.388 262.761 150.485 263.845 153.199C264.44 154.451 264.747 155.086 265.053 155.721C264.92 156.042 265.015 156.515 265.356 156.99Z" fill="#F6EED0"/>
    <path d="M245.462 176.994C247.339 175.485 249.451 174.117 251.909 172.835C250.515 174.535 248.775 176.15 246.708 177.875C246.154 177.701 245.926 177.418 245.462 176.994Z" fill="#3D220C"/>
    <path d="M192.336 198.017C190.338 198.089 188.34 198.162 185.16 198.277C185.45 197.654 185.73 195.643 186.769 195.108C189.055 193.931 191.4 194.269 192.329 197.667C192.356 197.991 192.336 198.017 192.336 198.017Z" fill="#EEC018"/>
    <path d="M192.369 197.981C192.483 198.105 192.584 198.239 192.686 198.373C192.607 198.333 192.529 198.292 192.394 198.134C192.336 198.017 192.356 197.991 192.369 197.981Z" fill="#EEC018"/>
    <path d="M281.856 146.99C283.665 144.116 285.715 140.852 287.856 137.99C288.356 137.49 289.356 139.99 288.719 142.45C287.518 144.828 283.35 150.49 282.856 149.99C282.098 149.223 282.264 147.605 281.856 146.99Z" fill="#E3B064"/>
    <path d="M281.925 147.064C282.586 147.538 283.371 148.001 283.856 148.99C281.856 151.49 278.401 154.435 275.824 156.894C275.419 156.46 275.014 156.027 274.609 155.593C276.081 153.925 277.552 152.257 279.129 150.275C279.234 149.961 279.539 149.657 279.595 149.449C280.324 148.563 280.998 147.884 281.925 147.064Z" fill="#DEAB58"/>
</svg>
