<svg width="55" height="55" viewBox="0 0 1615 1193" fill="none" xmlns="http://www.w3.org/2000/svg">
    <path fill-rule="evenodd" clip-rule="evenodd"
          d="M1203.77 417.832C1188.87 417.477 1176.82 429.657 1176.82 444.569V1165.59C1176.82 1180.5 1164.73 1192.59 1149.82 1192.59H933.505C918.593 1192.59 906.505 1180.5 906.505 1165.59V228.985C906.505 214.074 918.593 201.985 933.505 201.985H1176.82C1367.49 201.985 1644.12 324.445 1612.5 512.5C1561.42 816.316 1408.93 815.513 1303.31 895.323C1286.01 908.392 1258.4 901.665 1252.78 880.728L1221.11 762.732C1216.84 746.806 1227.71 730.802 1244.1 728.912L1359.34 715.615C1365.58 714.894 1371.4 712.003 1375.76 707.469C1411.18 670.596 1411.18 667.862 1411.18 547.266C1411.18 434.155 1280.82 419.669 1203.77 417.832ZM800.591 1021.39C815.27 1021.22 827.126 1009.36 827.285 994.681L837.706 27.791C837.868 12.7664 825.733 0.5 810.707 0.5H665.043C655.964 0.5 647.493 5.06293 642.498 12.644L5.25115 979.734C-6.51065 997.583 6.14966 1021.37 27.5251 1021.59L207.344 1023.4C217.067 1023.49 226.092 1018.36 230.971 1009.95L343.102 816.649C349.69 805.292 363.493 800.321 375.809 804.869L536.147 864.076C553.777 870.586 572.5 857.542 572.5 838.748V730.182C572.5 720.486 567.301 711.534 558.878 706.73L476.236 659.588C462.979 652.026 458.62 634.986 466.618 621.987L558.918 471.969C573.185 448.78 608.914 458.891 608.914 486.117V996.248C608.914 1011.28 621.189 1023.42 636.219 1023.25L800.591 1021.39Z"
          fill="url(#paint0_linear_101_104)"
    />
    <defs>
        <linearGradient id="paint0_linear_101_104" x1="850.159" y1="1.40992" x2="850.159" y2="1193.5"
                        gradientUnits="userSpaceOnUse">
            <stop offset="0.486386" stop-color="#0878B8"/>
            <stop offset="0.488235" stop-color="#E5F341"/>
        </linearGradient>
    </defs>
</svg>
