<svg xmlns="http://www.w3.org/2000/svg" width="64" height="64" viewBox="0 0 64 64" fill="none">
    <circle cx="32" cy="32" r="32" fill="#FFFFFF"/>
    <path d="M62 32C62 48.5685 48.5685 62 32 62C15.4315 62 2 48.5685 2 32C2 15.4315 15.4315 2 32 2C48.5685 2 62 15.4315 62 32Z"
          fill="#0E0D0D"/>
    <g filter="url(#filter0_d_127_127)">
        <path fill-rule="evenodd" clip-rule="evenodd"
              d="M34 39.1726C42.2843 39.1726 49 32.4568 49 24.1726C49 23.4889 48.9543 22.8159 48.8657 22.1565C50.231 24.8616 51 27.919 51 31.156C51 42.2017 42.0457 51.156 31 51.156C19.9543 51.156 11 42.2017 11 31.156C11 22.1152 16.9987 14.4756 25.2329 12C21.4574 14.724 19 19.1613 19 24.1726C19 32.4568 25.7157 39.1726 34 39.1726Z"
              fill="#D9D9D9"/>
    </g>
    <g filter="url(#filter1_f_127_127)">
        <path fill-rule="evenodd" clip-rule="evenodd"
              d="M33 40.0002C41.2843 40.0002 48 33.2845 48 25.0002C48 24.3165 47.9543 23.6435 47.8657 22.9841C49.231 25.6892 50 28.7466 50 31.9836C50 43.0293 41.0457 51.9836 30 51.9836C18.9543 51.9836 10 43.0293 10 31.9836C10 22.9429 15.9987 15.3032 24.2329 12.8276C20.4574 15.5517 18 19.9889 18 25.0002C18 33.2845 24.7157 40.0002 33 40.0002Z"
              fill="#F5F3CE"/>
    </g>
    <g filter="url(#filter2_b_127_127)">
        <path d="M34.8845 16.7101L34.2565 18.7973L36.0474 20.0395L33.8683 20.0872L33.2403 22.1744L32.5215 20.1167L30.3424 20.1644L32.0773 18.845L31.3586 16.7872L33.1496 18.0295L34.8845 16.7101Z"
              fill="#FBFF2E"/>
        <path d="M34.7923 16.843L34.2086 18.7829L34.1981 18.8176L34.228 18.8384L35.8925 19.9929L33.8672 20.0372L33.8309 20.038L33.8204 20.0728L33.2367 22.0126L32.5688 20.1002L32.5568 20.0659L32.5205 20.0667L30.4952 20.111L32.1076 18.8848L32.1365 18.8628L32.1246 18.8285L31.4566 16.916L33.1211 18.0706L33.1509 18.0913L33.1798 18.0693L34.7923 16.843Z"
              stroke="#FBFF2E" stroke-width="0.1"/>
    </g>
    <g filter="url(#filter3_b_127_127)">
        <path d="M33.2 16.1012L33.8034 18.1956L35.9818 18.2689L34.1763 19.49L34.7798 21.5844L33.0605 20.2447L31.2551 21.4658L31.9979 19.4167L30.2787 18.077L32.4571 18.1503L33.2 16.1012Z"
              fill="#FBFF2E"/>
        <path d="M33.1945 16.2629L33.7554 18.2094L33.7654 18.2443L33.8017 18.2456L35.8263 18.3137L34.1483 19.4486L34.1182 19.4689L34.1283 19.5039L34.6891 21.4504L33.0912 20.2053L33.0626 20.1829L33.0325 20.2033L31.3545 21.3382L32.045 19.4337L32.0573 19.3996L32.0287 19.3773L30.4308 18.1321L32.4554 18.2002L32.4917 18.2015L32.5041 18.1673L33.1945 16.2629Z"
              stroke="#FFEE56" stroke-width="0.1"/>
    </g>
    <g filter="url(#filter4_f_127_127)">
        <path d="M32.456 16.3543L34.1585 18.3603L37.396 17.3764L35.2107 19.6001L36.9132 21.6061L33.8601 20.9744L31.6748 23.1981L31.9732 20.584L28.9202 19.9523L32.1576 18.9684L32.456 16.3543Z"
              fill="#FAFF0A"/>
        <path d="M32.4926 16.4746L34.1204 18.3926L34.1416 18.4177L34.173 18.4081L37.2228 17.4813L35.175 19.565L35.143 19.5976L35.1726 19.6324L36.7811 21.5277L33.8703 20.9254L33.8436 20.9199L33.8245 20.9394L31.741 23.0595L32.0229 20.5897L32.0281 20.5443L31.9834 20.535L29.1224 19.9431L32.1722 19.0162L32.2036 19.0067L32.2073 18.974L32.4926 16.4746Z"
              stroke="#706C47" stroke-width="0.1"/>
    </g>
    <g filter="url(#filter5_b_127_127)">
        <path d="M41.8845 11.7101L41.2565 13.7973L43.0474 15.0395L40.8683 15.0872L40.2403 17.1744L39.5215 15.1167L37.3424 15.1644L39.0773 13.845L38.3586 11.7872L40.1496 13.0295L41.8845 11.7101Z"
              fill="#FBFF2E"/>
        <path d="M41.7923 11.843L41.2086 13.7829L41.1981 13.8176L41.228 13.8384L42.8925 14.9929L40.8672 15.0372L40.8309 15.038L40.8204 15.0728L40.2367 17.0126L39.5688 15.1002L39.5568 15.0659L39.5205 15.0667L37.4952 15.111L39.1076 13.8848L39.1365 13.8628L39.1246 13.8285L38.4566 11.916L40.1211 13.0706L40.1509 13.0913L40.1798 13.0693L41.7923 11.843Z"
              stroke="#FBFF2E" stroke-width="0.1"/>
    </g>
    <g filter="url(#filter6_b_127_127)">
        <path d="M40.2 11.1012L40.8034 13.1956L42.9818 13.2689L41.1763 14.49L41.7798 16.5844L40.0605 15.2447L38.2551 16.4658L38.9979 14.4167L37.2787 13.077L39.4571 13.1503L40.2 11.1012Z"
              fill="#FBFF2E"/>
        <path d="M40.1945 11.2629L40.7554 13.2094L40.7654 13.2443L40.8017 13.2456L42.8263 13.3137L41.1483 14.4486L41.1182 14.4689L41.1283 14.5039L41.6891 16.4504L40.0912 15.2053L40.0626 15.1829L40.0325 15.2033L38.3545 16.3382L39.045 14.4337L39.0573 14.3996L39.0287 14.3773L37.4308 13.1321L39.4554 13.2002L39.4917 13.2015L39.5041 13.1673L40.1945 11.2629Z"
              stroke="#FFEE56" stroke-width="0.1"/>
    </g>
    <g filter="url(#filter7_f_127_127)">
        <path d="M39.456 11.3543L41.1585 13.3603L44.396 12.3764L42.2107 14.6001L43.9132 16.6061L40.8601 15.9744L38.6748 18.1981L38.9732 15.584L35.9202 14.9523L39.1576 13.9684L39.456 11.3543Z"
              fill="#FAFF0A"/>
        <path d="M39.4926 11.4746L41.1204 13.3926L41.1416 13.4177L41.173 13.4081L44.2228 12.4813L42.175 14.565L42.143 14.5976L42.1726 14.6324L43.7811 16.5277L40.8703 15.9254L40.8436 15.9199L40.8245 15.9394L38.741 18.0595L39.0229 15.5897L39.0281 15.5443L38.9834 15.535L36.1224 14.9431L39.1722 14.0162L39.2036 14.0067L39.2073 13.974L39.4926 11.4746Z"
              stroke="#706C47" stroke-width="0.1"/>
    </g>
    <g filter="url(#filter8_b_127_127)">
        <path d="M41.8845 11.7101L41.2565 13.7973L43.0474 15.0395L40.8683 15.0872L40.2403 17.1744L39.5215 15.1167L37.3424 15.1644L39.0773 13.845L38.3586 11.7872L40.1496 13.0295L41.8845 11.7101Z"
              fill="#FBFF2E"/>
        <path d="M41.7923 11.843L41.2086 13.7829L41.1981 13.8176L41.228 13.8384L42.8925 14.9929L40.8672 15.0372L40.8309 15.038L40.8204 15.0728L40.2367 17.0126L39.5688 15.1002L39.5568 15.0659L39.5205 15.0667L37.4952 15.111L39.1076 13.8848L39.1365 13.8628L39.1246 13.8285L38.4566 11.916L40.1211 13.0706L40.1509 13.0913L40.1798 13.0693L41.7923 11.843Z"
              stroke="#FBFF2E" stroke-width="0.1"/>
    </g>
    <g filter="url(#filter9_b_127_127)">
        <path d="M40.2 11.1012L40.8034 13.1956L42.9818 13.2689L41.1763 14.49L41.7798 16.5844L40.0605 15.2447L38.2551 16.4658L38.9979 14.4167L37.2787 13.077L39.4571 13.1503L40.2 11.1012Z"
              fill="#FBFF2E"/>
        <path d="M40.1945 11.2629L40.7554 13.2094L40.7654 13.2443L40.8017 13.2456L42.8263 13.3137L41.1483 14.4486L41.1182 14.4689L41.1283 14.5039L41.6891 16.4504L40.0912 15.2053L40.0626 15.1829L40.0325 15.2033L38.3545 16.3382L39.045 14.4337L39.0573 14.3996L39.0287 14.3773L37.4308 13.1321L39.4554 13.2002L39.4917 13.2015L39.5041 13.1673L40.1945 11.2629Z"
              stroke="#FFEE56" stroke-width="0.1"/>
    </g>
    <g filter="url(#filter10_f_127_127)">
        <path d="M39.456 11.3543L41.1585 13.3603L44.396 12.3764L42.2107 14.6001L43.9132 16.6061L40.8601 15.9744L38.6748 18.1981L38.9732 15.584L35.9202 14.9523L39.1576 13.9684L39.456 11.3543Z"
              fill="#FAFF0A"/>
        <path d="M39.4926 11.4746L41.1204 13.3926L41.1416 13.4177L41.173 13.4081L44.2228 12.4813L42.175 14.565L42.143 14.5976L42.1726 14.6324L43.7811 16.5277L40.8703 15.9254L40.8436 15.9199L40.8245 15.9394L38.741 18.0595L39.0229 15.5897L39.0281 15.5443L38.9834 15.535L36.1224 14.9431L39.1722 14.0162L39.2036 14.0067L39.2073 13.974L39.4926 11.4746Z"
              stroke="#706C47" stroke-width="0.1"/>
    </g>
    <g filter="url(#filter11_b_127_127)">
        <path d="M32.8845 7.71008L32.2565 9.79727L34.0474 11.0395L31.8683 11.0872L31.2403 13.1744L30.5215 11.1167L28.3424 11.1644L30.0773 9.84495L29.3586 7.78724L31.1496 9.0295L32.8845 7.71008Z"
              fill="#FBFF2E"/>
        <path d="M32.7923 7.84303L32.2086 9.78286L32.1981 9.81765L32.228 9.83835L33.8925 10.9929L31.8672 11.0372L31.8309 11.038L31.8204 11.0728L31.2367 13.0126L30.5688 11.1002L30.5568 11.0659L30.5205 11.0667L28.4952 11.111L30.1076 9.88475L30.1365 9.86276L30.1246 9.82847L29.4566 7.91603L31.1211 9.07059L31.1509 9.09129L31.1798 9.0693L32.7923 7.84303Z"
              stroke="#FBFF2E" stroke-width="0.1"/>
    </g>
    <g filter="url(#filter12_b_127_127)">
        <path d="M31.2 7.10115L31.8034 9.19558L33.9818 9.26889L32.1763 10.49L32.7798 12.5844L31.0605 11.2447L29.2551 12.4658L29.9979 10.4167L28.2787 9.07696L30.4571 9.15027L31.2 7.10115Z"
              fill="#FBFF2E"/>
        <path d="M31.1945 7.26286L31.7554 9.20942L31.7654 9.24433L31.8017 9.24555L33.8263 9.31369L32.1483 10.4486L32.1182 10.4689L32.1283 10.5039L32.6891 12.4504L31.0912 11.2053L31.0626 11.1829L31.0325 11.2033L29.3545 12.3382L30.045 10.4337L30.0573 10.3996L30.0287 10.3773L28.4308 9.13211L30.4554 9.20024L30.4917 9.20147L30.5041 9.16731L31.1945 7.26286Z"
              stroke="#FFEE56" stroke-width="0.1"/>
    </g>
    <g filter="url(#filter13_f_127_127)">
        <path d="M30.456 7.35426L32.1585 9.36029L35.396 8.37638L33.2107 10.6001L34.9132 12.6061L31.8601 11.9744L29.6748 14.1981L29.9732 11.584L26.9202 10.9523L30.1576 9.96838L30.456 7.35426Z"
              fill="#FAFF0A"/>
        <path d="M30.4926 7.47464L32.1204 9.39264L32.1416 9.41768L32.173 9.40813L35.2228 8.48127L33.175 10.565L33.143 10.5976L33.1726 10.6324L34.7811 12.5277L31.8703 11.9254L31.8436 11.9199L31.8245 11.9394L29.741 14.0595L30.0229 11.5897L30.0281 11.5443L29.9834 11.535L27.1224 10.9431L30.1722 10.0162L30.2036 10.0067L30.2073 9.97405L30.4926 7.47464Z"
              stroke="#706C47" stroke-width="0.1"/>
    </g>
    <defs>
        <filter id="filter0_d_127_127" x="7" y="12" width="48" height="47.156" filterUnits="userSpaceOnUse"
                color-interpolation-filters="sRGB">
            <feFlood flood-opacity="0" result="BackgroundImageFix"/>
            <feColorMatrix in="SourceAlpha" type="matrix" values="0 0 0 0 0 0 0 0 0 0 0 0 0 0 0 0 0 0 127 0"
                           result="hardAlpha"/>
            <feOffset dy="4"/>
            <feGaussianBlur stdDeviation="2"/>
            <feComposite in2="hardAlpha" operator="out"/>
            <feColorMatrix type="matrix" values="0 0 0 0 0 0 0 0 0 0 0 0 0 0 0 0 0 0 0.25 0"/>
            <feBlend mode="normal" in2="BackgroundImageFix" result="effect1_dropShadow_127_127"/>
            <feBlend mode="normal" in="SourceGraphic" in2="effect1_dropShadow_127_127" result="shape"/>
        </filter>
        <filter id="filter1_f_127_127" x="6" y="8.82764" width="48" height="47.156" filterUnits="userSpaceOnUse"
                color-interpolation-filters="sRGB">
            <feFlood flood-opacity="0" result="BackgroundImageFix"/>
            <feBlend mode="normal" in="SourceGraphic" in2="BackgroundImageFix" result="shape"/>
            <feGaussianBlur stdDeviation="2" result="effect1_foregroundBlur_127_127"/>
        </filter>
        <filter id="filter2_b_127_127" x="26.3423" y="12.71" width="13.7051" height="13.4644"
                filterUnits="userSpaceOnUse" color-interpolation-filters="sRGB">
            <feFlood flood-opacity="0" result="BackgroundImageFix"/>
            <feGaussianBlur in="BackgroundImage" stdDeviation="2"/>
            <feComposite in2="SourceAlpha" operator="in" result="effect1_backgroundBlur_127_127"/>
            <feBlend mode="normal" in="SourceGraphic" in2="effect1_backgroundBlur_127_127" result="shape"/>
        </filter>
        <filter id="filter3_b_127_127" x="26.2788" y="12.1011" width="13.7031" height="13.4834"
                filterUnits="userSpaceOnUse" color-interpolation-filters="sRGB">
            <feFlood flood-opacity="0" result="BackgroundImageFix"/>
            <feGaussianBlur in="BackgroundImage" stdDeviation="2"/>
            <feComposite in2="SourceAlpha" operator="in" result="effect1_backgroundBlur_127_127"/>
            <feBlend mode="normal" in="SourceGraphic" in2="effect1_backgroundBlur_127_127" result="shape"/>
        </filter>
        <filter id="filter4_f_127_127" x="24.9199" y="12.3542" width="16.4761" height="14.8438"
                filterUnits="userSpaceOnUse" color-interpolation-filters="sRGB">
            <feFlood flood-opacity="0" result="BackgroundImageFix"/>
            <feBlend mode="normal" in="SourceGraphic" in2="BackgroundImageFix" result="shape"/>
            <feGaussianBlur stdDeviation="2" result="effect1_foregroundBlur_127_127"/>
        </filter>
        <filter id="filter5_b_127_127" x="33.3423" y="7.70996" width="13.7051" height="13.4644"
                filterUnits="userSpaceOnUse" color-interpolation-filters="sRGB">
            <feFlood flood-opacity="0" result="BackgroundImageFix"/>
            <feGaussianBlur in="BackgroundImage" stdDeviation="2"/>
            <feComposite in2="SourceAlpha" operator="in" result="effect1_backgroundBlur_127_127"/>
            <feBlend mode="normal" in="SourceGraphic" in2="effect1_backgroundBlur_127_127" result="shape"/>
        </filter>
        <filter id="filter6_b_127_127" x="33.2788" y="7.10107" width="13.7031" height="13.4834"
                filterUnits="userSpaceOnUse" color-interpolation-filters="sRGB">
            <feFlood flood-opacity="0" result="BackgroundImageFix"/>
            <feGaussianBlur in="BackgroundImage" stdDeviation="2"/>
            <feComposite in2="SourceAlpha" operator="in" result="effect1_backgroundBlur_127_127"/>
            <feBlend mode="normal" in="SourceGraphic" in2="effect1_backgroundBlur_127_127" result="shape"/>
        </filter>
        <filter id="filter7_f_127_127" x="31.9199" y="7.35425" width="16.4761" height="14.8438"
                filterUnits="userSpaceOnUse" color-interpolation-filters="sRGB">
            <feFlood flood-opacity="0" result="BackgroundImageFix"/>
            <feBlend mode="normal" in="SourceGraphic" in2="BackgroundImageFix" result="shape"/>
            <feGaussianBlur stdDeviation="2" result="effect1_foregroundBlur_127_127"/>
        </filter>
        <filter id="filter8_b_127_127" x="33.3423" y="7.70996" width="13.7051" height="13.4644"
                filterUnits="userSpaceOnUse" color-interpolation-filters="sRGB">
            <feFlood flood-opacity="0" result="BackgroundImageFix"/>
            <feGaussianBlur in="BackgroundImage" stdDeviation="2"/>
            <feComposite in2="SourceAlpha" operator="in" result="effect1_backgroundBlur_127_127"/>
            <feBlend mode="normal" in="SourceGraphic" in2="effect1_backgroundBlur_127_127" result="shape"/>
        </filter>
        <filter id="filter9_b_127_127" x="33.2788" y="7.10107" width="13.7031" height="13.4834"
                filterUnits="userSpaceOnUse" color-interpolation-filters="sRGB">
            <feFlood flood-opacity="0" result="BackgroundImageFix"/>
            <feGaussianBlur in="BackgroundImage" stdDeviation="2"/>
            <feComposite in2="SourceAlpha" operator="in" result="effect1_backgroundBlur_127_127"/>
            <feBlend mode="normal" in="SourceGraphic" in2="effect1_backgroundBlur_127_127" result="shape"/>
        </filter>
        <filter id="filter10_f_127_127" x="31.9199" y="7.35425" width="16.4761" height="14.8438"
                filterUnits="userSpaceOnUse" color-interpolation-filters="sRGB">
            <feFlood flood-opacity="0" result="BackgroundImageFix"/>
            <feBlend mode="normal" in="SourceGraphic" in2="BackgroundImageFix" result="shape"/>
            <feGaussianBlur stdDeviation="2" result="effect1_foregroundBlur_127_127"/>
        </filter>
        <filter id="filter11_b_127_127" x="24.3423" y="3.70996" width="13.7051" height="13.4644"
                filterUnits="userSpaceOnUse" color-interpolation-filters="sRGB">
            <feFlood flood-opacity="0" result="BackgroundImageFix"/>
            <feGaussianBlur in="BackgroundImage" stdDeviation="2"/>
            <feComposite in2="SourceAlpha" operator="in" result="effect1_backgroundBlur_127_127"/>
            <feBlend mode="normal" in="SourceGraphic" in2="effect1_backgroundBlur_127_127" result="shape"/>
        </filter>
        <filter id="filter12_b_127_127" x="24.2788" y="3.10107" width="13.7031" height="13.4834"
                filterUnits="userSpaceOnUse" color-interpolation-filters="sRGB">
            <feFlood flood-opacity="0" result="BackgroundImageFix"/>
            <feGaussianBlur in="BackgroundImage" stdDeviation="2"/>
            <feComposite in2="SourceAlpha" operator="in" result="effect1_backgroundBlur_127_127"/>
            <feBlend mode="normal" in="SourceGraphic" in2="effect1_backgroundBlur_127_127" result="shape"/>
        </filter>
        <filter id="filter13_f_127_127" x="22.9199" y="3.35425" width="16.4761" height="14.8438"
                filterUnits="userSpaceOnUse" color-interpolation-filters="sRGB">
            <feFlood flood-opacity="0" result="BackgroundImageFix"/>
            <feBlend mode="normal" in="SourceGraphic" in2="BackgroundImageFix" result="shape"/>
            <feGaussianBlur stdDeviation="2" result="effect1_foregroundBlur_127_127"/>
        </filter>
    </defs>
</svg>
