<svg width="48" height="48" viewBox="0 0 48 48" fill="none" xmlns="http://www.w3.org/2000/svg">
    <g clip-path="url(#clip0_512_1227)">
        <path d="M24.0001 5.99999C24.2641 5.99999 24.5261 5.99999 24.7861 5.99999C22.2167 8.38741 20.5652 11.5997 20.1186 15.0784C19.672 18.5572 20.4586 22.0825 22.3415 25.0415C24.2245 28.0005 27.0848 30.2061 30.4253 31.2749C33.7657 32.3438 37.3751 32.2083 40.6261 30.892C39.3755 33.901 37.3316 36.5141 34.7124 38.4525C32.0932 40.391 28.9969 41.5821 25.7539 41.8988C22.5108 42.2155 19.2426 41.6459 16.2978 40.2508C13.3531 38.8557 10.8423 36.6874 9.03323 33.9772C7.22418 31.267 6.18475 28.1166 6.02582 24.8619C5.86689 21.6073 6.59442 18.3706 8.13079 15.497C9.66717 12.6235 11.9548 10.2208 14.7496 8.54546C17.5444 6.87008 20.7416 5.98478 24.0001 5.98399V5.99999Z" stroke="white" stroke-width="2" stroke-linecap="round" stroke-linejoin="round"/>
        <path d="M34 8C34 9.06087 34.4214 10.0783 35.1716 10.8284C35.9217 11.5786 36.9391 12 38 12C36.9391 12 35.9217 12.4214 35.1716 13.1716C34.4214 13.9217 34 14.9391 34 16C34 14.9391 33.5786 13.9217 32.8284 13.1716C32.0783 12.4214 31.0609 12 30 12C31.0609 12 32.0783 11.5786 32.8284 10.8284C33.5786 10.0783 34 9.06087 34 8Z" stroke="white" stroke-width="2" stroke-linecap="round" stroke-linejoin="round"/>
        <path d="M38 22H42M40 20V24" stroke="white" stroke-width="2" stroke-linecap="round" stroke-linejoin="round"/>
    </g>
    <defs>
        <clipPath id="clip0_512_1227">
            <rect width="48" height="48" fill="white"/>
        </clipPath>
    </defs>
</svg>
