<svg width="49" height="49" viewBox="0 0 49 49" fill="none" xmlns="http://www.w3.org/2000/svg">
    <g clip-path="url(#clip0_512_1224)">
        <path d="M12.2833 9.17286L11.5033 8.39286C10.7233 7.61286 9.46335 7.63286 8.70335 8.39286L8.68335 8.41286C7.90335 9.19286 7.90335 10.4529 8.68335 11.2129L9.46335 11.9929C10.2433 12.7729 11.4833 12.7729 12.2633 11.9929L12.2833 11.9729C13.0633 11.2129 13.0633 9.93286 12.2833 9.17286ZM6.20335 21.8929H4.16335C3.06335 21.8929 2.18335 22.7729 2.18335 23.8729V23.8929C2.18335 24.9929 3.06335 25.8729 4.16335 25.8729H6.18335C7.30335 25.8929 8.18335 25.0129 8.18335 23.9129V23.8929C8.18335 22.7729 7.30335 21.8929 6.20335 21.8929ZM24.2034 1.99286H24.1833C23.0633 1.99286 22.1833 2.87286 22.1833 3.97286V5.89286C22.1833 6.99286 23.0633 7.87286 24.1633 7.87286H24.1833C25.3033 7.89286 26.1833 7.01286 26.1833 5.91286V3.97286C26.1833 2.87286 25.3034 1.99286 24.2034 1.99286ZM39.6833 8.41286C38.9033 7.63286 37.6433 7.63286 36.8633 8.39286L36.0834 9.17286C35.3034 9.95286 35.3034 11.2129 36.0834 11.9729L36.1033 11.9929C36.8833 12.7729 38.1434 12.7729 38.9034 11.9929L39.6833 11.2129C40.4633 10.4329 40.4633 9.19286 39.6833 8.41286ZM36.0634 38.6129L36.8433 39.3929C37.6233 40.1729 38.8833 40.1729 39.6633 39.3929C40.4433 38.6129 40.4433 37.3529 39.6633 36.5729L38.8834 35.7929C38.1034 35.0129 36.8434 35.0329 36.0834 35.7929C35.2834 36.5929 35.2834 37.8329 36.0634 38.6129ZM40.1833 23.8729V23.8929C40.1833 24.9929 41.0633 25.8729 42.1633 25.8729H44.1833C45.2833 25.8729 46.1633 24.9929 46.1633 23.8929V23.8729C46.1633 22.7729 45.2833 21.8929 44.1833 21.8929H42.1633C41.0633 21.8929 40.1833 22.7729 40.1833 23.8729ZM24.1833 11.8929C17.5633 11.8929 12.1833 17.2729 12.1833 23.8929C12.1833 30.5129 17.5633 35.8929 24.1833 35.8929C30.8033 35.8929 36.1833 30.5129 36.1833 23.8929C36.1833 17.2729 30.8033 11.8929 24.1833 11.8929ZM24.1633 45.7929H24.1833C25.2833 45.7929 26.1633 44.9129 26.1633 43.8129V41.8929C26.1633 40.7929 25.2833 39.9129 24.1833 39.9129H24.1633C23.0633 39.9129 22.1833 40.7929 22.1833 41.8929V43.8129C22.1833 44.9129 23.0633 45.7929 24.1633 45.7929ZM8.68335 39.3729C9.46335 40.1529 10.7233 40.1529 11.5033 39.3729L12.2833 38.5929C13.0633 37.8129 13.0433 36.5529 12.2833 35.7929L12.2633 35.7729C11.4833 34.9929 10.2233 34.9929 9.44335 35.7729L8.66335 36.5529C7.90335 37.3529 7.90335 38.5929 8.68335 39.3729Z" fill="black"/>
    </g>
    <defs>
        <clipPath id="clip0_512_1224">
            <rect width="48" height="48" fill="white" transform="translate(0.18335 0.892853)"/>
        </clipPath>
    </defs>
</svg>
