<?xml version="1.0" standalone="no"?>
<!DOCTYPE svg PUBLIC "-//W3C//DTD SVG 1.1//EN" "http://www.w3.org/Graphics/SVG/1.1/DTD/svg11.dtd">
<svg xmlns="http://www.w3.org/2000/svg">
<defs >
<font id="AnekGurmukhi" horiz-adv-x="1010" ><font-face
    font-family="Anek Gurmukhi Medium Medium"
    units-per-em="2000"
    panose-1="0 0 0 0 0 0 0 0 0 0"
    ascent="1500"
    descent="-900"
    alphabetic="0" />
<glyph unicode=" " horiz-adv-x="552" />
<glyph unicode="!" horiz-adv-x="474" d="M319 402H155L132 1278H342L319 402ZM237 -21Q177 -21 149 11T120 102V112Q120 170 148 202T237 234Q296 234 325 202T354 112V102Q354 44 325 12T237 -21Z" />
<glyph unicode="&quot;" horiz-adv-x="716" d="M263 831H109L90 1324H283L263 831ZM606 831H452L433 1324H626L606 831Z" />
<glyph unicode="#" horiz-adv-x="1180" d="M204 0L366 1278H525L363 0H204ZM61 319V462H1062V319H61ZM660 0L818 1278H978L820 0H660ZM121 819V962H1120V819H121Z" />
<glyph unicode="$" horiz-adv-x="1049" d="M607 1195H433V1487H607V1195ZM607 -214H433V113H607V-214ZM507 -24Q416 -24 339 -10T202 25T99 67L80 264Q157 220 262 186T491 152Q631 152 697 198T763 339V354Q763 415 737 454T647 522T476 577Q334 612 247 659T119
778T79 957V967Q79 1128 186 1215T507 1302Q644 1302 741 1276T902 1216L920 1033Q847 1075 752 1103T538 1132Q445 1132 389 1112T308 1053T283 960V956Q283 900 308 860T396 790T577 729Q716 694 801 651T927 538T967 355V335Q967 158 852 67T507 -24Z" />
<glyph unicode="%" horiz-adv-x="1516" d="M273 0L1061 1278H1247L459 0H273ZM1151 -26Q1013 -26 941 49T868 261V350Q868 485 941 560T1151 635Q1289 635 1362 561T1436 350V261Q1436 125 1363 50T1151 -26ZM1151 109Q1213 109 1244 146T1275 257V353Q1275 426
1244 463T1151 501Q1090 501 1059 464T1027 353V257Q1027 184 1059 147T1151 109ZM362 644Q224 644 151 718T78 929V1019Q78 1154 151 1228T362 1303Q500 1303 573 1229T647 1019V929Q647 794 574 719T362 644ZM362 778Q423 778 454 815T486 925V1022Q486 1094
455 1132T362 1170Q301 1170 270 1132T238 1022V925Q238 852 270 815T362 778Z" />
<glyph unicode="&amp;" horiz-adv-x="1280" d="M1067 0Q1051 16 1020 46T954 110T889 174T844 217L819 244L352 681L323 716Q257 784 226 844T195 986V993Q195 1138 286 1220T565 1302Q684 1302 768 1280T908 1228L927 1049Q862 1081 780 1104T602 1128Q494 1128
448 1091T401 987V982Q401 930 429 885T516 783L942 377L990 325Q1020 296 1050 266T1112 206T1174 144T1236 80T1298 16V0H1067ZM520 -24Q302 -24 194 76T86 360V392Q86 532 140 621T325 780L429 642Q356 607 324 552T291 408V378Q291 262 353 203T538 143Q641
143 713 184T837 304L889 369Q939 457 966 564T1005 796H1197Q1179 630 1138 490T1022 243L968 187Q916 120 853 73T708 1T520 -24Z" />
<glyph unicode="&apos;" horiz-adv-x="373" d="M263 831H109L90 1324H283L263 831Z" />
<glyph unicode="(" horiz-adv-x="597" d="M319 608V501Q319 353 344 224T422 -21T557 -244H353Q276 -144 227 -32T154 210T130 495V613Q130 767 154 896T228 1138T355 1351H557Q475 1245 422 1130T344 885T319 608Z" />
<glyph unicode=")" horiz-adv-x="599" d="M280 608Q280 756 255 885T178 1129T42 1351H244Q321 1251 371 1139T445 897T469 613V495Q469 340 446 210T373 -32T246 -244H42Q125 -137 177 -22T255 223T280 501V608Z" />
<glyph unicode="*" horiz-adv-x="769" d="M244 644L110 736L279 920L278 924L48 970L87 1125L317 1036L320 1038L298 1278H471L449 1038L452 1036L682 1125L721 970L490 924L489 920L658 736L525 644L386 848H382L244 644Z" />
<glyph unicode="+" horiz-adv-x="1004" d="M586 198H418V1044H586V198ZM99 542V700H905V542H99Z" />
<glyph unicode="," horiz-adv-x="397" d="M295 284Q298 264 301 234T305 168Q305 46 270 -58T152 -259L15 -219Q65 -136 89 -44T114 160Q114 193 113 223T107 284H295Z" />
<glyph unicode="-" horiz-adv-x="798" d="M114 442V602H684V442H114Z" />
<glyph unicode="." horiz-adv-x="402" d="M201 -21Q141 -21 113 11T84 102V112Q84 170 112 202T201 234Q260 234 289 202T318 112V102Q318 44 289 12T201 -21Z" />
<glyph unicode="/" horiz-adv-x="850" d="M21 -242L648 1343H829L203 -242H21Z" />
<glyph unicode="0" horiz-adv-x="1151" d="M575 -26Q340 -26 220 104T100 482V796Q100 1043 219 1173T575 1304Q811 1304 931 1174T1051 796V482Q1051 235 931 105T575 -26ZM575 141Q714 141 780 226T847 473V804Q847 966 781 1051T575 1137Q436 1137 370 1052T304
804V473Q304 312 370 227T575 141Z" />
<glyph unicode="1" horiz-adv-x="685" d="M346 0V1071H332L45 910L50 1104L354 1278H546V0H346Z" />
<glyph unicode="2" horiz-adv-x="950" d="M65 0V187L383 491Q471 575 531 641T624 771T656 905V915Q656 982 630 1029T550 1102T408 1128Q310 1128 224 1097T72 1026L90 1205Q129 1229 182 1251T301 1287T449 1301Q655 1301 757 1207T860 940V926Q860 827 826
747T725 587T561 415L316 179V136L234 170H878V0H65Z" />
<glyph unicode="3" horiz-adv-x="991" d="M446 -23Q364 -23 296 -11T175 18T88 52L69 246Q137 209 228 181T429 153Q529 153 589 177T676 246T703 357V376Q703 443 678 485T595 549T440 572L231 576V735L441 740Q535 742 591 764T671 828T696 928V942Q696 1035
638 1083T440 1131Q334 1131 241 1103T77 1037L94 1211Q156 1246 250 1273T474 1301Q692 1301 795 1215T899 973V953Q899 878 875 821T799 727T667 676V646L661 667Q792 642 850 574T909 378V344Q909 172 797 75T446 -23Z" />
<glyph unicode="4" horiz-adv-x="1065" d="M680 0V848L687 1139H661L253 421V333L176 406H1034V238H54V434L541 1278H871V0H680Z" />
<glyph unicode="5" horiz-adv-x="1053" d="M500 -23Q374 -23 282 3T137 57L117 248Q161 224 217 203T340 168T482 154Q585 154 648 181T739 261T768 388V443Q768 546 717 603T556 660Q466 660 404 622T299 518L123 548V1278H929V1108H317V829L314 661H322Q360
732 433 778T626 825Q799 825 883 725T968 449V386Q968 261 919 169T767 27T500 -23Z" />
<glyph unicode="6" horiz-adv-x="1096" d="M566 -26Q417 -26 312 32T151 206T95 494V768Q95 1022 221 1161T593 1301Q711 1301 795 1277T937 1224L957 1044Q914 1068 866 1087T760 1117T626 1128Q460 1128 377 1036T294 762V471Q294 361 326 288T420 178T570 141Q694
141 753 207T813 376V428Q813 500 791 552T720 633T587 662Q513 662 453 635T349 556T285 433L271 605H304Q325 667 368 716T480 793T646 822Q828 822 919 720T1011 431V373Q1011 192 899 83T566 -26Z" />
<glyph unicode="7" horiz-adv-x="934" d="M199 0L667 1108H55V1278H877V1104L418 0H199Z" />
<glyph unicode="8" horiz-adv-x="1122" d="M560 -27Q433 -27 343 -2T196 71T113 184T86 328V354Q86 442 115 505T198 608T328 666V676Q253 690 202 726T125 818T99 949V974Q99 1126 210 1215T560 1304Q801 1304 912 1215T1024 974V949Q1024 875 998 819T921 726T795
676V666Q871 647 925 607T1008 505T1037 354V328Q1037 251 1012 186T930 74T782 0T560 -27ZM563 140Q706 140 770 198T834 348V371Q834 461 764 517T556 589Q425 573 357 517T289 371V348Q289 257 354 199T563 140ZM566 730Q676 737 750 788T825 937V952Q825 1037
762 1088T560 1140Q424 1140 361 1089T298 952V937Q298 872 332 828T427 759T566 730Z" />
<glyph unicode="9" horiz-adv-x="1096" d="M531 1304Q764 1304 882 1176T1001 797V495Q1001 245 871 110T483 -25Q372 -25 293 -4T159 44L138 233Q202 198 276 174T460 150Q635 150 718 238T802 501V817Q802 976 736 1056T527 1137Q403 1137 343 1072T283 902V844Q283
739 338 676T521 612Q592 612 650 639T749 718T811 841L825 669H792Q772 607 730 558T622 481T460 452Q272 452 179 554T85 838V905Q85 1087 198 1195T531 1304Z" />
<glyph unicode=":" horiz-adv-x="418" d="M209 -21Q149 -21 121 11T92 102V112Q92 170 120 202T209 234Q268 234 297 202T326 112V102Q326 44 297 12T209 -21ZM209 670Q149 670 121 702T92 793V803Q92 861 120 893T209 925Q268 925 297 893T326 803V793Q326 735
297 703T209 670Z" />
<glyph unicode=";" horiz-adv-x="416" d="M304 284Q307 264 310 234T314 168Q314 46 279 -58T161 -259L24 -219Q74 -136 98 -44T123 160Q123 193 122 223T116 284H304ZM209 670Q149 670 121 702T92 793V803Q92 861 120 893T209 925Q268 925 297 893T326 803V793Q326
735 297 703T209 670Z" />
<glyph unicode="&lt;" horiz-adv-x="1029" d="M241 629V611L905 445V275L99 490V750L905 965V795L241 629Z" />
<glyph unicode="=" horiz-adv-x="1031" d="M113 337V493H918V337H113ZM113 749V905H918V749H113Z" />
<glyph unicode="&gt;" horiz-adv-x="1029" d="M788 629L124 795V965L930 750V490L124 275V445L788 611V629Z" />
<glyph unicode="?" horiz-adv-x="902" d="M269 391V563L354 582Q451 604 509 638T595 725T622 854V919Q622 1022 570 1077T389 1132Q293 1132 205 1105T46 1039L68 1215Q104 1236 156 1255T275 1288T420 1301Q626 1301 723 1207T821 936V857Q821 726 772 640T627
500T385 416L269 391ZM354 -21Q294 -21 266 11T237 102V112Q237 170 265 202T354 234Q413 234 442 202T471 112V102Q471 44 442 12T354 -21Z" />
<glyph unicode="@" horiz-adv-x="1690" d="M734 69Q620 69 558 138T495 340Q495 349 495 360T497 389T501 440T510 523Q523 644 559 731T659 866T824 913Q925 913 974 866T1037 740H1085L1031 568Q1032 575 1032 581T1032 594Q1032 649 1014 686T963 743T882 763Q795
763 753 706T700 548Q694 497 691 466T687 416T686 389T685 372Q685 298 719 261T821 224Q865 224 901 243T965 296T1005 375L1027 243H984Q965 192 934 153T855 92T734 69ZM971 82L1000 295L997 326L1038 666L1042 694L1059 885L1060 896H1238L1145 104L971 82ZM1108
220Q1127 219 1141 218T1181 217Q1287 217 1338 277T1408 464Q1417 520 1422 564T1431 641T1435 694Q1443 852 1386 964T1207 1135T901 1195Q702 1195 572 1120T370 906T278 577Q272 525 268 486T262 417T257 363T255 317T254 274Q254 42 395 -81T822 -205Q950
-205 1057 -187T1252 -136T1407 -64L1382 -220Q1312 -256 1228 -284T1041 -329T811 -345Q575 -345 415 -276T172 -70T90 267Q90 291 90 314T92 363T96 419T103 487T112 571Q139 817 233 987T495 1245T907 1333Q1133 1333 1291 1261T1528 1047T1599 697Q1598 674
1596 643T1588 568T1573 457Q1555 326 1504 242T1360 116T1118 73Q1079 72 1043 74T971 82L1108 220Z" />
<glyph unicode="A" horiz-adv-x="1179" d="M42 0L434 1278H745L1137 0H934L602 1144H577L245 0H42ZM298 357V523H879V357H298Z" />
<glyph unicode="B" horiz-adv-x="1173" d="M281 0V165H664Q786 165 837 215T888 355V386Q888 478 836 527T656 577H280V735H654Q769 735 817 783T866 919V935Q866 1020 819 1067T653 1114H277V1278H672Q883 1278 975 1198T1067 967V949Q1067 834 1014 771T850
692V682Q977 657 1034 585T1092 382V344Q1092 180 996 90T685 0H281ZM142 0V1278H340V0H142Z" />
<glyph unicode="C" horiz-adv-x="1021" d="M586 -25Q341 -25 220 111T98 498V782Q98 1032 219 1167T586 1303Q661 1303 723 1290T834 1256T918 1212L934 1028Q875 1068 797 1098T613 1128Q459 1128 381 1037T302 779V505Q302 339 381 247T619 155Q723 155 803
184T944 257L928 68Q893 45 843 24T728 -11T586 -25Z" />
<glyph unicode="D" horiz-adv-x="1195" d="M279 0V169H582Q740 169 819 255T899 501V779Q899 940 820 1025T582 1111H278V1278H589Q843 1278 972 1150T1101 780V500Q1101 259 972 130T589 0H279ZM142 0V1278H340V0H142Z" />
<glyph unicode="E" horiz-adv-x="1055" d="M142 0V1278H340V0H142ZM201 0V168H962V0H201ZM256 568V734H940V568H256ZM200 1111V1278H955V1111H200Z" />
<glyph unicode="F" horiz-adv-x="1009" d="M142 0V1278H342V0H142ZM256 514V682H916V514H256ZM200 1110V1278H931V1110H200Z" />
<glyph unicode="G" horiz-adv-x="1196" d="M540 -26Q394 -26 296 33T148 206T98 481V770Q98 1027 232 1165T628 1303Q718 1303 792 1289T924 1253T1025 1206L1043 1027Q973 1068 879 1099T664 1131Q480 1131 391 1038T302 766V482Q302 321 377 234T605 146Q680
146 734 171T824 238T875 330V628L905 558H622V724H1071V200L872 201Q856 140 819 88T714 5T540 -26ZM884 264H1071V0H875L884 264Z" />
<glyph unicode="H" horiz-adv-x="1254" d="M343 0H142V1278H343V0ZM1112 0H911V1278H1112V0ZM257 742H989V574H257V742Z" />
<glyph unicode="I" horiz-adv-x="487" d="M344 0H143V1278H344V0Z" />
<glyph unicode="J" horiz-adv-x="822" d="M307 -17Q243 -17 182 -7T70 23L55 201Q105 179 157 168T265 157Q392 157 440 215T488 394V1278H689V382Q689 186 602 85T307 -17Z" />
<glyph unicode="K" horiz-adv-x="1149" d="M883 0L460 574H327V733H460L877 1278H1105L611 639L610 687L1118 0H883ZM142 0V1278H341V0H142Z" />
<glyph unicode="L" horiz-adv-x="979" d="M343 0H142V1278H343V0ZM252 170H922V0H252V170Z" />
<glyph unicode="M" horiz-adv-x="1509" d="M122 0L168 1278H473L748 402H761L1036 1278H1341L1387 0H1192L1177 511L1163 1067H1147L855 148H654L362 1067H346L331 510L317 0H122Z" />
<glyph unicode="N" horiz-adv-x="1254" d="M442 1278L913 218H925L917 770V1278H1112V0H819L341 1072H329L337 497V0H142V1278H442Z" />
<glyph unicode="O" horiz-adv-x="1214" d="M607 -26Q357 -26 228 110T98 499V780Q98 1032 227 1168T607 1304Q857 1304 986 1168T1116 780V499Q1116 246 987 110T607 -26ZM607 141Q759 141 835 232T912 491V788Q912 956 836 1046T607 1137Q455 1137 379 1047T302
788V491Q302 324 378 233T607 141Z" />
<glyph unicode="P" horiz-adv-x="1134" d="M274 410V576H627Q747 576 801 635T856 801V888Q856 997 802 1055T629 1113H273V1278H633Q853 1278 954 1177T1056 893V796Q1056 614 954 512T632 410H274ZM142 0V1278H339V527L340 437V0H142Z" />
<glyph unicode="Q" horiz-adv-x="1216" d="M1218 -42L674 -26Q373 -17 236 115T98 499V780Q98 1032 227 1168T607 1304Q774 1304 887 1243T1058 1065T1116 780V531Q1116 436 1096 366T1038 249T948 173T832 133V123L1218 133V-42ZM638 142L662 141Q713 152 758
177T838 245T892 348T912 491V788Q912 956 836 1046T607 1137Q455 1137 379 1047T302 788V491Q302 324 389 237T638 142Z" />
<glyph unicode="R" horiz-adv-x="1163" d="M879 0L845 259Q836 330 814 380T744 459T613 487L280 488V646L634 647Q757 647 810 706T863 870V898Q863 1001 809 1057T630 1113H276V1278H658Q871 1278 968 1187T1066 933V901Q1066 780 1011 703T825 606V580L741
609Q852 601 912 561T1001 451T1044 281L1087 0H879ZM142 0V1278H339V591L340 516V0H142Z" />
<glyph unicode="S" horiz-adv-x="1049" d="M507 -24Q416 -24 339 -10T202 25T99 67L80 264Q157 220 262 186T491 152Q631 152 697 198T763 339V354Q763 415 737 454T647 522T476 577Q334 612 247 659T119 778T79 957V967Q79 1128 186 1215T507 1302Q644 1302 741
1276T902 1216L920 1033Q847 1075 752 1103T538 1132Q445 1132 389 1112T308 1053T283 960V956Q283 900 308 860T396 790T577 729Q716 694 801 651T927 538T967 355V335Q967 158 852 67T507 -24Z" />
<glyph unicode="T" horiz-adv-x="1076" d="M438 0V1243H639V0H438ZM62 1110V1278H1014V1110H62Z" />
<glyph unicode="U" horiz-adv-x="1234" d="M617 -26Q368 -26 250 99T132 466V1278H333V460Q333 306 399 226T617 145Q768 145 834 225T901 460V1278H1102V466Q1102 225 985 100T617 -26Z" />
<glyph unicode="V" horiz-adv-x="1157" d="M422 0L42 1278H252L567 151H590L905 1278H1115L736 0H422Z" />
<glyph unicode="W" horiz-adv-x="1653" d="M312 0L58 1278H263L424 391L466 168H482L522 391L681 1246H973L1131 391L1171 168H1188L1230 391L1391 1278H1595L1342 0H1030L902 697L835 1080H819L752 697L625 0H312Z" />
<glyph unicode="X" horiz-adv-x="1147" d="M45 0L430 685V640L55 1278H273L568 765H581L875 1278H1093L718 640V685L1102 0H880L581 548H567L267 0H45Z" />
<glyph unicode="Y" horiz-adv-x="1112" d="M470 372L30 1278H242L460 813L550 602H563L653 813L870 1278H1082L643 372H470ZM458 0V558H655V0H458Z" />
<glyph unicode="Z" horiz-adv-x="1044" d="M965 169V0H80V158L725 1111H86V1278H957V1122L312 169H965Z" />
<glyph unicode="[" horiz-adv-x="618" d="M143 -244V1351H563V1203H325V-96H563V-244H143Z" />
<glyph unicode="\" horiz-adv-x="850" d="M829 -242H647L21 1343H202L829 -242Z" />
<glyph unicode="]" horiz-adv-x="618" d="M475 -244H55V-96H293V1203H55V1351H475V-244Z" />
<glyph unicode="^" horiz-adv-x="857" d="M299 1278H557L809 612H639L435 1160H421L218 612H48L299 1278Z" />
<glyph unicode="_" horiz-adv-x="899" d="M50 -223V-71H849V-223H50Z" />
<glyph unicode="`" horiz-adv-x="595" d="M312 1368L501 1096V1093H329L96 1365V1368H312Z" />
<glyph unicode="a" horiz-adv-x="1002" d="M699 0L707 232L700 262V570L701 619Q701 732 644 785T459 838Q356 838 268 809T109 742L127 906Q167 929 221 951T343 987T492 1001Q603 1001 680 975T804 898T872 778T894 622V0H699ZM368 -22Q223 -22 146 49T69 253V283Q69
423 155 490T428 584L722 626L733 484L451 444Q350 430 307 396T264 294V280Q264 213 305 177T432 141Q510 141 566 167T657 236T705 333L732 202H696Q680 142 643 91T540 9T368 -22Z" />
<glyph unicode="b" horiz-adv-x="1086" d="M633 -22Q546 -22 483 5T381 83T323 201H258L315 386Q319 304 352 250T442 168T572 141Q684 141 743 206T802 402V585Q802 711 743 776T570 841Q501 841 448 815T361 745T312 643L269 777H325Q342 839 378 889T479 970T641
1000Q816 1000 907 890T999 569V414Q999 201 906 90T633 -22ZM124 0V1324H319V1012L314 731L315 697V291L312 229L320 0H124Z" />
<glyph unicode="c" horiz-adv-x="873" d="M515 -23Q297 -23 192 92T86 419V560Q86 772 192 887T515 1002Q575 1002 625 991T717 963T787 926L804 758Q756 792 693 815T546 839Q412 839 348 767T283 556V424Q283 289 347 216T546 143Q631 143 696 166T813 224L796
54Q750 25 679 1T515 -23Z" />
<glyph unicode="d" horiz-adv-x="1086" d="M445 -22Q270 -22 179 88T87 409V564Q87 777 179 888T453 1000Q540 1000 602 973T704 895T761 777H826L771 596Q768 676 736 730T648 813T517 841Q404 841 344 776T284 583V396Q284 271 343 206T517 141Q586 141 638
167T726 238T774 339L820 201H763Q747 140 710 89T608 8T445 -22ZM766 0L774 229L771 291V697L772 735L767 1012V1324H962V0H766Z" />
<glyph unicode="e" horiz-adv-x="1012" d="M553 -23Q319 -23 203 88T86 410V570Q86 777 194 890T511 1004Q652 1004 746 953T887 807T934 584V547Q934 513 931 478T923 411H743Q745 463 745 509T746 593Q746 674 720 730T642 815T511 845Q394 845 337 779T280
589V497L281 474V387Q281 332 297 287T350 210T445 160T586 142Q680 142 762 166T918 230L900 63Q834 24 747 1T553 -23ZM190 411V558H883V411H190Z" />
<glyph unicode="f" horiz-adv-x="750" d="M457 1352Q533 1352 594 1339T706 1306L725 1154Q678 1170 630 1180T521 1190Q450 1190 408 1172T347 1122T328 1044V1040Q328 1008 337 979T357 927L227 923V946Q190 969 164 1011T138 1114V1119Q138 1224 216 1288T457
1352ZM171 0V881H366V0H171ZM17 782V938L246 937L326 938H721L704 782H17Z" />
<glyph unicode="g" horiz-adv-x="1035" d="M517 296Q311 296 201 384T91 635V651Q91 754 134 829T271 947T519 995L1027 1012V859L755 871V860Q813 845 851 814T910 735T930 624V613Q930 459 826 378T517 296ZM509 -221H534Q619 -221 678 -209T768 -171T800 -102V-99Q800
-48 764 -23T639 11L357 38L406 40Q358 32 322 16T265 -27T244 -93V-95Q244 -141 275 -169T366 -209T509 -221ZM497 -377Q362 -377 265 -354T115 -279T62 -142V-138Q62 -81 87 -42T157 20T257 52V62Q184 77 149 111T113 201V202Q113 240 130 267T181 311T268 333V355L474
305L399 308Q340 307 318 293T295 253V252Q295 222 328 208T442 184L680 158Q838 141 911 81T984 -101V-106Q984 -200 930 -260T774 -348T530 -377H497ZM514 440Q591 440 642 462T720 530T746 640V655Q746 719 721 763T645 830T517 853H512Q429 853 377 829T302
760T278 654V640Q278 575 304 530T382 463T514 440Z" />
<glyph unicode="h" horiz-adv-x="1080" d="M772 0V604Q772 675 753 727T689 808T567 837Q496 837 445 811T361 741T315 641L276 777H325Q342 839 381 889T485 970T644 1000Q759 1000 830 957T934 830T968 626V0H772ZM124 0V1324H319V1012L314 730L320 716V0H124Z" />
<glyph unicode="i" horiz-adv-x="450" d="M127 0V978H323V0H127ZM225 1122Q167 1122 139 1151T110 1233V1237Q110 1289 138 1318T225 1348Q283 1348 311 1319T340 1237V1233Q340 1180 312 1151T225 1122Z" />
<glyph unicode="j" horiz-adv-x="475" d="M152 170V978H348V170H152ZM250 1122Q192 1122 164 1151T135 1233V1237Q135 1289 163 1318T250 1348Q308 1348 336 1319T365 1237V1233Q365 1180 337 1151T250 1122ZM52 -358Q9 -358 -29 -351T-95 -334L-111 -175Q-85
-186 -57 -192T3 -198Q89 -198 120 -152T152 -21V261H348V-31Q348 -132 320 -205T226 -318T52 -358Z" />
<glyph unicode="k" horiz-adv-x="1012" d="M758 0L399 441H302V593H400L744 978H973L545 503V546L990 0H758ZM124 0V1324H319V0H124Z" />
<glyph unicode="l" horiz-adv-x="452" d="M128 0V1324H324V0H128Z" />
<glyph unicode="m" horiz-adv-x="1647" d="M1339 0V609Q1339 678 1322 729T1264 809T1154 837Q1088 837 1040 811T963 741T920 641L894 777H917Q935 836 972 887T1072 969T1231 1000Q1339 1000 1406 958T1504 833T1535 631V0H1339ZM124 0V978H320L312 749L320
737V0H124ZM732 0V609Q732 678 715 729T657 809T547 837Q481 837 433 811T356 741T313 641L281 777H323Q339 839 375 889T473 970T623 1000Q759 1000 829 930T917 726Q922 707 924 683T927 636V0H732Z" />
<glyph unicode="n" horiz-adv-x="1080" d="M772 0V604Q772 675 753 727T689 808T567 837Q496 837 444 811T360 741T313 641L281 777H323Q340 839 379 889T483 970T644 1000Q759 1000 830 957T934 830T968 626V0H772ZM124 0V978H320L312 749L320 737V0H124Z" />
<glyph unicode="o" horiz-adv-x="1051" d="M526 -25Q310 -25 198 90T86 421V560Q86 775 198 889T526 1004Q742 1004 853 890T965 560V421Q965 205 854 90T526 -25ZM526 134Q645 134 707 205T769 409V572Q769 704 707 774T526 845Q407 845 345 775T283 572V409Q283
276 345 205T526 134Z" />
<glyph unicode="p" horiz-adv-x="1086" d="M633 -22Q546 -22 484 5T382 83T325 201H260L315 386Q318 304 350 250T438 168T569 141Q682 141 742 206T802 399V586Q802 711 743 776T569 841Q501 841 448 815T361 745T312 643L266 777H323Q340 839 377 889T478 970T641
1000Q816 1000 907 890T999 569V414Q999 201 907 90T633 -22ZM124 -344V978H320L312 749L315 691V281L314 243L319 -34V-344H124Z" />
<glyph unicode="q" horiz-adv-x="1086" d="M445 -22Q270 -22 179 88T87 409V564Q87 777 180 888T453 1000Q541 1000 603 973T706 895T763 777H828L771 596Q768 678 735 732T645 814T514 841Q402 841 343 776T284 580V397Q284 271 343 206T516 141Q585 141 638
167T726 238T774 339L817 201H761Q745 140 708 89T607 8T445 -22ZM767 -344V-34L772 247L771 285V691L774 749L766 978H962V-344H767Z" />
<glyph unicode="r" horiz-adv-x="754" d="M312 591L270 744H318Q349 860 422 926T621 993Q651 993 674 989T717 978L729 787Q705 795 675 799T610 804Q503 804 425 749T312 591ZM124 0V978H315L306 693L320 679V0H124Z" />
<glyph unicode="s" horiz-adv-x="892" d="M440 -23Q322 -23 233 1T84 55L66 234Q140 197 229 170T429 142Q536 142 587 173T639 267V275Q639 315 618 341T544 389T392 432Q269 460 198 498T97 591T66 725V734Q66 866 158 934T434 1002Q550 1002 636 977T778 920L796
757Q729 793 644 817T454 842Q383 842 340 829T278 791T259 732V725Q259 688 279 661T350 612T494 570Q618 544 692 509T799 420T832 279V264Q832 121 734 49T440 -23Z" />
<glyph unicode="t" horiz-adv-x="791" d="M488 -20Q371 -20 300 15T197 122T165 301V899H359V324Q359 234 400 192T538 150Q596 150 649 162T747 196L730 30Q682 6 619 -7T488 -20ZM12 810V966H738L721 810H12ZM167 949L166 1218L362 1241L354 949H167Z" />
<glyph unicode="u" horiz-adv-x="1080" d="M308 978V374Q308 304 327 252T392 170T513 141Q585 141 636 167T721 237T767 337L799 201H757Q740 140 701 89T597 8T436 -22Q322 -22 251 21T146 148T112 352V978H308ZM956 978V0H760L768 229L760 241V978H956Z" />
<glyph unicode="v" horiz-adv-x="1001" d="M512 132L761 978H964L660 0H341L37 978H240L489 132H512Z" />
<glyph unicode="w" horiz-adv-x="1511" d="M278 0L48 978H250L423 141H440L619 952H893L1072 141H1088L1263 978H1463L1233 0H939L792 677L764 811H748L721 677L574 0H278Z" />
<glyph unicode="x" horiz-adv-x="993" d="M42 0L355 537V482L49 978H263L490 594H505L730 978H944L638 482V537L951 0H737L505 410H490L256 0H42Z" />
<glyph unicode="y" horiz-adv-x="1002" d="M593 173L489 128L764 978H965L520 -344H322L477 115L565 41H344L37 978H240L484 173H593Z" />
<glyph unicode="z" horiz-adv-x="912" d="M836 162V0H76V147L596 817H79V978H831V832L311 162H836Z" />
<glyph unicode="{" horiz-adv-x="678" d="M625 1330V1187Q603 1194 576 1199T517 1204Q447 1204 416 1171T385 1061Q385 1027 388 976T395 873T399 781Q399 720 385 674T334 600T231 561V542L223 552Q293 544 331 515T384 438T399 328Q399 289 396 236T389 132T385
46Q385 -30 416 -64T519 -98Q550 -98 576 -93T625 -80V-225Q591 -235 551 -242T467 -249Q330 -249 265 -184T199 26Q199 67 202 121T209 229T213 318Q213 367 200 400T154 451T62 473V638Q121 642 153 659T199 710T213 791Q213 828 210 880T203 987T199 1080Q199
1224 264 1289T467 1354Q511 1354 551 1348T625 1330Z" />
<glyph unicode="|" horiz-adv-x="494" d="M330 -432H164V1421H330V-432Z" />
<glyph unicode="}" horiz-adv-x="678" d="M53 1330Q87 1341 127 1347T211 1354Q348 1354 413 1289T479 1080Q479 1041 476 987T469 881T465 791Q465 743 478 710T525 660T616 638V473Q558 469 525 451T479 400T465 318Q465 282 468 229T475 122T479 26Q479 -118
414 -183T211 -249Q168 -249 128 -242T53 -225V-80Q75 -87 101 -92T159 -98Q231 -98 262 -64T293 46Q293 81 290 132T283 236T279 328Q279 390 294 437T347 514T455 552L447 542V561Q382 571 345 599T294 674T279 781Q279 820 282 872T289 976T293 1061Q293 1137
263 1170T161 1204Q130 1204 103 1199T53 1187V1330Z" />
<glyph unicode="~" horiz-adv-x="1084" d="M747 476Q690 476 637 492T533 530T437 567T349 584Q301 584 281 555T261 472V456H117V494Q117 612 166 680T337 748Q394 748 447 732T551 694T647 656T734 639Q784 639 803 668T822 751V768H967V729Q967 610 917 543T747 476Z" />
<glyph unicode="&#xa0;" horiz-adv-x="552" />
<glyph unicode="&#xa1;" horiz-adv-x="474" d="M319 576L342 -300H132L155 576H319ZM237 999Q296 999 325 967T354 876V866Q354 808 325 776T237 744Q177 744 149 776T120 866V876Q120 935 148 967T237 999Z" />
<glyph unicode="&#xa2;" horiz-adv-x="873" d="M591 926H423V1188H591V926ZM591 -214H423V78H591V-214ZM515 -23Q297 -23 192 92T86 419V560Q86 772 192 887T515 1002Q575 1002 625 991T717 963T787 926L804 758Q756 792 693 815T546 839Q412 839 348 767T283
556V424Q283 289 347 216T546 143Q631 143 696 166T813 224L796 54Q750 25 679 1T515 -23Z" />
<glyph unicode="&#xa3;" horiz-adv-x="1077" d="M78 580L89 732H917L906 580H78ZM315 170H1014V0H84V167L114 175Q171 190 205 226T255 320T270 454Q270 512 260 571T235 692T211 814T200 936Q200 1119 305 1210T632 1302Q715 1302 795 1287T938 1245L954 1076Q886
1104 817 1117T677 1131Q582 1131 523 1107T436 1034T408 911Q408 858 418 803T441 691T465 579T475 470Q475 346 434 281T315 180V170Z" />
<glyph unicode="&#xa4;" horiz-adv-x="1035" d="M517 237Q338 237 244 330T149 596V639Q149 812 244 904T518 997Q697 997 791 905T886 639V596Q886 423 791 330T517 237ZM518 385Q612 385 661 438T711 593L710 642Q710 744 661 796T518 849Q424 849 374 797T324
642V593Q324 491 374 438T518 385ZM779 424L967 212L856 118L670 326L779 424ZM365 326L180 118L69 212L260 426L365 326ZM249 815L69 1018L179 1113L362 908L249 815ZM670 903L856 1113L966 1018L778 804L670 903Z" />
<glyph unicode="&#xa5;" horiz-adv-x="1133" d="M646 536L681 682H1025L1011 536H646ZM125 385H1025L1011 240H111L125 385ZM448 682L484 536H111L125 682H448ZM479 372L39 1278H251L469 813L559 602H572L662 813L879 1278H1091L652 372H479ZM467 0V558H664V0H467Z" />
<glyph unicode="&#xa6;" horiz-adv-x="494" d="M330 587H164V1421H330V587ZM330 -432H164V408H330V-432Z" />
<glyph unicode="&#xa7;" horiz-adv-x="953" d="M552 422Q610 440 639 480T668 568V575Q668 627 647 658T571 710T418 752Q296 778 226 816T125 907T95 1031V1042Q95 1170 186 1235T460 1301Q575 1301 660 1276T801 1219L819 1056Q752 1092 668 1116T480 1141Q374
1141 331 1114T288 1038V1028Q288 995 308 972T378 929T520 887Q643 858 716 825T822 742T855 611V605Q855 523 808 468T678 399L679 366L552 422ZM394 771Q341 753 312 718T282 630V621Q282 572 302 541T374 486T520 439Q643 409 716 373T822 286T855 155V139Q855
6 758 -63T466 -132Q348 -132 260 -108T113 -54L95 125Q168 88 256 61T455 33Q560 33 611 61T662 144V154Q662 191 641 215T567 259T418 304Q300 335 229 371T127 456T95 575V582Q95 665 140 715T272 786L271 817L394 771Z" />
<glyph unicode="&#xa8;" horiz-adv-x="714" d="M199 1122Q150 1122 125 1149T100 1227V1234Q100 1284 125 1311T199 1338Q250 1338 274 1311T299 1234V1227Q299 1177 275 1150T199 1122ZM515 1122Q465 1122 441 1149T416 1227V1234Q416 1284 440 1311T515 1338Q565
1338 589 1311T614 1234V1227Q614 1177 590 1150T515 1122Z" />
<glyph unicode="&#xa9;" horiz-adv-x="1398" d="M699 -26Q508 -26 374 43T169 245T98 564V720Q98 906 168 1036T373 1235T699 1304Q890 1304 1024 1236T1229 1037T1300 720V564Q1300 377 1230 245T1025 44T699 -26ZM739 311Q598 311 530 386T462 600V684Q462 822
530 896T739 971Q801 971 848 955T923 919L934 804Q901 827 860 843T761 859Q676 859 636 815T596 687V600Q596 516 638 471T765 426Q822 426 864 442T939 481L929 365Q899 344 852 328T739 311ZM699 85Q916 85 1042 207T1168 554V730Q1168 953 1042 1073T699 1193Q482
1193 356 1073T230 730V554Q230 329 356 207T699 85Z" />
<glyph unicode="&#xaa;" horiz-adv-x="665" d="M440 642L446 790L444 801V1001V1056Q444 1114 412 1145T303 1176Q240 1176 186 1157T86 1112L98 1232Q139 1255 196 1273T326 1292Q398 1292 446 1274T524 1224T566 1148T579 1053V642H440ZM250 629Q157 629 108
677T59 816V831Q59 919 111 964T275 1026L461 1054L470 954L306 929Q249 920 224 900T199 840V829Q199 790 223 768T298 746Q354 746 394 777T447 854L463 759H439Q421 703 380 666T250 629Z" />
<glyph unicode="&#xab;" horiz-adv-x="999" d="M675 490L958 88H766L494 468V512L766 886H958L675 490ZM246 490L529 88H337L65 468V512L337 886H529L246 490Z" />
<glyph unicode="&#xac;" horiz-adv-x="1018" d="M905 198H739V640H905V198ZM99 543V700H905V543H99Z" />
<glyph unicode="&#xad;" horiz-adv-x="798" d="M114 442V602H684V442H114Z" />
<glyph unicode="&#xae;" horiz-adv-x="833" d="M417 535Q247 535 155 625T62 876V956Q62 1117 154 1207T417 1297Q587 1297 679 1207T771 956V876Q771 715 679 625T417 535ZM417 610Q549 610 616 677T684 873V960Q684 1088 617 1155T417 1222Q284 1222 216 1155T148
960V873Q148 744 216 677T417 610ZM497 732L487 797Q481 835 466 849T417 864H336V928H431Q463 928 477 942T491 985V994Q491 1020 478 1035T432 1050H335V1115H443Q510 1115 541 1088T572 1005V998Q572 960 552 938T489 910V900L474 909Q522 905 540 881T567 808L580
732H497ZM282 732V1115H362V906V879V732H282Z" />
<glyph unicode="&#xaf;" horiz-adv-x="778" d="M105 1147V1280H673V1147H105Z" />
<glyph unicode="&#xb0;" horiz-adv-x="658" d="M329 776Q207 776 141 844T75 1034V1047Q75 1167 141 1235T329 1304Q451 1304 517 1236T583 1047V1034Q583 913 517 845T329 776ZM329 904Q383 904 410 938T437 1033V1047Q437 1108 410 1142T329 1176Q276 1176 249
1142T221 1047V1033Q221 972 248 938T329 904Z" />
<glyph unicode="&#xb1;" horiz-adv-x="1031" d="M113 130V286H918V130H113ZM599 406H432V1098H599V406ZM113 674V830H918V674H113Z" />
<glyph unicode="&#xb2;" horiz-adv-x="593" d="M37 726V850L240 1009Q286 1045 320 1076T373 1138T392 1201V1208Q392 1250 362 1273T260 1296Q196 1296 144 1280T45 1244L57 1368Q97 1389 158 1404T283 1419Q410 1419 476 1368T542 1224V1213Q542 1159 520 1116T458
1032T359 946L238 855V825L173 848H551V726H37Z" />
<glyph unicode="&#xb3;" horiz-adv-x="617" d="M280 710Q209 710 149 724T53 753L40 878Q82 860 139 846T259 831Q351 831 383 857T415 924V929Q415 949 408 965T384 992T340 1009T271 1016L139 1019V1125L271 1128Q347 1130 379 1151T412 1212V1218Q412 1257
382 1278T268 1300Q199 1300 142 1285T44 1252L57 1368Q96 1388 154 1403T288 1418Q425 1418 493 1372T561 1237V1230Q561 1171 529 1134T430 1085V1069L425 1080Q497 1067 531 1028T566 920V911Q566 853 536 808T443 736T280 710Z" />
<glyph unicode="&#xb4;" horiz-adv-x="595" d="M283 1368H499V1365L266 1093H94V1096L283 1368Z" />
<glyph unicode="&#xb5;" horiz-adv-x="1093" d="M969 978V0H773L781 229L773 241V978H969ZM320 385Q320 328 333 283T372 207T440 159T539 143Q605 143 654 169T735 239T779 339L811 196H770Q756 130 726 81T648 6T529 -21Q471 -21 429 -5T358 43T312 121H304L316
-219V-344H124V978H320V385Z" />
<glyph unicode="&#xb6;" horiz-adv-x="748" d="M369 655Q218 655 147 731T76 943V991Q76 1127 147 1202T369 1278H460L461 655H369ZM606 0H411V1278H606V0Z" />
<glyph unicode="&#xb7;" horiz-adv-x="387" d="M193 420Q138 420 111 448T84 527V533Q84 583 111 612T193 641Q249 641 276 612T303 533V527Q303 476 276 448T193 420Z" />
<glyph unicode="&#xb8;" horiz-adv-x="588" d="M367 21L345 -135L263 -80Q280 -79 297 -79T331 -79Q431 -83 479 -120T528 -227V-233Q528 -312 471 -349T307 -387Q266 -387 228 -381T160 -368L138 -248Q169 -258 205 -264T282 -270Q331 -270 357 -257T383 -219V-217Q383
-187 349 -175T230 -157Q220 -156 216 -156T212 -156L234 21H367Z" />
<glyph unicode="&#xb9;" horiz-adv-x="429" d="M208 726V1257H200L27 1162L32 1300L215 1404H350V726H208Z" />
<glyph unicode="&#xba;" horiz-adv-x="694" d="M347 629Q208 629 135 704T62 923V1000Q62 1143 135 1218T347 1293Q487 1293 559 1218T632 1000V923Q632 780 559 705T347 629ZM347 747Q415 747 450 790T486 916V1008Q486 1090 451 1132T347 1175Q278 1175 243
1133T208 1008V916Q208 834 243 791T347 747Z" />
<glyph unicode="&#xbb;" horiz-adv-x="999" d="M324 490L41 886H233L505 512V468L233 88H41L324 490ZM753 490L470 886H662L934 512V468L662 88H470L753 490Z" />
<glyph unicode="&#xbc;" horiz-adv-x="1397" d="M208 856V1387H200L27 1292L32 1430L215 1534H350V856H208ZM136 0L1001 1278H1157L294 0H136ZM1151 0V408L1156 579H1142L920 237V189L853 229H1380V113H772V241L1064 678H1287V0H1151Z" />
<glyph unicode="&#xbd;" horiz-adv-x="1460" d="M208 856V1387H200L27 1292L32 1430L215 1534H350V856H208ZM136 0L1001 1278H1157L294 0H136ZM904 0V124L1107 283Q1153 319 1187 350T1240 412T1259 475V482Q1259 524 1229 547T1127 570Q1063 570 1011 554T912
518L924 642Q964 663 1025 678T1150 693Q1277 693 1343 642T1409 498V487Q1409 433 1387 390T1325 306T1226 220L1105 129V99L1040 122H1418V0H904Z" />
<glyph unicode="&#xbe;" horiz-adv-x="1580" d="M280 840Q209 840 149 854T53 883L40 1008Q82 990 139 976T259 961Q351 961 383 987T415 1054V1059Q415 1079 408 1095T384 1122T340 1139T271 1146L139 1149V1255L271 1258Q347 1260 379 1281T412 1342V1348Q412
1387 382 1408T268 1430Q199 1430 142 1415T44 1382L57 1498Q96 1518 154 1533T288 1548Q425 1548 493 1502T561 1367V1360Q561 1301 529 1264T430 1215V1199L425 1210Q497 1197 531 1158T566 1050V1041Q566 983 536 938T443 866T280 840ZM319 0L1184 1278H1340L477
0H319ZM1334 0V408L1339 579H1325L1103 237V189L1036 229H1563V113H955V241L1247 678H1470V0H1334Z" />
<glyph unicode="&#xbf;" horiz-adv-x="902" d="M633 587V415L548 396Q452 375 393 340T307 253T280 124V59Q280 -44 333 -99T513 -154Q609 -154 697 -126T856 -61L834 -237Q799 -257 747 -277T628 -310T482 -323Q277 -323 179 -229T81 42V121Q81 253 130 339T276
478T517 562L633 587ZM548 999Q608 999 636 967T665 876V866Q665 808 637 776T548 744Q489 744 460 776T431 866V876Q431 935 460 967T548 999Z" />
<glyph unicode="&#xc0;" horiz-adv-x="1179" d="M42 0L434 1278H745L1137 0H934L602 1144H577L245 0H42ZM298 357V523H879V357H298ZM442 1651L678 1398V1396H492L217 1648V1651H442Z" />
<glyph unicode="&#xc1;" horiz-adv-x="1179" d="M42 0L434 1278H745L1137 0H934L602 1144H577L245 0H42ZM298 357V523H879V357H298ZM736 1651H961V1648L686 1396H500V1398L736 1651Z" />
<glyph unicode="&#xc2;" horiz-adv-x="1179" d="M42 0L434 1278H745L1137 0H934L602 1144H577L245 0H42ZM298 357V523H879V357H298ZM487 1651H693L910 1399V1396H745L594 1544H586L435 1396H270V1399L487 1651Z" />
<glyph unicode="&#xc3;" horiz-adv-x="1179" d="M42 0L434 1278H745L1137 0H934L602 1144H577L245 0H42ZM298 357V523H879V357H298ZM730 1415Q692 1415 656 1424T587 1446T525 1468T469 1478Q441 1478 429 1462T417 1413V1404H294V1434Q294 1519 329 1568T450
1617Q489 1617 525 1608T594 1585T656 1563T711 1553Q740 1553 751 1569T762 1619V1628H885V1597Q885 1512 850 1464T730 1415Z" />
<glyph unicode="&#xc4;" horiz-adv-x="1179" d="M42 0L434 1278H745L1137 0H934L602 1144H577L245 0H42ZM298 357V523H879V357H298ZM432 1419Q383 1419 358 1446T333 1524V1531Q333 1581 358 1608T432 1635Q483 1635 507 1608T532 1531V1524Q532 1474 508 1447T432
1419ZM748 1419Q698 1419 674 1446T649 1524V1531Q649 1581 673 1608T748 1635Q798 1635 822 1608T847 1531V1524Q847 1474 823 1447T748 1419Z" />
<glyph unicode="&#xc5;" horiz-adv-x="1179" d="M42 0L434 1278H745L1137 0H934L602 1144H577L245 0H42ZM298 357V523H879V357H298ZM391 1524V1528Q391 1605 440 1651T590 1697Q689 1697 738 1651T788 1528V1524Q788 1449 739 1403T590 1356Q490 1356 441 1402T391
1524ZM506 1525Q506 1490 527 1471T590 1452Q631 1452 652 1471T673 1525V1528Q673 1563 652 1582T590 1601Q549 1601 528 1582T506 1528V1525Z" />
<glyph unicode="&#xc6;" horiz-adv-x="1769" d="M40 0L669 1278H889V1144H806L252 0H40ZM346 357V523H927V357H346ZM915 0V168H1676V0H915ZM856 0V1278H1054V0H856ZM970 568V734H1654V568H970ZM914 1111V1278H1669V1111H914Z" />
<glyph unicode="&#xc7;" horiz-adv-x="1021" d="M586 -25Q341 -25 220 111T98 498V782Q98 1032 219 1167T586 1303Q661 1303 723 1290T834 1256T918 1212L934 1028Q875 1068 797 1098T613 1128Q459 1128 381 1037T302 779V505Q302 339 381 247T619 155Q723 155
803 184T944 257L928 68Q893 45 843 24T728 -11T586 -25ZM635 18L613 -138L531 -83Q548 -82 565 -82T599 -82Q699 -86 747 -123T796 -230V-236Q796 -315 739 -352T575 -390Q534 -390 496 -384T428 -371L406 -251Q437 -261 473 -267T550 -273Q599 -273 625 -260T651
-222V-220Q651 -190 617 -178T498 -160Q488 -159 484 -159T480 -159L502 18H635Z" />
<glyph unicode="&#xc8;" horiz-adv-x="1055" d="M142 0V1278H340V0H142ZM201 0V168H962V0H201ZM256 568V734H940V568H256ZM200 1111V1278H955V1111H200ZM408 1651L644 1398V1396H458L183 1648V1651H408Z" />
<glyph unicode="&#xc9;" horiz-adv-x="1055" d="M142 0V1278H340V0H142ZM201 0V168H962V0H201ZM256 568V734H940V568H256ZM200 1111V1278H955V1111H200ZM702 1651H927V1648L652 1396H466V1398L702 1651Z" />
<glyph unicode="&#xca;" horiz-adv-x="1055" d="M142 0V1278H340V0H142ZM201 0V168H962V0H201ZM256 568V734H940V568H256ZM200 1111V1278H955V1111H200ZM453 1651H659L876 1399V1396H711L560 1544H552L401 1396H236V1399L453 1651Z" />
<glyph unicode="&#xcb;" horiz-adv-x="1055" d="M142 0V1278H340V0H142ZM201 0V168H962V0H201ZM256 568V734H940V568H256ZM200 1111V1278H955V1111H200ZM398 1419Q349 1419 324 1446T299 1524V1531Q299 1581 324 1608T398 1635Q449 1635 473 1608T498 1531V1524Q498
1474 474 1447T398 1419ZM714 1419Q664 1419 640 1446T615 1524V1531Q615 1581 639 1608T714 1635Q764 1635 788 1608T813 1531V1524Q813 1474 789 1447T714 1419Z" />
<glyph unicode="&#xcc;" horiz-adv-x="487" d="M344 0H143V1278H344V0ZM95 1651L331 1398V1396H145L-130 1648V1651H95Z" />
<glyph unicode="&#xcd;" horiz-adv-x="487" d="M344 0H143V1278H344V0ZM389 1651H614V1648L339 1396H153V1398L389 1651Z" />
<glyph unicode="&#xce;" horiz-adv-x="487" d="M344 0H143V1278H344V0ZM140 1651H346L563 1399V1396H398L247 1544H239L88 1396H-77V1399L140 1651Z" />
<glyph unicode="&#xcf;" horiz-adv-x="487" d="M344 0H143V1278H344V0ZM85 1419Q36 1419 11 1446T-14 1524V1531Q-14 1581 11 1608T85 1635Q136 1635 160 1608T185 1531V1524Q185 1474 161 1447T85 1419ZM401 1419Q351 1419 327 1446T302 1524V1531Q302 1581 326
1608T401 1635Q451 1635 475 1608T500 1531V1524Q500 1474 476 1447T401 1419Z" />
<glyph unicode="&#xd0;" horiz-adv-x="1195" d="M5 581V731H634V581H5ZM279 0V169H582Q740 169 819 255T899 501V779Q899 940 820 1025T582 1111H278V1278H589Q843 1278 972 1150T1101 780V500Q1101 259 972 130T589 0H279ZM142 0V1278H340V0H142Z" />
<glyph unicode="&#xd1;" horiz-adv-x="1254" d="M442 1278L913 218H925L917 770V1278H1112V0H819L341 1072H329L337 497V0H142V1278H442ZM770 1415Q732 1415 696 1424T627 1446T565 1468T509 1478Q481 1478 469 1462T457 1413V1404H334V1434Q334 1519 369 1568T490
1617Q529 1617 565 1608T634 1585T696 1563T751 1553Q780 1553 791 1569T802 1619V1628H925V1597Q925 1512 890 1464T770 1415Z" />
<glyph unicode="&#xd2;" horiz-adv-x="1214" d="M607 -26Q357 -26 228 110T98 499V780Q98 1032 227 1168T607 1304Q857 1304 986 1168T1116 780V499Q1116 246 987 110T607 -26ZM607 141Q759 141 835 232T912 491V788Q912 956 836 1046T607 1137Q455 1137 379 1047T302
788V491Q302 324 378 233T607 141ZM459 1651L695 1398V1396H509L234 1648V1651H459Z" />
<glyph unicode="&#xd3;" horiz-adv-x="1214" d="M607 -26Q357 -26 228 110T98 499V780Q98 1032 227 1168T607 1304Q857 1304 986 1168T1116 780V499Q1116 246 987 110T607 -26ZM607 141Q759 141 835 232T912 491V788Q912 956 836 1046T607 1137Q455 1137 379 1047T302
788V491Q302 324 378 233T607 141ZM753 1651H978V1648L703 1396H517V1398L753 1651Z" />
<glyph unicode="&#xd4;" horiz-adv-x="1214" d="M607 -26Q357 -26 228 110T98 499V780Q98 1032 227 1168T607 1304Q857 1304 986 1168T1116 780V499Q1116 246 987 110T607 -26ZM607 141Q759 141 835 232T912 491V788Q912 956 836 1046T607 1137Q455 1137 379 1047T302
788V491Q302 324 378 233T607 141ZM504 1651H710L927 1399V1396H762L611 1544H603L452 1396H287V1399L504 1651Z" />
<glyph unicode="&#xd5;" horiz-adv-x="1214" d="M607 -26Q357 -26 228 110T98 499V780Q98 1032 227 1168T607 1304Q857 1304 986 1168T1116 780V499Q1116 246 987 110T607 -26ZM607 141Q759 141 835 232T912 491V788Q912 956 836 1046T607 1137Q455 1137 379 1047T302
788V491Q302 324 378 233T607 141ZM747 1415Q709 1415 673 1424T604 1446T542 1468T486 1478Q458 1478 446 1462T434 1413V1404H311V1434Q311 1519 346 1568T467 1617Q506 1617 542 1608T611 1585T673 1563T728 1553Q757 1553 768 1569T779 1619V1628H902V1597Q902
1512 867 1464T747 1415Z" />
<glyph unicode="&#xd6;" horiz-adv-x="1214" d="M607 -26Q357 -26 228 110T98 499V780Q98 1032 227 1168T607 1304Q857 1304 986 1168T1116 780V499Q1116 246 987 110T607 -26ZM607 141Q759 141 835 232T912 491V788Q912 956 836 1046T607 1137Q455 1137 379 1047T302
788V491Q302 324 378 233T607 141ZM449 1419Q400 1419 375 1446T350 1524V1531Q350 1581 375 1608T449 1635Q500 1635 524 1608T549 1531V1524Q549 1474 525 1447T449 1419ZM765 1419Q715 1419 691 1446T666 1524V1531Q666 1581 690 1608T765 1635Q815 1635 839
1608T864 1531V1524Q864 1474 840 1447T765 1419Z" />
<glyph unicode="&#xd7;" horiz-adv-x="958" d="M868 331L755 228L95 908L208 1010L868 331ZM90 331L750 1010L863 908L203 228L90 331Z" />
<glyph unicode="&#xd8;" horiz-adv-x="1214" d="M607 -26Q445 -26 332 37T158 218T98 499V780Q98 1032 227 1168T607 1304Q769 1304 882 1241T1056 1061T1116 780V499Q1116 246 987 110T607 -26ZM106 -69L254 164L299 223L823 1169L841 1210L927 1347H1108L961
1121L920 1060L401 123L386 95L288 -69H106ZM607 141Q759 141 835 232T912 491V788Q912 956 839 1046T607 1137Q455 1137 379 1047T302 788V491Q302 324 374 233T607 141Z" />
<glyph unicode="&#xd9;" horiz-adv-x="1234" d="M617 -26Q368 -26 250 99T132 466V1278H333V460Q333 306 399 226T617 145Q768 145 834 225T901 460V1278H1102V466Q1102 225 985 100T617 -26ZM469 1651L705 1398V1396H519L244 1648V1651H469Z" />
<glyph unicode="&#xda;" horiz-adv-x="1234" d="M617 -26Q368 -26 250 99T132 466V1278H333V460Q333 306 399 226T617 145Q768 145 834 225T901 460V1278H1102V466Q1102 225 985 100T617 -26ZM763 1651H988V1648L713 1396H527V1398L763 1651Z" />
<glyph unicode="&#xdb;" horiz-adv-x="1234" d="M617 -26Q368 -26 250 99T132 466V1278H333V460Q333 306 399 226T617 145Q768 145 834 225T901 460V1278H1102V466Q1102 225 985 100T617 -26ZM514 1651H720L937 1399V1396H772L621 1544H613L462 1396H297V1399L514 1651Z" />
<glyph unicode="&#xdc;" horiz-adv-x="1234" d="M617 -26Q368 -26 250 99T132 466V1278H333V460Q333 306 399 226T617 145Q768 145 834 225T901 460V1278H1102V466Q1102 225 985 100T617 -26ZM459 1419Q410 1419 385 1446T360 1524V1531Q360 1581 385 1608T459
1635Q510 1635 534 1608T559 1531V1524Q559 1474 535 1447T459 1419ZM775 1419Q725 1419 701 1446T676 1524V1531Q676 1581 700 1608T775 1635Q825 1635 849 1608T874 1531V1524Q874 1474 850 1447T775 1419Z" />
<glyph unicode="&#xdd;" horiz-adv-x="1112" d="M470 372L30 1278H242L460 813L550 602H563L653 813L870 1278H1082L643 372H470ZM458 0V558H655V0H458ZM702 1651H927V1648L652 1396H466V1398L702 1651Z" />
<glyph unicode="&#xde;" horiz-adv-x="1134" d="M274 209V375H627Q747 375 801 434T856 600V687Q856 796 802 854T629 912H273V1077H633Q853 1077 954 976T1056 692V595Q1056 413 954 311T632 209H274ZM142 0V1278H339V1037V961V313V261V0H142Z" />
<glyph unicode="&#xdf;" horiz-adv-x="1152" d="M124 979Q124 1101 164 1184T292 1309T524 1352Q640 1352 725 1321T856 1229T903 1079Q903 1021 881 978T825 899T758 834T702 774T679 707V703Q679 654 714 626T837 565Q920 534 974 500T1054 415T1081 283V268Q1081
173 1039 109T918 13T730 -19Q655 -19 597 -6T493 24L476 200Q532 176 590 161T711 145Q801 145 845 177T889 271V281Q889 320 874 346T822 395T720 442Q638 475 586 507T510 582T486 690V696Q486 752 508 795T564 874T630 942T685 1005T708 1074Q708 1110 688
1137T627 1180T522 1196Q445 1196 400 1170T336 1094T317 972V0H124V979Z" />
<glyph unicode="&#xe0;" horiz-adv-x="1002" d="M699 0L707 232L700 262V570L701 619Q701 732 644 785T459 838Q356 838 268 809T109 742L127 906Q167 929 221 951T343 987T492 1001Q603 1001 680 975T804 898T872 778T894 622V0H699ZM368 -22Q223 -22 146 49T69
253V283Q69 423 155 490T428 584L722 626L733 484L451 444Q350 430 307 396T264 294V280Q264 213 305 177T432 141Q510 141 566 167T657 236T705 333L732 202H696Q680 142 643 91T540 9T368 -22ZM390 1368L579 1096V1093H407L174 1365V1368H390Z" />
<glyph unicode="&#xe1;" horiz-adv-x="1002" d="M699 0L707 232L700 262V570L701 619Q701 732 644 785T459 838Q356 838 268 809T109 742L127 906Q167 929 221 951T343 987T492 1001Q603 1001 680 975T804 898T872 778T894 622V0H699ZM368 -22Q223 -22 146 49T69
253V283Q69 423 155 490T428 584L722 626L733 484L451 444Q350 430 307 396T264 294V280Q264 213 305 177T432 141Q510 141 566 167T657 236T705 333L732 202H696Q680 142 643 91T540 9T368 -22ZM598 1368H814V1365L581 1093H409V1096L598 1368Z" />
<glyph unicode="&#xe2;" horiz-adv-x="1002" d="M699 0L707 232L700 262V570L701 619Q701 732 644 785T459 838Q356 838 268 809T109 742L127 906Q167 929 221 951T343 987T492 1001Q603 1001 680 975T804 898T872 778T894 622V0H699ZM368 -22Q223 -22 146 49T69
253V283Q69 423 155 490T428 584L722 626L733 484L451 444Q350 430 307 396T264 294V280Q264 213 305 177T432 141Q510 141 566 167T657 236T705 333L732 202H696Q680 142 643 91T540 9T368 -22ZM389 1368H599L786 1096V1093H632L498 1261H490L356 1093H202V1096L389
1368Z" />
<glyph unicode="&#xe3;" horiz-adv-x="1002" d="M699 0L707 232L700 262V570L701 619Q701 732 644 785T459 838Q356 838 268 809T109 742L127 906Q167 929 221 951T343 987T492 1001Q603 1001 680 975T804 898T872 778T894 622V0H699ZM368 -22Q223 -22 146 49T69
253V283Q69 423 155 490T428 584L722 626L733 484L451 444Q350 430 307 396T264 294V280Q264 213 305 177T432 141Q510 141 566 167T657 236T705 333L732 202H696Q680 142 643 91T540 9T368 -22ZM625 1117Q589 1117 555 1127T490 1152T430 1177T378 1188Q351 1188
340 1171T328 1120V1106H205V1140Q205 1227 240 1277T361 1327Q398 1327 432 1316T497 1291T555 1266T607 1255Q635 1255 646 1272T657 1324V1338H780V1303Q780 1215 745 1166T625 1117Z" />
<glyph unicode="&#xe4;" horiz-adv-x="1002" d="M699 0L707 232L700 262V570L701 619Q701 732 644 785T459 838Q356 838 268 809T109 742L127 906Q167 929 221 951T343 987T492 1001Q603 1001 680 975T804 898T872 778T894 622V0H699ZM368 -22Q223 -22 146 49T69
253V283Q69 423 155 490T428 584L722 626L733 484L451 444Q350 430 307 396T264 294V280Q264 213 305 177T432 141Q510 141 566 167T657 236T705 333L732 202H696Q680 142 643 91T540 9T368 -22ZM336 1122Q287 1122 262 1149T237 1227V1234Q237 1284 262 1311T336
1338Q387 1338 411 1311T436 1234V1227Q436 1177 412 1150T336 1122ZM652 1122Q602 1122 578 1149T553 1227V1234Q553 1284 577 1311T652 1338Q702 1338 726 1311T751 1234V1227Q751 1177 727 1150T652 1122Z" />
<glyph unicode="&#xe5;" horiz-adv-x="1002" d="M699 0L707 232L700 262V570L701 619Q701 732 644 785T459 838Q356 838 268 809T109 742L127 906Q167 929 221 951T343 987T492 1001Q603 1001 680 975T804 898T872 778T894 622V0H699ZM368 -22Q223 -22 146 49T69
253V283Q69 423 155 490T428 584L722 626L733 484L451 444Q350 430 307 396T264 294V280Q264 213 305 177T432 141Q510 141 566 167T657 236T705 333L732 202H696Q680 142 643 91T540 9T368 -22ZM295 1246V1250Q295 1327 344 1373T494 1419Q593 1419 642 1373T692
1250V1246Q692 1171 643 1125T494 1078Q394 1078 345 1124T295 1246ZM410 1247Q410 1212 431 1193T494 1174Q535 1174 556 1193T577 1247V1250Q577 1285 556 1304T494 1323Q453 1323 432 1304T410 1250V1247Z" />
<glyph unicode="&#xe6;" horiz-adv-x="1626" d="M1167 -23Q979 -23 869 51T726 260L706 300Q702 356 701 411T700 528L701 619Q701 732 640 785T459 838Q355 838 267 809T109 742L127 906Q165 929 216 951T331 987T472 1001Q612 1001 689 942T791 783H797Q828
881 916 942T1150 1004Q1282 1004 1370 953T1503 807T1548 584V547Q1548 513 1545 478T1537 411H1357Q1359 463 1359 508T1360 593Q1360 674 1334 730T1257 815T1127 845Q1010 845 953 777T895 589V496V473V397Q895 340 911 293T964 213T1059 161T1200 142Q1294
142 1376 166T1532 230L1514 63Q1448 24 1361 1T1167 -23ZM378 -22Q225 -22 147 50T69 253V283Q69 423 156 490T428 584L722 626L733 484L451 444Q350 430 307 396T264 294V280Q264 213 305 177T432 141Q511 141 567 166T660 234T710 331L771 206H737Q715 142 672
91T558 9T378 -22ZM804 411V559H1497V411H804Z" />
<glyph unicode="&#xe7;" horiz-adv-x="873" d="M515 -23Q297 -23 192 92T86 419V560Q86 772 192 887T515 1002Q575 1002 625 991T717 963T787 926L804 758Q756 792 693 815T546 839Q412 839 348 767T283 556V424Q283 289 347 216T546 143Q631 143 696 166T813
224L796 54Q750 25 679 1T515 -23ZM559 21L537 -135L455 -80Q472 -79 489 -79T523 -79Q623 -83 671 -120T720 -227V-233Q720 -312 663 -349T499 -387Q458 -387 420 -381T352 -368L330 -248Q361 -258 397 -264T474 -270Q523 -270 549 -257T575 -219V-217Q575 -187
541 -175T422 -157Q412 -156 408 -156T404 -156L426 21H559Z" />
<glyph unicode="&#xe8;" horiz-adv-x="1012" d="M553 -23Q319 -23 203 88T86 410V570Q86 777 194 890T511 1004Q652 1004 746 953T887 807T934 584V547Q934 513 931 478T923 411H743Q745 463 745 509T746 593Q746 674 720 730T642 815T511 845Q394 845 337 779T280
589V497L281 474V387Q281 332 297 287T350 210T445 160T586 142Q680 142 762 166T918 230L900 63Q834 24 747 1T553 -23ZM190 411V558H883V411H190ZM412 1368L601 1096V1093H429L196 1365V1368H412Z" />
<glyph unicode="&#xe9;" horiz-adv-x="1012" d="M553 -23Q319 -23 203 88T86 410V570Q86 777 194 890T511 1004Q652 1004 746 953T887 807T934 584V547Q934 513 931 478T923 411H743Q745 463 745 509T746 593Q746 674 720 730T642 815T511 845Q394 845 337 779T280
589V497L281 474V387Q281 332 297 287T350 210T445 160T586 142Q680 142 762 166T918 230L900 63Q834 24 747 1T553 -23ZM190 411V558H883V411H190ZM620 1368H836V1365L603 1093H431V1096L620 1368Z" />
<glyph unicode="&#xea;" horiz-adv-x="1012" d="M553 -23Q319 -23 203 88T86 410V570Q86 777 194 890T511 1004Q652 1004 746 953T887 807T934 584V547Q934 513 931 478T923 411H743Q745 463 745 509T746 593Q746 674 720 730T642 815T511 845Q394 845 337 779T280
589V497L281 474V387Q281 332 297 287T350 210T445 160T586 142Q680 142 762 166T918 230L900 63Q834 24 747 1T553 -23ZM190 411V558H883V411H190ZM411 1368H621L808 1096V1093H654L520 1261H512L378 1093H224V1096L411 1368Z" />
<glyph unicode="&#xeb;" horiz-adv-x="1012" d="M553 -23Q319 -23 203 88T86 410V570Q86 777 194 890T511 1004Q652 1004 746 953T887 807T934 584V547Q934 513 931 478T923 411H743Q745 463 745 509T746 593Q746 674 720 730T642 815T511 845Q394 845 337 779T280
589V497L281 474V387Q281 332 297 287T350 210T445 160T586 142Q680 142 762 166T918 230L900 63Q834 24 747 1T553 -23ZM190 411V558H883V411H190ZM358 1122Q309 1122 284 1149T259 1227V1234Q259 1284 284 1311T358 1338Q409 1338 433 1311T458 1234V1227Q458
1177 434 1150T358 1122ZM674 1122Q624 1122 600 1149T575 1227V1234Q575 1284 599 1311T674 1338Q724 1338 748 1311T773 1234V1227Q773 1177 749 1150T674 1122Z" />
<glyph unicode="&#xec;" horiz-adv-x="449" d="M127 0V978H323V0H127ZM197 1368L303 1095V1093H142L-3 1366V1368H197Z" />
<glyph unicode="&#xed;" horiz-adv-x="449" d="M127 0V978H323V0H127ZM253 1368H453V1366L308 1093H147V1095L253 1368Z" />
<glyph unicode="&#xee;" horiz-adv-x="449" d="M127 0V978H323V0H127ZM123 1368H327L477 1095V1093H330L228 1259H221L120 1093H-27V1095L123 1368Z" />
<glyph unicode="&#xef;" horiz-adv-x="449" d="M127 0V978H323V0H127ZM91 1122Q44 1122 21 1149T-3 1226V1234Q-3 1284 20 1311T91 1338Q138 1338 162 1311T186 1234V1226Q186 1176 162 1149T91 1122ZM360 1122Q312 1122 289 1149T265 1226V1234Q265 1284 288
1311T360 1338Q407 1338 430 1311T454 1234V1226Q454 1176 431 1149T360 1122Z" />
<glyph unicode="&#xf0;" horiz-adv-x="1051" d="M526 -25Q310 -25 198 90T86 421V482Q86 686 188 800T465 915Q536 915 587 897T674 846T733 765L783 779L769 486Q769 552 753 603T706 688T629 741T522 759Q404 759 344 689T283 486V409Q283 276 345 205T526 134Q645
134 707 205T769 409Q769 440 769 467T769 532Q768 581 768 612T767 688Q756 764 717 834T610 979T447 1137T230 1323V1324H476Q589 1223 679 1133T833 952T931 756T965 523V421Q965 205 854 90T526 -25ZM198 983V1109L912 1281V1155L198 983Z" />
<glyph unicode="&#xf1;" horiz-adv-x="1080" d="M772 0V604Q772 675 753 727T689 808T567 837Q496 837 444 811T360 741T313 641L281 777H323Q340 839 379 889T483 970T644 1000Q759 1000 830 957T934 830T968 626V0H772ZM124 0V978H320L312 749L320 737V0H124ZM672
1117Q636 1117 602 1127T537 1152T477 1177T425 1188Q398 1188 387 1171T375 1120V1106H252V1140Q252 1227 287 1277T408 1327Q445 1327 479 1316T544 1291T602 1266T654 1255Q682 1255 693 1272T704 1324V1338H827V1303Q827 1215 792 1166T672 1117Z" />
<glyph unicode="&#xf2;" horiz-adv-x="1051" d="M526 -25Q310 -25 198 90T86 421V560Q86 775 198 889T526 1004Q742 1004 853 890T965 560V421Q965 205 854 90T526 -25ZM526 134Q645 134 707 205T769 409V572Q769 704 707 774T526 845Q407 845 345 775T283 572V409Q283
276 345 205T526 134ZM422 1368L611 1096V1093H439L206 1365V1368H422Z" />
<glyph unicode="&#xf3;" horiz-adv-x="1051" d="M526 -25Q310 -25 198 90T86 421V560Q86 775 198 889T526 1004Q742 1004 853 890T965 560V421Q965 205 854 90T526 -25ZM526 134Q645 134 707 205T769 409V572Q769 704 707 774T526 845Q407 845 345 775T283 572V409Q283
276 345 205T526 134ZM630 1368H846V1365L613 1093H441V1096L630 1368Z" />
<glyph unicode="&#xf4;" horiz-adv-x="1051" d="M526 -25Q310 -25 198 90T86 421V560Q86 775 198 889T526 1004Q742 1004 853 890T965 560V421Q965 205 854 90T526 -25ZM526 134Q645 134 707 205T769 409V572Q769 704 707 774T526 845Q407 845 345 775T283 572V409Q283
276 345 205T526 134ZM421 1368H631L818 1096V1093H664L530 1261H522L388 1093H234V1096L421 1368Z" />
<glyph unicode="&#xf5;" horiz-adv-x="1051" d="M526 -25Q310 -25 198 90T86 421V560Q86 775 198 889T526 1004Q742 1004 853 890T965 560V421Q965 205 854 90T526 -25ZM526 134Q645 134 707 205T769 409V572Q769 704 707 774T526 845Q407 845 345 775T283 572V409Q283
276 345 205T526 134ZM657 1117Q621 1117 587 1127T522 1152T462 1177T410 1188Q383 1188 372 1171T360 1120V1106H237V1140Q237 1227 272 1277T393 1327Q430 1327 464 1316T529 1291T587 1266T639 1255Q667 1255 678 1272T689 1324V1338H812V1303Q812 1215 777
1166T657 1117Z" />
<glyph unicode="&#xf6;" horiz-adv-x="1051" d="M526 -25Q310 -25 198 90T86 421V560Q86 775 198 889T526 1004Q742 1004 853 890T965 560V421Q965 205 854 90T526 -25ZM526 134Q645 134 707 205T769 409V572Q769 704 707 774T526 845Q407 845 345 775T283 572V409Q283
276 345 205T526 134ZM368 1122Q319 1122 294 1149T269 1227V1234Q269 1284 294 1311T368 1338Q419 1338 443 1311T468 1234V1227Q468 1177 444 1150T368 1122ZM684 1122Q634 1122 610 1149T585 1227V1234Q585 1284 609 1311T684 1338Q734 1338 758 1311T783 1234V1227Q783
1177 759 1150T684 1122Z" />
<glyph unicode="&#xf7;" horiz-adv-x="1004" d="M99 541V701H905V541H99ZM507 159Q453 159 428 188T402 270V279Q402 331 427 360T507 389Q560 389 586 360T612 279V270Q612 218 586 189T507 159ZM507 854Q453 854 428 883T402 965V974Q402 1026 427 1055T507
1084Q560 1084 586 1055T612 974V965Q612 913 586 884T507 854Z" />
<glyph unicode="&#xf8;" horiz-adv-x="1051" d="M526 -25Q382 -25 284 26T136 178T86 421V560Q86 775 198 889T526 1004Q670 1004 768 953T915 803T965 560V421Q965 205 854 90T526 -25ZM102 -69L232 131L275 188L685 888L711 932L782 1047H949L827 864L783 804L378
108L350 59L270 -69H102ZM526 134Q645 134 707 205T769 409V572Q769 704 707 774T526 845Q407 845 345 775T283 572V409Q283 276 345 205T526 134Z" />
<glyph unicode="&#xf9;" horiz-adv-x="1080" d="M308 978V374Q308 304 327 252T392 170T513 141Q585 141 636 167T721 237T767 337L799 201H757Q740 140 701 89T597 8T436 -22Q322 -22 251 21T146 148T112 352V978H308ZM956 978V0H760L768 229L760 241V978H956ZM437
1368L626 1096V1093H454L221 1365V1368H437Z" />
<glyph unicode="&#xfa;" horiz-adv-x="1080" d="M308 978V374Q308 304 327 252T392 170T513 141Q585 141 636 167T721 237T767 337L799 201H757Q740 140 701 89T597 8T436 -22Q322 -22 251 21T146 148T112 352V978H308ZM956 978V0H760L768 229L760 241V978H956ZM645
1368H861V1365L628 1093H456V1096L645 1368Z" />
<glyph unicode="&#xfb;" horiz-adv-x="1080" d="M308 978V374Q308 304 327 252T392 170T513 141Q585 141 636 167T721 237T767 337L799 201H757Q740 140 701 89T597 8T436 -22Q322 -22 251 21T146 148T112 352V978H308ZM956 978V0H760L768 229L760 241V978H956ZM436
1368H646L833 1096V1093H679L545 1261H537L403 1093H249V1096L436 1368Z" />
<glyph unicode="&#xfc;" horiz-adv-x="1080" d="M308 978V374Q308 304 327 252T392 170T513 141Q585 141 636 167T721 237T767 337L799 201H757Q740 140 701 89T597 8T436 -22Q322 -22 251 21T146 148T112 352V978H308ZM956 978V0H760L768 229L760 241V978H956ZM383
1122Q334 1122 309 1149T284 1227V1234Q284 1284 309 1311T383 1338Q434 1338 458 1311T483 1234V1227Q483 1177 459 1150T383 1122ZM699 1122Q649 1122 625 1149T600 1227V1234Q600 1284 624 1311T699 1338Q749 1338 773 1311T798 1234V1227Q798 1177 774 1150T699
1122Z" />
<glyph unicode="&#xfd;" horiz-adv-x="1002" d="M593 173L489 128L764 978H965L520 -344H322L477 115L565 41H344L37 978H240L484 173H593ZM606 1368H822V1365L589 1093H417V1096L606 1368Z" />
<glyph unicode="&#xfe;" horiz-adv-x="1086" d="M633 -22Q546 -22 484 5T382 83T325 201H260L315 386Q318 304 350 250T438 168T569 141Q682 141 742 206T802 399V586Q802 711 743 776T569 841Q501 841 448 815T361 745T312 643L266 777H325Q342 839 378 889T479
970T641 1000Q816 1000 907 890T999 569V414Q999 201 907 90T633 -22ZM124 -344V1324H319V978L314 749L315 685V283L314 243L319 -34V-344H124Z" />
<glyph unicode="&#xff;" horiz-adv-x="1002" d="M593 173L489 128L764 978H965L520 -344H322L477 115L565 41H344L37 978H240L484 173H593ZM344 1122Q295 1122 270 1149T245 1227V1234Q245 1284 270 1311T344 1338Q395 1338 419 1311T444 1234V1227Q444 1177 420
1150T344 1122ZM660 1122Q610 1122 586 1149T561 1227V1234Q561 1284 585 1311T660 1338Q710 1338 734 1311T759 1234V1227Q759 1177 735 1150T660 1122Z" />
<glyph unicode="&#x2013;" horiz-adv-x="1026" d="M114 442V602H912V442H114Z" />
<glyph unicode="&#x2014;" horiz-adv-x="1806" d="M114 442V602H1692V442H114Z" />
<glyph unicode="&#x2018;" horiz-adv-x="407" d="M91 829Q88 849 85 877T82 940Q82 1056 114 1154T219 1339L358 1301Q314 1225 292 1140T270 950Q270 919 272 890T277 829H91Z" />
<glyph unicode="&#x2019;" horiz-adv-x="407" d="M316 1324Q319 1305 322 1276T325 1213Q325 1098 293 1000T188 814L49 852Q93 928 115 1014T137 1203Q137 1235 135 1263T130 1324H316Z" />
<glyph unicode="&#x201a;" horiz-adv-x="384" d="M295 284Q298 264 301 234T305 168Q305 46 270 -58T152 -259L15 -219Q65 -136 89 -44T114 160Q114 193 113 223T107 284H295Z" />
<glyph unicode="&#x201c;" horiz-adv-x="760" d="M91 829Q88 849 85 877T82 940Q82 1056 114 1154T219 1339L358 1301Q314 1225 292 1140T270 950Q270 919 272 890T277 829H91ZM444 829Q441 849 438 877T435 940Q435 1056 467 1154T572 1339L711 1301Q667 1225
645 1140T623 950Q623 919 625 890T630 829H444Z" />
<glyph unicode="&#x201d;" horiz-adv-x="760" d="M669 1324Q672 1305 675 1276T678 1213Q678 1098 646 1000T541 814L402 852Q446 928 468 1014T490 1203Q490 1235 488 1263T483 1324H669ZM316 1324Q319 1305 322 1276T325 1213Q325 1098 293 1000T188 814L49
852Q93 928 115 1014T137 1203Q137 1235 135 1263T130 1324H316Z" />
<glyph unicode="&#x201e;" horiz-adv-x="738" d="M649 284Q652 264 655 234T659 168Q659 46 624 -58T506 -259L369 -219Q419 -136 443 -44T468 160Q468 193 467 223T461 284H649ZM295 284Q298 264 301 234T305 168Q305 46 270 -58T152 -259L15 -219Q65 -136 89
-44T114 160Q114 193 113 223T107 284H295Z" />
<glyph unicode="&#x2022;" horiz-adv-x="589" d="M295 420Q195 420 148 473T100 624V641Q100 737 147 790T295 843Q393 843 441 790T489 641V624Q489 527 441 474T295 420Z" />
<glyph unicode="&#x2039;" horiz-adv-x="570" d="M246 490L529 88H337L65 468V512L337 886H529L246 490Z" />
<glyph unicode="&#x203a;" horiz-adv-x="570" d="M324 490L41 886H233L505 512V468L233 88H41L324 490Z" />
</font>
</defs>
</svg>
